<svg viewBox="0 0 51 44" fill="none" xmlns="http://www.w3.org/2000/svg">
<path d="M32.2713 42.4001C31.9815 42.7313 31.6089 43.0487 31.2501 43.3247C28.9593 40.9511 26.2683 38.3291 23.7015 38.3291C22.1145 38.3291 20.9691 39.5435 19.6443 40.3853C17.7951 41.5721 15.2559 42.2345 13.0755 41.3651C11.9025 40.9235 10.7709 40.2611 9.9291 39.1985C11.6403 40.3853 14.2071 40.5371 16.1391 39.7367C18.2781 38.8535 20.4447 37.6667 22.8873 37.6667C26.4753 37.6943 29.8839 40.1231 32.2713 42.4001ZM5.74771 34.9481C8.1213 37.6529 11.9991 36.7835 15.1731 37.4597C15.6147 37.5563 16.0287 37.6943 16.4979 37.6253C16.1253 37.3907 15.6147 37.3631 15.1869 37.1975C12.7305 36.2729 12.3441 33.6371 10.9917 31.8293C12.7167 32.9747 14.1381 34.5341 15.7527 36.0107C16.8705 37.0319 18.2643 37.4735 19.7133 37.7633C19.3683 37.8875 18.9129 37.8599 18.5403 37.9565C15.9459 38.6051 13.0617 39.6125 10.2879 38.7017C8.5077 38.1083 6.64471 36.7145 5.74771 34.9481ZM1.93891 28.6829C3.41551 32.0363 7.1415 32.2985 9.6255 34.3685C10.0947 34.7549 10.5639 35.1137 11.0745 35.3621L11.1021 35.3345C10.5363 34.8239 9.9153 34.2029 9.4737 33.5543C8.0523 31.4981 8.5353 28.6829 7.4313 26.5025C8.4249 27.6893 9.3495 28.9175 9.9291 30.2699C10.8537 32.4503 11.1573 34.9481 13.2135 36.6179C10.9779 35.8865 8.4111 36.0245 6.39631 34.7135C4.29871 33.3335 2.33911 31.1531 1.93891 28.6829ZM0.351907 21.8933C0.572707 24.8603 3.71911 26.4335 5.20951 28.8623C5.52691 29.3867 5.85811 29.9111 6.3273 30.3389C6.25831 30.0215 5.9961 29.7455 5.8581 29.4419C5.3751 28.3931 5.15431 27.1925 5.27851 25.9505C5.43031 24.4463 6.05131 23.0387 5.81671 21.4517C7.1139 24.2393 6.6999 27.7307 7.4451 30.7529C7.6107 31.4153 8.0109 32.0087 8.2731 32.6435C7.0035 31.6775 5.33371 30.8219 3.93991 29.7179C2.58751 28.6553 1.41451 27.4133 0.807307 25.7849C0.351907 24.6119 0.241507 23.2181 0.351907 21.8933ZM0.434707 16.4423C0.586507 15.7799 0.696907 15.1037 0.986707 14.4965C0.448507 17.2841 2.29771 19.2989 2.93251 21.7139C3.16711 22.6247 3.24991 23.5907 3.62251 24.4325C3.65011 24.4463 3.69151 24.4187 3.70531 24.3911C2.79451 21.8243 4.13311 19.4507 5.44411 17.4221C5.7891 16.8839 5.95471 16.2767 6.12031 15.6419C6.25831 16.8011 6.00991 18.1535 5.80291 19.3541C5.52691 20.8997 5.00251 22.3487 4.57471 23.8391C4.29871 24.7637 4.36771 25.8263 4.51951 26.7923L4.38151 26.6819C3.40171 24.8879 1.48351 23.4803 0.903907 21.5207C0.434707 19.9613 0.117307 18.1535 0.434707 16.4423ZM1.46971 13.4477C1.46971 11.3363 2.29771 9.61129 3.52591 8.03809C3.56731 8.02429 3.58111 7.98289 3.63631 7.99669C2.28391 10.0667 3.51211 12.6611 3.34651 15.0071L3.15331 17.4083C3.18091 17.4221 3.18091 17.4911 3.23611 17.4635C3.31891 17.2013 3.34651 16.9115 3.38791 16.6355C3.71911 14.7035 5.41651 13.3511 6.86551 11.9849C7.21051 11.6675 7.4589 11.2811 7.62451 10.8671C7.5003 11.8331 7.2381 12.8267 6.7965 13.6961C5.69251 15.9455 3.53971 17.7533 3.15331 20.3201C2.96011 17.8775 1.46971 16.0559 1.46971 13.4477ZM5.04391 6.32689C5.72011 5.56789 6.49291 4.97449 7.40371 4.75369C5.63731 5.96809 5.73391 8.14849 5.19571 9.95629C5.00251 10.6187 4.71271 11.2397 4.54711 11.9297L4.58851 11.9711C4.87831 11.1983 5.38891 10.4531 6.0513 9.83209C7.2933 8.65909 9.1701 7.95529 9.77731 6.23029C9.74971 8.61769 7.7211 10.4255 5.8581 11.8331C5.03011 12.4679 4.31251 13.3097 3.88471 14.1929C3.95371 13.5305 3.99511 12.9923 3.92611 12.3437C3.73291 10.2461 3.62251 7.91389 5.04391 6.32689ZM12.2199 2.32489C10.9089 3.47029 10.0257 4.96069 9.01831 6.28549C8.17651 7.38949 7.03111 8.07949 6.03751 9.00409C6.57571 7.90009 6.67231 6.63049 7.34851 5.55409C8.5215 3.73249 10.4397 3.01489 12.2199 2.32489Z" fill="#A0D3FF" fill-opacity="0.8"/>
<path d="M18.7202 42.4001C19.01 42.7313 19.3826 43.0487 19.7414 43.3247C22.0322 40.9511 24.7232 38.3291 27.29 38.3291C28.877 38.3291 30.0224 39.5435 31.3472 40.3853C33.1964 41.5721 35.7356 42.2345 37.916 41.3651C39.089 40.9235 40.2206 40.2611 41.0624 39.1985C39.3512 40.3853 36.7844 40.5371 34.8524 39.7367C32.7134 38.8535 30.5468 37.6667 28.1042 37.6667C24.5162 37.6943 21.1076 40.1231 18.7202 42.4001ZM45.2438 34.9481C42.8702 37.6529 38.9924 36.7835 35.8184 37.4597C35.3768 37.5563 34.9628 37.6943 34.4936 37.6253C34.8662 37.3907 35.3768 37.3631 35.8046 37.1975C38.261 36.2729 38.6474 33.6371 39.9998 31.8293C38.2748 32.9747 36.8534 34.5341 35.2388 36.0107C34.121 37.0319 32.7272 37.4735 31.2782 37.7633C31.6232 37.8875 32.0786 37.8599 32.4512 37.9565C35.0456 38.6051 37.9298 39.6125 40.7036 38.7017C42.4838 38.1083 44.3468 36.7145 45.2438 34.9481ZM49.0526 28.6829C47.576 32.0363 43.85 32.2985 41.366 34.3685C40.8968 34.7549 40.4276 35.1137 39.917 35.3621L39.8894 35.3345C40.4552 34.8239 41.0762 34.2029 41.5178 33.5543C42.9392 31.4981 42.4562 28.6829 43.5602 26.5025C42.5666 27.6893 41.642 28.9175 41.0624 30.2699C40.1378 32.4503 39.8342 34.9481 37.778 36.6179C40.0136 35.8865 42.5804 36.0245 44.5952 34.7135C46.6928 33.3335 48.6524 31.1531 49.0526 28.6829ZM50.6396 21.8933C50.4188 24.8465 47.2724 26.4335 45.782 28.8623C45.4646 29.3867 45.1334 29.9111 44.6642 30.3389C44.7332 30.0215 44.9954 29.7455 45.1334 29.4419C45.6164 28.3931 45.8372 27.1925 45.713 25.9505C45.5612 24.4463 44.9402 23.0387 45.1748 21.4517C43.8776 24.2393 44.2916 27.7307 43.5464 30.7529C43.3808 31.4153 42.9806 32.0087 42.7184 32.6435C43.988 31.6775 45.6578 30.8219 47.0516 29.7179C48.404 28.6553 49.577 27.4133 50.1842 25.7849C50.6396 24.6119 50.75 23.2181 50.6396 21.8933ZM50.5568 16.4423C50.405 15.7799 50.2946 15.1037 50.0048 14.4965C50.543 17.2841 48.6938 19.2989 48.059 21.7139C47.8244 22.6247 47.7416 23.5907 47.369 24.4325C47.3414 24.4463 47.3 24.4187 47.2862 24.3911C48.197 21.8243 46.8584 19.4507 45.5474 17.4221C45.2024 16.8839 45.0368 16.2767 44.8712 15.6419C44.7332 16.8011 44.9816 18.1535 45.1886 19.3541C45.4646 20.8997 45.989 22.3487 46.4168 23.8391C46.6928 24.7637 46.6238 25.8263 46.472 26.7923L46.61 26.6819C47.5898 24.8879 49.508 23.4803 50.0876 21.5207C50.5568 19.9613 50.8742 18.1535 50.5568 16.4423ZM49.5218 13.4477C49.5218 11.3363 48.6938 9.61129 47.4656 8.03809C47.4242 8.02429 47.4104 7.98289 47.3552 7.99669C48.7076 10.0667 47.4794 12.6611 47.645 15.0071L47.8244 17.4083C47.7968 17.4221 47.7968 17.4911 47.7416 17.4635C47.6588 17.2013 47.6312 16.9115 47.5898 16.6355C47.2586 14.7035 45.5612 13.3511 44.1122 11.9849C43.7672 11.6675 43.5188 11.2811 43.3532 10.8671C43.4774 11.8331 43.7396 12.8267 44.1812 13.6961C45.2852 15.9455 47.438 17.7533 47.8244 20.3201C48.0314 17.8775 49.5218 16.0559 49.5218 13.4477ZM45.9476 6.32689C45.2714 5.56789 44.4986 4.97449 43.5878 4.75369C45.3542 5.96809 45.2576 8.14849 45.7958 9.95629C45.989 10.6187 46.2788 11.2397 46.4444 11.9297L46.403 11.9711C46.1132 11.1983 45.6026 10.4531 44.9402 9.83209C43.6982 8.65909 41.8214 7.95529 41.2142 6.23029C41.2418 8.61769 43.2704 10.4255 45.1334 11.8331C45.9614 12.4679 46.679 13.3097 47.1068 14.1929C47.0378 13.5305 46.9964 12.9923 47.0654 12.3437C47.2586 10.2461 47.369 7.91389 45.9476 6.32689ZM38.7716 2.32489C40.0826 3.47029 40.9658 4.96069 41.9732 6.28549C42.815 7.38949 43.9604 8.07949 44.954 9.00409C44.4158 7.90009 44.3192 6.63049 43.643 5.55409C42.47 3.73249 40.5518 3.01489 38.7716 2.32489Z" fill="#A0D3FF" fill-opacity="0.8"/>
<path d="M41.5198 26.1573L41.1334 25.9503C40.3054 27.6477 39.229 29.1933 37.918 30.5181L35.6548 28.2549C36.7588 27.1095 37.6558 25.8123 38.3182 24.4185L37.9318 24.2115C37.2832 25.6053 36.4 26.8611 35.3512 27.9513L33.295 25.8951C34.1782 24.9843 34.8682 23.9355 35.3788 22.8039L34.9924 22.5969C34.4956 23.7147 33.8194 24.7221 32.9914 25.5915L30.7282 23.3283C31.363 22.6659 31.846 21.8931 32.1772 21.0651L31.7908 20.8581C31.4734 21.6723 31.0042 22.4037 30.4246 23.0247L28.3684 20.9685C28.948 20.3199 29.293 19.4919 29.3482 18.6225H32.26C32.2324 19.4091 32.0806 20.1681 31.8046 20.8581L32.191 21.0651C32.4946 20.2923 32.674 19.4643 32.7016 18.6225H35.917C35.8894 20.0439 35.572 21.3825 35.0338 22.6107L35.4202 22.8177C35.9998 21.5067 36.331 20.0853 36.3586 18.6225H39.2704C39.2428 20.6235 38.7736 22.5141 37.987 24.2115L38.3734 24.4185C39.2152 22.6245 39.6706 20.6511 39.712 18.6087H42.9274C42.8998 21.2307 42.2788 23.7285 41.2024 25.9503L41.5198 26.1573C42.679 23.7699 43.3 21.1203 43.3 18.3879C43.3 16.0557 42.8584 13.8063 42.0028 11.7087L41.6026 11.8743C42.403 13.8477 42.8308 15.9729 42.8584 18.1671H39.643C39.6154 16.4145 39.2704 14.7309 38.6494 13.1439L38.2492 13.3095C38.8564 14.8413 39.1876 16.4697 39.2152 18.1671H36.3034C36.2758 16.8837 36.0274 15.6279 35.572 14.4687L35.1718 14.6343C35.5996 15.7521 35.848 16.9389 35.8618 18.1671H32.6464C32.6188 17.3805 32.4808 16.6215 32.2048 15.9039L31.8046 16.0695C32.053 16.7319 32.1772 17.4357 32.2048 18.1671H29.293C29.2516 17.2839 28.9066 16.4697 28.3132 15.8211L30.3694 13.7649C31.0042 14.4411 31.4872 15.2277 31.7908 16.0833L32.191 15.9177C31.8598 15.0207 31.3492 14.1927 30.673 13.4751L32.95 11.2119C33.916 12.2193 34.6612 13.3923 35.1442 14.6619L35.5444 14.4963C35.0338 13.1715 34.261 11.9571 33.2536 10.9083L35.3098 8.85207C36.5794 10.1631 37.5592 11.6949 38.2216 13.3371L38.6218 13.1715C37.9456 11.4741 36.9382 9.90087 35.6272 8.54847L37.8904 6.27147C39.4912 7.91367 40.7332 9.81807 41.575 11.9019L41.9752 11.7363C41.092 9.55587 39.7672 7.54107 38.056 5.82987C36.331 4.10487 34.3162 2.78007 32.122 1.89687L31.9702 2.29707C34.0402 3.13887 35.9584 4.36707 37.6006 5.98167L35.3374 8.25867C34.0126 6.97527 32.467 5.96787 30.7972 5.29167L30.6454 5.69187C32.26 6.35427 33.7504 7.30647 35.0338 8.56227L32.9776 10.6185C31.984 9.65247 30.8248 8.90727 29.5828 8.39667L29.431 8.79687C30.6316 9.27987 31.7218 9.99747 32.6878 10.9221L30.4246 13.1853C29.7898 12.5781 29.0584 12.1089 28.2718 11.7777L28.12 12.1779C28.8514 12.4815 29.5414 12.9231 30.1348 13.4889L28.0786 15.5451C27.43 14.9655 26.602 14.6205 25.7326 14.5653V11.6535C26.5744 11.6811 27.3748 11.8605 28.1338 12.1779L28.2856 11.7777C27.4852 11.4465 26.6158 11.2533 25.7326 11.2257V8.01027C27.0298 8.03787 28.2856 8.30007 29.4586 8.78307L29.6104 8.38287C28.396 7.88607 27.0712 7.61007 25.7188 7.58247V4.67067C27.4438 4.69827 29.1136 5.04327 30.673 5.66427L30.8248 5.26407C29.224 4.61547 27.499 4.25667 25.7188 4.22907V1.02747C27.8992 1.05507 30.0244 1.48287 31.9978 2.28327L32.1496 1.88307C30.0658 1.04127 27.8164 0.59967 25.498 0.59967C22.6414 0.59967 19.9366 1.27587 17.5354 2.49027L17.7286 2.86287C20.047 1.70367 22.6138 1.06887 25.2772 1.02747V4.24287C23.0968 4.27047 21.0406 4.80867 19.219 5.71947L19.4122 6.09207C21.22 5.19507 23.2072 4.71207 25.2772 4.67067V7.58247C23.6626 7.61007 22.1308 7.99647 20.7646 8.67267L20.9578 9.04527C22.2964 8.39667 23.7592 8.03787 25.2772 8.01027V11.2257C24.2698 11.2533 23.3176 11.4879 22.4482 11.9019L22.6414 12.2745C23.4556 11.8881 24.3526 11.6811 25.2772 11.6535V14.5653C24.8218 14.5929 24.394 14.6895 23.9938 14.8551L24.187 15.2277C24.5872 15.0621 25.0288 14.9793 25.4842 14.9793C26.395 14.9793 27.2644 15.3381 27.8992 15.9867C28.5478 16.6353 28.9066 17.4909 28.9066 18.4155C28.9066 20.3061 27.3748 21.8379 25.4842 21.8379C24.5734 21.8379 23.704 21.4791 23.0554 20.8305C22.4068 20.1819 22.048 19.3263 22.048 18.4017C22.048 17.4909 22.4068 16.6215 23.0554 15.9729C23.3866 15.6417 23.7592 15.3933 24.1732 15.2277L23.98 14.8551C23.5798 15.0207 23.221 15.2553 22.9036 15.5313L20.8474 13.4751C21.3856 12.9783 21.979 12.5643 22.6276 12.2745L22.4344 11.9019C21.7444 12.2331 21.1096 12.6609 20.5576 13.1853L18.2806 10.9083C19.081 10.1493 19.978 9.51447 20.944 9.04527L20.7508 8.67267C19.7296 9.16947 18.7912 9.83187 17.977 10.6047L15.9208 8.54847C16.9558 7.54107 18.1288 6.71307 19.3984 6.09207L19.2052 5.71947C17.8804 6.38187 16.6798 7.23747 15.631 8.24487L13.354 5.96787C14.6512 4.69827 16.1278 3.64947 17.7148 2.86287L17.5216 2.49027C14.0578 4.22907 11.2288 7.07187 9.51759 10.5495L9.89019 10.7565C10.6906 9.12807 11.7532 7.61007 13.0504 6.28527L15.3274 8.56227C14.2648 9.65247 13.3816 10.9083 12.7192 12.3021L13.0918 12.5091C13.7266 11.1843 14.5822 9.95607 15.631 8.87967L17.6872 10.9359C16.8592 11.8053 16.1692 12.7989 15.6586 13.9029L16.0312 14.1099C16.5142 13.0611 17.1628 12.0951 17.9908 11.2395L20.2678 13.5165C19.6882 14.1375 19.219 14.8551 18.874 15.6417L19.2466 15.8487C19.5502 15.1035 19.9918 14.4273 20.5576 13.8201L22.6138 15.8763C22.048 16.5111 21.6892 17.3253 21.634 18.2223H18.736C18.7636 17.3943 18.943 16.5939 19.2466 15.8349L18.874 15.6279C18.529 16.4283 18.3358 17.2977 18.3082 18.2085H15.0928C15.1204 16.7595 15.4516 15.3657 16.0312 14.0961L15.6586 13.8891C15.0514 15.2139 14.6926 16.6629 14.665 18.2085H11.7532C11.7808 16.2075 12.25 14.2617 13.0918 12.4953L12.7192 12.2883C11.8498 14.0823 11.353 16.0833 11.3254 18.1947H8.11C8.1376 15.5727 8.7586 13.0473 9.8764 10.7565L9.5038 10.5495C8.3308 12.9231 7.6684 15.5865 7.6684 18.4017C7.6684 20.1267 7.9168 21.8103 8.386 23.4249L8.8 23.3145C8.3584 21.8103 8.11 20.2233 8.0962 18.6225H11.3116C11.3254 19.9611 11.5324 21.2859 11.9188 22.5417L12.3328 22.4313C11.9602 21.2169 11.7532 19.9335 11.7394 18.6225H14.6512C14.6788 19.6851 14.8444 20.7339 15.1618 21.7137L15.5758 21.6033C15.2722 20.6511 15.0928 19.6437 15.079 18.6087H18.2944C18.322 19.3677 18.46 20.1129 18.7084 20.8167L19.1224 20.7063C18.874 20.0439 18.7498 19.3263 18.7222 18.6087H21.634C21.6754 19.4919 22.0204 20.3061 22.6138 20.9547L20.5576 23.0109C19.9228 22.3347 19.4398 21.5481 19.1362 20.7063L18.7222 20.8167C19.0534 21.7413 19.5778 22.5969 20.2678 23.3283L18.0046 25.6053C16.9006 24.4599 16.0864 23.0937 15.6172 21.6171L15.2032 21.7275C15.7 23.2869 16.5418 24.7083 17.7148 25.9227L15.6586 27.9789C14.1268 26.3919 13.009 24.5013 12.388 22.4451L11.974 22.5555C12.6226 24.6945 13.768 26.6541 15.3688 28.2825L13.1056 30.5595C11.0908 28.5033 9.6556 26.0331 8.869 23.3421L8.455 23.4525C9.283 26.2815 10.8148 28.8759 12.9538 31.0287C14.4028 32.4777 16.0726 33.6507 17.8666 34.5063L18.0736 34.1337C16.3762 33.3195 14.7892 32.2293 13.4092 30.8769L15.6724 28.6137C16.8454 29.7591 18.1978 30.6699 19.6468 31.3323L19.8538 30.9597C18.4324 30.3111 17.1214 29.4279 15.9622 28.3101L18.0184 26.2539C18.9844 27.1785 20.0884 27.9099 21.289 28.4205L21.496 28.0479C20.3368 27.5649 19.2604 26.8611 18.322 25.9641L20.599 23.6871C21.3304 24.3771 22.1722 24.8877 23.0968 25.2189L23.3176 24.8325C22.4344 24.5289 21.6064 24.0321 20.9026 23.3697L22.9588 21.3135C23.6074 21.9069 24.4354 22.2381 25.3048 22.2933V25.2051C24.6148 25.1775 23.9386 25.0533 23.3038 24.8325L23.083 25.2189C23.7868 25.4673 24.532 25.6191 25.3048 25.6329V28.8483C23.98 28.8207 22.6828 28.5447 21.496 28.0479L21.289 28.4205C22.5448 28.9587 23.911 29.2485 25.3048 29.2761V32.1879C23.3866 32.1603 21.5512 31.7325 19.8538 30.9735L19.6468 31.3461C21.3994 32.1465 23.3314 32.5881 25.3186 32.6157V35.7621C22.7656 35.7345 20.3092 35.1549 18.0736 34.0923L17.8666 34.4649C20.2402 35.5965 22.8484 36.2037 25.5394 36.2037C28.3684 36.2037 31.1008 35.5413 33.5572 34.2993L33.3502 33.8991C31.0594 35.0583 28.4788 35.7345 25.7464 35.7621V32.5467C27.913 32.5191 29.9968 31.9947 31.8874 31.0425L31.6804 30.6561C29.8864 31.5531 27.8716 32.0775 25.7464 32.1189V29.2071C27.3748 29.1795 28.9342 28.7793 30.3556 28.0755L30.1624 27.6891C28.8238 28.3515 27.3334 28.7379 25.7464 28.7793V25.5639C26.7814 25.5363 27.775 25.2879 28.6858 24.8463L28.4926 24.4599C27.6646 24.8601 26.7262 25.1085 25.7464 25.1361V22.2381C26.6296 22.1967 27.4438 21.8517 28.0924 21.2583L30.1486 23.3145C29.6518 23.7837 29.0998 24.1701 28.4788 24.4599L28.672 24.8463C29.3206 24.5289 29.914 24.1149 30.4522 23.6181L32.7154 25.8813C31.9564 26.6127 31.087 27.2199 30.1486 27.6891L30.3418 28.0755C31.3078 27.5925 32.2186 26.9577 33.019 26.1849L35.0752 28.2411C34.0816 29.2071 32.9224 30.0213 31.6804 30.6561L31.8874 31.0425C33.157 30.4077 34.3438 29.5659 35.3926 28.5447L37.6558 30.8079C36.3862 32.0361 34.9372 33.0849 33.3502 33.8853L33.5572 34.2855C35.227 33.4437 36.7588 32.3397 38.125 30.9735C39.5188 29.5659 40.6642 27.9237 41.5198 26.1573Z" fill="#A0D3FF" fill-opacity="0.8"/>
<path d="M26.5139 14.2758H26.4038V14.3997H26.5139V14.2758Z" fill="#A0D3FF" fill-opacity="0.8"/>
<path d="M26.3917 14.0962H26.2541V14.2063H26.3917V14.0962Z" fill="#A0D3FF" fill-opacity="0.8"/>
<path d="M25.9923 14.0683L26.1162 14.0821L26.13 13.972L26.0061 13.9583L25.9923 14.0683Z" fill="#A0D3FF" fill-opacity="0.8"/>
<path d="M25.9045 13.914L25.782 13.8963L25.7662 14.0053L25.8888 14.023L25.9045 13.914Z" fill="#A0D3FF" fill-opacity="0.8"/>
<path d="M24.9849 13.8754H24.8473V13.9855H24.9849V13.8754Z" fill="#A0D3FF" fill-opacity="0.8"/>
<path d="M24.5384 14.1022L24.661 14.1198L24.6767 14.0108L24.5541 13.9932L24.5384 14.1022Z" fill="#A0D3FF" fill-opacity="0.8"/>
<path d="M24.5441 14.2612L24.4065 14.2337L24.434 14.1236L24.5716 14.1649L24.5441 14.2612Z" fill="#A0D3FF" fill-opacity="0.8"/>
<path d="M24.2967 14.3997L24.2829 14.2896L24.3792 14.2758L24.4068 14.3859L24.2967 14.3997Z" fill="#A0D3FF" fill-opacity="0.8"/>
<path d="M10.1916 25.5777V25.8261H10.302L10.2882 25.5501L10.1364 25.4949V25.3983H10.0536V25.5777H10.1916Z" fill="#A0D3FF" fill-opacity="0.8"/>
<path d="M10.9521 26.2397L11.2143 26.3639L11.3109 26.6261L11.4351 26.709L11.5593 26.985L11.4903 27.1092L11.2971 26.9298L11.1453 26.7366L11.0763 26.5709L10.9521 26.2397Z" fill="#A0D3FF" fill-opacity="0.8"/>
<path d="M15.4917 31.8571L15.5883 32.0917L15.4641 32.1607L15.3813 32.0503L15.2019 31.9951L15.1881 31.8295L15.0501 31.6225L15.2571 31.6501L15.4917 31.8571Z" fill="#A0D3FF" fill-opacity="0.8"/>
<path d="M24.9443 15.4488H24.7511L24.7097 15.0486L24.8201 14.9796V14.7726H24.1853L24.1715 14.5656L24.2681 14.5104L24.1301 14.4552L24.0197 14.607L23.9783 14.7726L23.7989 14.814V14.9106H23.6747V15.1452L23.1779 15.5592L22.1705 15.5178C22.1015 15.6834 21.9221 15.504 21.9221 15.504C21.8807 15.3936 21.6323 15.504 21.6323 15.504C21.6323 15.711 21.2873 15.4074 21.2873 15.4074L20.6525 14.952C20.2937 14.6208 19.7555 15.0486 19.7417 15.1314C19.7555 15.3798 19.3277 15.1866 19.3277 15.1866C19.3277 15.1866 18.9689 15.0762 18.9137 15.228C18.8585 15.3798 18.6239 15.3384 18.6239 15.3384L18.5825 15.4074L18.4031 15.4488L18.3617 15.5592L18.1409 15.6006L18.6791 15.5868C18.8171 15.573 18.6239 15.8904 18.5411 15.8766L18.2927 15.8904L18.1961 15.987H17.9615L17.8511 16.1388L17.5061 16.125C17.5061 16.125 17.3129 16.2906 17.3267 16.3458C17.3405 16.401 17.2853 16.5666 17.2301 16.5666C17.1749 16.5666 17.0645 16.7322 17.1059 16.7874C17.1473 16.8426 16.9955 17.022 16.9955 17.022L16.9541 17.2014L16.8437 17.2428V17.7396L16.6229 17.8914V18.1122L16.3055 18.4572L16.3469 18.747L16.0709 19.0368L16.1123 19.3266L15.9467 19.3818L15.9053 19.506L15.8363 19.8924L16.0157 19.9062C16.0985 19.8648 16.0847 20.1408 16.0157 20.1822C15.9467 20.2236 15.7397 20.2926 15.8501 20.3616C15.9605 20.4306 15.5603 20.4168 15.5603 20.3064C15.5603 20.196 15.3395 20.0994 15.2843 20.1408C15.2291 20.1822 15.1463 19.9752 15.1463 19.9752C14.9531 19.7682 14.3321 19.989 14.3321 19.989L14.2355 20.2788C14.0423 20.3202 13.9181 20.6376 13.9181 20.6376C13.7525 20.6928 13.6283 20.886 13.6835 20.9412C13.7387 20.9964 13.5869 21.0102 13.5869 21.0102V21.4104L13.5041 21.5346L13.5179 21.9762C13.6283 21.9762 13.6145 22.1832 13.6145 22.1832C13.4351 22.197 13.4765 22.4316 13.4765 22.4316L13.1039 22.5558L13.0349 22.6662L12.5657 22.6524L12.4415 22.7766L12.3173 22.6524H11.4203L11.3789 22.5558L11.1995 22.5144L11.1857 22.3074L10.9097 22.3212L10.8545 22.4316L10.5647 22.4454C10.5785 22.6248 10.2749 22.9008 10.2473 22.8318C10.2059 22.7628 10.0127 22.5558 10.1093 22.5282C10.2059 22.4868 10.4267 22.4592 10.4267 22.4592V22.335L9.76432 22.3212L9.69532 22.4316L9.41932 22.4454V22.7352L9.29512 22.7766C9.19852 22.8318 9.30892 23.025 9.30892 23.025C9.43312 23.1492 9.29512 23.3562 9.29512 23.3562C9.18472 23.4666 9.37792 23.6598 9.37792 23.6598C9.51592 23.7012 9.29512 23.8116 9.29512 23.8116C9.33652 23.991 9.43312 24.0462 9.43312 24.0462C9.32272 24.2256 9.50212 24.3222 9.50212 24.3222L9.51592 24.6258L9.64012 24.6948V24.888L9.70912 25.0122H9.99892L10.0403 24.5844C9.79192 24.2946 10.2611 24.2256 10.2749 24.3222C10.2887 24.4326 10.4957 24.4878 10.4957 24.4878C10.5371 24.7638 10.8407 24.9294 10.9235 24.6534C11.0201 24.3774 11.0891 24.543 11.1443 24.6672C11.1995 24.7914 11.5445 25.1088 11.5445 25.1088H11.8205L11.8619 25.3572C12.1655 25.3434 12.2621 25.371 12.3863 25.7988C12.5105 26.2128 12.8555 26.3232 12.8555 26.3232L13.1039 26.3094C13.1039 26.0886 13.3523 26.3508 13.3523 26.4612C13.3523 26.5716 13.8353 26.9856 13.8353 26.9856L14.3183 27.096L14.7737 27.4548L15.1187 27.4134H15.2567C15.3395 27.1098 15.7811 27.4272 15.8087 27.5376C15.8501 27.648 16.1261 27.8274 16.1675 27.7446C16.2089 27.648 16.4021 27.7032 16.4435 27.9792C16.4849 28.2552 16.6091 28.2 16.6091 28.2L17.6303 28.1862L17.9891 27.8826L18.8999 27.8688C19.3691 27.855 19.0793 27.2064 18.9965 27.2064C18.8309 27.0822 19.0517 26.544 19.0517 26.544L17.7407 25.3296C17.4371 25.3296 17.6993 24.888 17.6993 24.888C17.9339 24.7362 17.6441 24.5016 17.6441 24.5016C17.6855 24.2808 17.5199 24.0324 17.5199 24.0324C17.2025 23.8116 17.2853 23.3976 17.2853 23.3976V23.1078C17.0093 22.8594 17.3957 22.818 17.3957 22.818C17.5199 22.5972 17.2991 22.4316 17.2991 22.4316L17.2853 22.197L16.9955 22.1556L16.9541 21.3L16.3055 20.3754C16.1813 20.334 16.2641 20.127 16.2641 20.127C16.4297 20.0304 16.2227 19.8234 16.2227 19.8234L16.2089 19.4232L16.5815 19.3818L16.6781 19.23H16.8575L16.8437 18.7608C16.9265 18.5262 17.1473 18.6504 17.1473 18.6504L17.3957 18.6642L17.5337 18.3882L17.5751 18.1674L17.3819 18.1536C17.1611 18.0294 17.2715 17.5464 17.2715 17.5464C17.6165 17.0358 18.0029 17.3256 18.0029 17.3256L18.2513 17.3118C18.6239 17.5602 18.2927 18.0432 18.2927 18.0432C18.2237 18.1536 18.2513 18.4986 18.2513 18.4986L18.3341 19.0782L18.0995 19.2852C17.9063 19.3956 17.9063 19.644 18.1133 19.6992C18.2513 19.713 18.1961 20.058 17.9891 19.8234C17.6717 19.8234 18.1685 20.1132 18.0305 20.0442C18.3479 20.2098 18.2789 19.8924 18.2789 19.8924L18.7067 19.5474C18.8723 19.4232 19.1621 19.8234 19.1621 19.8786C19.1621 19.9338 19.8797 19.8924 19.8797 19.8924C20.0729 20.0166 20.1557 20.3478 20.1557 20.3478C20.3489 20.0856 20.7629 20.334 20.4593 20.472C20.7491 20.6514 20.7491 20.817 20.7491 20.817C20.9837 20.748 20.9837 20.9274 20.9837 20.9826C20.9837 21.0378 21.0527 20.7066 21.0527 20.7066C20.7767 20.4996 21.4115 20.4306 21.2321 20.8032L21.1217 20.9688L21.3011 21.1206L21.3149 21.5346C21.7151 21.4932 21.6047 21.0102 21.6047 21.0102L21.7841 20.9688C21.7841 20.8032 21.9083 20.8998 21.9083 20.8998C21.7841 20.2788 22.1981 20.1684 22.1981 20.1684C22.4327 20.1132 22.4465 19.6164 22.4465 19.6164C22.2809 19.5474 22.3775 19.2852 22.5569 19.506C22.7363 19.7268 22.4465 19.0644 22.4465 19.0644L22.3085 18.9402L22.1153 18.9264L22.1015 18.7194H21.7841L21.7289 18.9816L21.6047 19.023L21.5633 18.954L21.5081 19.161H21.1907L21.1769 18.9402L21.3701 18.885L21.4391 18.7746L21.4943 18.4848H21.7289L22.0325 18.3882C22.0463 18.0846 22.2119 18.1536 22.2119 18.1536L22.3223 18.2502L22.4879 18.3744L22.5017 18.4848L22.3913 18.54L22.3775 18.6918L22.4327 18.8988H22.5707C22.6259 18.609 22.9985 18.609 23.1089 18.7884L23.2193 18.54C22.9709 18.4158 23.2193 18.2088 23.2883 18.3054C23.3573 18.402 23.5229 18.0708 23.5229 18.0708C23.5229 18.0708 23.6471 18.2364 23.5229 18.0156C23.3987 17.7948 23.6057 17.6844 23.6057 17.6844C23.5643 17.4636 23.8403 17.505 23.8403 17.505L23.8541 17.2152L23.6057 17.2014C23.5505 17.4498 23.3297 17.2428 23.4401 17.1876C23.5505 17.1324 23.6609 17.022 23.6609 17.022V16.8426L23.7713 16.8012L23.7851 16.6218H24.0611L24.2957 16.5114L24.3509 16.4148L24.5993 16.401L24.9581 16.0698L24.9167 15.918C24.6959 15.918 24.9167 15.7524 24.9167 15.7524L24.9443 15.4488Z" fill="#A0D3FF" fill-opacity="0.8"/>
<path d="M17.6971 19.0641L17.3797 19.0227L17.3935 19.1469H17.4763C17.6143 19.4091 17.4901 20.0163 17.4901 20.0163C17.4901 20.0163 17.2693 20.0301 17.2417 19.9197C17.2003 19.8093 17.1175 20.1543 17.1865 20.2095C17.2555 20.2647 17.5039 20.2095 17.5315 20.4165C17.5453 20.6235 17.6971 20.2923 17.6971 20.2923V19.0641Z" fill="#A0D3FF" fill-opacity="0.8"/>
<path d="M17.381 20.5406V20.9684L17.6708 21.3548L17.7674 21.0926L17.8088 20.9408L17.6846 20.8856L17.6984 20.6096L17.8088 20.5958L17.8226 20.4578L17.5604 20.651L17.381 20.5406Z" fill="#A0D3FF" fill-opacity="0.8"/>
<path d="M17.8498 21.7551V21.5757L17.7256 21.5895L17.698 21.7413L17.8498 21.7551Z" fill="#A0D3FF" fill-opacity="0.8"/>
<path d="M17.6835 22.6243V22.5005L17.5321 22.528V22.6519L17.6835 22.6243Z" fill="#A0D3FF" fill-opacity="0.8"/>
<path d="M17.8903 22.0721C17.9359 22.0721 17.9729 22.0351 17.9729 21.9895C17.9729 21.9439 17.9359 21.907 17.8903 21.907C17.8447 21.907 17.8078 21.9439 17.8078 21.9895C17.8078 22.0351 17.8447 22.0721 17.8903 22.0721Z" fill="#A0D3FF" fill-opacity="0.8"/>
<path d="M18.0149 22.4583C18.0605 22.4583 18.0974 22.4213 18.0974 22.3757C18.0974 22.3301 18.0605 22.2932 18.0149 22.2932C17.9693 22.2932 17.9323 22.3301 17.9323 22.3757C17.9323 22.4213 17.9693 22.4583 18.0149 22.4583Z" fill="#A0D3FF" fill-opacity="0.8"/>
<path d="M18.0302 20.3741C18.0758 20.3741 18.1127 20.3372 18.1127 20.2916C18.1127 20.246 18.0758 20.209 18.0302 20.209C17.9846 20.209 17.9476 20.246 17.9476 20.2916C17.9476 20.3372 17.9846 20.3741 18.0302 20.3741Z" fill="#A0D3FF" fill-opacity="0.8"/>
<path d="M23.7823 17.8218H23.8927L23.9065 17.9322L23.8375 18.0012L23.8099 18.0978L23.6581 18.1254L23.3407 18.4428L23.3269 18.5808L23.2303 18.7188L23.1199 18.981L22.7473 19.0086L22.6783 19.326L22.7335 19.602L23.0509 19.7262L23.0923 19.5468L23.1889 19.4916L23.2165 19.3122L23.2855 19.188L23.3959 19.0638L23.4235 18.912L23.6029 18.8016L23.8237 18.7602L23.9065 18.6636L23.9479 18.4428L23.9617 18.2772L24.0445 18.1668L24.2515 18.0702V17.7252H24.1411L24.1273 17.601L23.9341 17.5872L23.8927 17.67H23.8099L23.7823 17.8218Z" fill="#A0D3FF" fill-opacity="0.8"/>
<path d="M24.6402 18.8435V18.5951L24.5988 18.3605L24.3366 18.2363L24.1434 18.4157L24.102 18.6641V18.8297L23.9226 18.8711L23.8812 19.3679L23.7432 19.4231L23.757 19.6025L23.5638 19.6577L23.3706 19.7129L23.3292 19.9475L23.1912 20.0441L23.1222 20.2649L23.0394 20.7893C23.0394 20.7893 23.205 21.0929 23.2878 20.9549C23.3844 20.8031 23.5224 20.7893 23.5224 20.7893L23.5776 20.6651L24.0606 20.6789C24.102 20.4719 24.3366 20.5547 24.3366 20.6375C24.3366 20.7341 24.516 20.6513 24.516 20.6513L24.6402 20.4443H24.8334L24.8472 20.2235L24.9438 20.1683V19.8371C25.2336 19.7405 25.1922 19.4783 25.1922 19.4783L25.2612 19.3817L25.2198 19.2575C25.0818 19.2023 25.1508 19.0781 25.2336 19.1057C25.3302 19.1471 25.1094 18.9401 25.1094 18.9401C24.999 19.0367 24.9162 18.8297 24.9162 18.8297H24.6402V18.8435Z" fill="#A0D3FF" fill-opacity="0.8"/>
<path d="M24.9144 21.0511C24.9006 21.2719 24.6246 21.3409 24.6246 21.3409L24.4314 21.2857L24.321 21.1891L24.3072 20.9269L24.4728 20.9131L24.5142 21.0235L24.9144 21.0511Z" fill="#A0D3FF" fill-opacity="0.8"/>
<path d="M25.8926 19.8785C25.934 20.0441 25.934 19.6163 26.003 19.6439C26.072 19.6577 26.0168 19.3955 26.0168 19.3955L25.6994 19.6301C25.8512 19.6439 25.865 19.8095 25.8926 19.8785Z" fill="#A0D3FF" fill-opacity="0.8"/>
<path d="M26.8491 18.9259C26.9181 19.0915 26.9043 19.3261 27.1665 19.5055C27.2631 19.5607 27.1113 19.6849 27.0285 19.6297C26.9457 19.5745 26.6835 19.1743 26.6835 19.1743V18.9397C26.7387 18.8017 26.8077 18.8569 26.8491 18.9259Z" fill="#A0D3FF" fill-opacity="0.8"/>
<path d="M26.8495 24.4739L26.9047 24.5291L26.9461 24.6119L27.0841 24.4187L26.9737 24.3773L26.8495 24.4739Z" fill="#A0D3FF" fill-opacity="0.8"/>
<path d="M28.9874 23.9215L29.1392 23.8249L29.084 23.7283L28.9322 23.8249L28.9874 23.9215Z" fill="#A0D3FF" fill-opacity="0.8"/>
<path d="M34.1897 27.7165L34.3553 27.7855L34.3691 28.0891C34.5899 28.3099 35.2799 28.1305 35.2799 28.0753C35.2799 28.0201 35.2385 27.3991 35.2385 27.3991L35.1419 27.3025L35.1281 26.8471C35.1971 26.6125 34.7831 26.2675 34.7555 26.3365C34.7141 26.4055 34.4795 26.3503 34.4795 26.4331C34.4795 26.5021 34.3415 26.8747 34.4105 26.9989C34.4795 27.1231 34.3553 27.1231 34.3415 27.2473C34.3277 27.3853 34.1483 27.6061 34.1897 27.7165Z" fill="#A0D3FF" fill-opacity="0.8"/>
<path d="M33.7897 26.9852C33.7621 27.1232 33.6241 27.206 33.5551 27.1508C33.4861 27.0956 33.6379 27.2474 33.6793 27.3164C33.7207 27.3854 33.8173 27.3854 33.8587 27.3164C33.9001 27.2474 33.8725 27.0818 33.9139 27.0128C33.9553 26.93 33.8173 26.9162 33.7897 26.9852Z" fill="#A0D3FF" fill-opacity="0.8"/>
<path d="M33.0827 23.6454H32.9586V23.9904H33.0827V23.6454Z" fill="#A0D3FF" fill-opacity="0.8"/>
<path d="M34.8116 20.1407C34.7288 20.0303 35.1704 19.8509 35.2394 20.0717C35.3084 20.2925 35.2394 20.2511 35.1704 20.2373C35.1014 20.2097 34.922 20.2787 34.8116 20.1407Z" fill="#A0D3FF" fill-opacity="0.8"/>
<path d="M35.1949 17.698L35.1812 17.7946L35.3744 17.836L35.402 17.7256L35.1949 17.698Z" fill="#A0D3FF" fill-opacity="0.8"/>
<path d="M34.7007 18.0015L34.7145 18.0429L34.8111 18.0015L34.7835 17.9049L34.7559 17.8497L34.7007 17.8773L34.5627 17.9601L34.4523 17.8773L34.3971 17.9739L34.5351 18.0705L34.5627 18.0843L34.5903 18.0705L34.7007 18.0015Z" fill="#A0D3FF" fill-opacity="0.8"/>
<path d="M35.3748 13.5717H35.0988C35.0988 13.5717 35.1954 13.6131 34.9332 13.3647C34.6848 13.1301 34.5192 13.4199 34.5192 13.4199L34.2294 13.4613V13.7511L34.0914 13.8063L34.1052 13.9857L34.2984 13.9719C34.2984 13.9719 34.2984 14.1927 34.3536 14.0961C34.4088 13.9995 34.8504 14.1099 34.8228 14.3307C34.809 14.4273 35.2782 14.6619 35.223 14.9517C35.4576 14.9931 35.4024 15.2277 35.4024 15.2277L35.706 15.2691L35.8026 15.0897L35.8854 15.1035V14.9931L35.6922 14.9379L35.6508 14.3583L35.5266 14.2617L35.568 14.1099L35.43 14.0547L35.499 13.8201L35.3748 13.5717Z" fill="#A0D3FF" fill-opacity="0.8"/>
<path d="M36.1625 15.4346L36.0245 15.4208L35.7071 15.476L35.5277 15.821C35.5277 15.821 35.6105 15.8762 35.6933 16.0004C35.7623 16.1246 35.8037 16.8698 35.5829 17.0078C35.3621 17.132 35.5967 17.063 35.5967 17.063L35.5553 17.4632C35.6105 17.6426 35.6933 17.5598 35.7485 17.4632C35.8037 17.3666 35.8589 17.3528 35.9279 17.2562C35.9969 17.1596 36.1073 17.0078 36.1211 16.8698C36.1349 16.7456 36.2315 16.5386 36.1763 16.4834C36.1211 16.4282 36.2315 16.1798 36.2315 16.1798C36.2315 16.1798 36.3005 16.028 36.2315 15.89C36.1625 15.7382 36.2453 15.5864 36.3005 15.5036L36.1625 15.4346Z" fill="#A0D3FF" fill-opacity="0.8"/>
<path d="M36.4899 16.1949L36.5088 16.0447L36.3995 16.031L36.3806 16.1812L36.4899 16.1949Z" fill="#A0D3FF" fill-opacity="0.8"/>
<path d="M36.3688 16.6758L36.2725 16.6345L36.3275 16.5244L36.4238 16.5657L36.3688 16.6758Z" fill="#A0D3FF" fill-opacity="0.8"/>
<path d="M36.22 15.2273L36.151 15.0617C36.151 15.0617 36.151 14.9099 36.1924 14.8409C36.2338 14.7719 36.1234 14.6891 36.0682 14.6753C36.013 14.6615 36.0268 14.5097 36.013 14.4407C35.9992 14.3717 35.875 14.3165 35.875 14.3165C35.875 14.3165 35.8336 14.0405 35.8336 13.9853C35.8336 13.9301 35.668 13.8611 35.7232 13.8059C35.7784 13.7507 35.8198 13.6817 35.8612 13.6403C35.9164 13.5989 35.806 13.3505 35.9026 13.4057C35.9992 13.4609 35.9992 13.5575 36.0268 13.6265C36.0682 13.6955 36.013 13.9577 36.0958 14.0129C36.1786 14.0681 36.082 14.2475 36.22 14.2475C36.358 14.2475 36.2752 14.5925 36.2752 14.5925C36.2752 14.5925 36.2338 14.8409 36.3304 14.8685C36.427 14.8823 36.3718 15.3239 36.3718 15.3239L36.22 15.2273Z" fill="#A0D3FF" fill-opacity="0.8"/>
<path d="M35.0453 12.2746C35.1005 12.3436 35.2109 12.3988 35.2109 12.4816C35.2109 12.5506 35.1695 12.6058 35.2799 12.6334C35.3903 12.6472 35.4593 12.6196 35.5007 12.7024C35.5421 12.799 35.5421 12.937 35.5145 13.006C35.5007 13.075 35.5283 13.1854 35.6249 13.1854C35.7214 13.1854 35.7353 13.1992 35.7353 13.2544C35.7353 13.3096 35.8456 13.0474 35.8456 13.0474C35.7491 12.9784 35.68 12.8128 35.68 12.8128C35.68 12.8128 35.5973 12.5644 35.5973 12.523C35.5973 12.4816 35.4731 12.454 35.4179 12.4264C35.3627 12.4126 35.2799 12.247 35.2799 12.247L35.0453 12.2746Z" fill="#A0D3FF" fill-opacity="0.8"/>
<path d="M35.2273 12.1091C35.1721 12.0401 35.1169 11.9849 35.0479 11.9435C34.9789 11.9021 34.9237 11.8745 34.8547 11.8745C34.7857 11.8745 34.7167 11.8055 34.7443 11.7089C34.7857 11.6123 34.6891 11.5847 34.6891 11.5019C34.6891 11.4329 34.7443 11.4329 34.8271 11.4881C34.9237 11.5433 34.8961 11.5571 34.9651 11.6537C35.0341 11.7503 35.0755 11.8331 35.1445 11.8193C35.2135 11.8055 35.2687 11.9849 35.3377 11.9297C35.4067 11.8745 35.3929 12.0539 35.3929 12.0539L35.2273 12.1091Z" fill="#A0D3FF" fill-opacity="0.8"/>
<path d="M33.1267 14.1785C33.2233 14.2751 32.5885 14.2475 32.5885 14.1785C32.5885 14.1095 32.6437 13.8473 32.8093 13.9025C32.9749 13.9577 32.9887 13.5713 32.9887 13.5713C32.9887 13.5713 32.8507 13.5851 32.9749 13.5161C33.0991 13.4471 32.9749 13.3367 32.9197 13.2815C32.8645 13.2263 32.8093 13.1297 32.8093 13.1297H33.0577C33.1681 13.0607 33.1957 12.7157 33.1957 12.7157C33.4165 12.7847 33.5131 12.6467 33.5131 12.6467C33.5131 12.6467 33.5545 12.7571 33.6235 12.8537C33.6925 12.9503 33.4441 12.9779 33.5269 13.0331C33.6235 13.0883 33.6511 13.2539 33.6235 13.3091C33.5821 13.3643 33.3889 13.3229 33.3889 13.2539C33.3889 13.1849 33.3199 13.3505 33.3889 13.4333C33.4579 13.5299 33.3061 13.6541 33.2647 13.6541C33.2233 13.6541 33.0025 13.6955 33.1957 13.8059C33.3889 13.9163 33.6097 13.8611 33.6097 13.8611C33.6097 13.8611 33.7753 13.8473 33.8305 13.9301C33.8857 14.0267 33.8167 14.0405 33.7201 14.0405C33.6373 14.0405 33.1957 13.9991 33.1957 13.9991C33.1957 13.9991 33.0715 14.1233 33.1267 14.1785Z" fill="#A0D3FF" fill-opacity="0.8"/>
<path d="M31.9824 14.3443C32.079 14.3305 32.286 14.3029 32.3274 14.3581C32.3688 14.4133 32.2032 14.4823 32.2032 14.4823L31.9824 14.5237C31.9134 14.4271 31.8858 14.3581 31.9824 14.3443Z" fill="#A0D3FF" fill-opacity="0.8"/>
<path d="M34.3029 12.8124C34.4409 12.7434 34.7583 12.7434 34.7307 12.633C34.7169 12.5226 34.9101 12.4812 34.9101 12.4812L34.9653 12.702L35.1308 12.8124L35.1446 13.0194C35.1446 13.0194 35.1998 12.978 35.0066 13.0332C34.8135 13.0884 34.9377 13.185 34.9377 13.185L34.5099 13.1988L34.4547 13.0194L34.3029 12.8124Z" fill="#A0D3FF" fill-opacity="0.8"/>
<path d="M33.5947 11.8189C33.7051 11.8189 33.5533 12.2329 33.8431 12.2053C34.1329 12.1639 33.8569 12.3295 34.0777 12.3571C34.2985 12.3709 34.2433 12.1915 34.3123 12.0673C34.3813 11.9431 34.3537 11.8603 34.2295 11.8327C34.1053 11.7913 34.1053 11.7913 34.0639 11.6533C34.0225 11.5015 33.8845 11.4739 33.8845 11.4739L33.8293 11.2531L33.5947 11.4049L33.3601 11.7085C33.3601 11.9293 33.4843 11.8189 33.5947 11.8189Z" fill="#A0D3FF" fill-opacity="0.8"/>
<path d="M34.0662 13.3641L34.1212 13.254L34.2175 13.309L34.1625 13.4053L34.0662 13.3641Z" fill="#A0D3FF" fill-opacity="0.8"/>
<path d="M33.9964 13.185H33.8863V13.3088H33.9964V13.185Z" fill="#A0D3FF" fill-opacity="0.8"/>
<path d="M33.8696 10.772L33.8877 10.9361L33.9971 10.924L33.979 10.7599L33.8696 10.772Z" fill="#A0D3FF" fill-opacity="0.8"/>
<path d="M33.7761 12.4537H33.666V12.55H33.7761V12.4537Z" fill="#A0D3FF" fill-opacity="0.8"/>
<path d="M33.5683 12.4433L33.5576 12.3334L33.3791 12.3508L33.3897 12.4607L33.5683 12.4433Z" fill="#A0D3FF" fill-opacity="0.8"/>
<path d="M31.8969 14.206L31.8005 14.1647L31.8556 14.0409L31.9519 14.0822L31.8969 14.206Z" fill="#A0D3FF" fill-opacity="0.8"/>
<path d="M31.5213 13.8677L31.5106 13.7579L31.332 13.7753L31.3427 13.8851L31.5213 13.8677Z" fill="#A0D3FF" fill-opacity="0.8"/>
<path d="M28.225 13.8535L27.8252 13.8718L27.8302 13.9821L28.23 13.9638L28.225 13.8535Z" fill="#A0D3FF" fill-opacity="0.8"/>
<path d="M27.5642 13.9993L27.5228 13.8337L27.6332 13.8199L27.6746 13.9855L27.5642 13.9993Z" fill="#A0D3FF" fill-opacity="0.8"/>
<path d="M27.4837 14.1234L27.4562 14.0133L27.5112 13.9996L27.5387 14.0959L27.4837 14.1234Z" fill="#A0D3FF" fill-opacity="0.8"/>
<path d="M28.3937 13.8059L28.3799 13.9301L28.5731 13.9439C28.5731 13.9439 28.6559 14.0129 28.6559 14.0681C28.6559 14.1233 28.7801 14.1785 28.8491 14.1785C28.9181 14.1785 29.1251 14.0267 29.1251 14.0267C29.1251 14.0267 29.2217 13.7783 29.1389 13.7921C29.0699 13.8059 28.9181 13.9163 28.9043 13.8059C28.8905 13.6955 28.6697 13.7507 28.6697 13.7507L28.3937 13.8059Z" fill="#A0D3FF" fill-opacity="0.8"/>
<path d="M29.2934 13.6134C29.2934 13.6686 29.252 13.7376 29.3624 13.7652C29.4728 13.779 29.666 13.6962 29.6798 13.8066C29.6936 13.917 29.6936 13.986 29.8454 14.0412C29.9834 14.0964 30.08 14.1102 30.1904 14.1102C30.3008 14.1102 30.5354 14.0688 30.5354 14.0688C30.5354 14.0688 30.7838 14.1102 30.839 14.1654C31.0322 14.3724 31.1564 14.4138 31.2116 14.331C31.2668 14.2344 31.1978 14.0412 31.1702 13.9722C31.1564 13.9032 30.8942 13.5582 30.8114 13.6272C30.7286 13.6962 30.701 13.6272 30.5354 13.6824C30.3698 13.7376 30.0386 13.6962 30.011 13.6272C29.9972 13.5582 29.735 13.5168 29.735 13.4478C29.735 13.3788 29.5556 13.2822 29.5694 13.3926C29.5832 13.503 29.4452 13.5582 29.4038 13.5168C29.39 13.4616 29.2934 13.6134 29.2934 13.6134Z" fill="#A0D3FF" fill-opacity="0.8"/>
<path d="M33.4163 11.2806L33.5405 10.8804C33.3611 10.839 33.4025 10.6458 33.4025 10.6458C33.3887 10.4802 33.1265 10.3008 33.0437 10.356C32.9609 10.4112 32.9885 9.9696 32.9885 9.9696C32.9885 9.9696 33.1541 9.8592 33.2231 9.9144C33.2921 9.9696 32.6159 9.00359 32.4641 9.1002C32.3261 9.1968 31.9949 9.00359 32.0087 8.83799C32.0225 8.67239 31.3601 8.12039 31.3601 8.12039C31.3601 8.12039 31.1393 7.96859 31.1117 8.07899C31.0703 8.18939 31.0013 8.25839 31.1117 8.31359C31.2221 8.36879 31.1945 8.21699 31.3325 8.35499C31.4567 8.47919 31.6913 8.64479 31.6085 8.75519C31.5119 8.86559 31.4153 8.90699 31.4153 8.90699L31.5395 9.05879H31.7327L31.7741 9.36239C31.7741 9.36239 31.9949 9.47279 32.0501 9.59699C32.1053 9.72119 32.1053 9.804 32.0501 9.873C31.9949 9.942 31.8845 10.08 31.9121 10.2042C31.9259 10.3284 32.0777 10.3836 32.0777 10.3836L32.2157 10.3974L32.3261 10.4526V10.6872C32.4641 10.6458 32.6987 10.8528 32.6849 10.977C32.6711 11.1012 32.7263 11.0322 32.9057 11.1564C33.0851 11.2806 33.0299 11.3082 33.1541 11.391C33.2507 11.4876 33.3611 11.4324 33.4163 11.2806Z" fill="#A0D3FF" fill-opacity="0.8"/>
<path d="M30.4507 8.79696C30.4369 8.72796 30.3955 8.46576 30.5059 8.49336C30.6163 8.50716 30.5473 8.49336 30.6715 8.54856C30.7957 8.60376 30.8095 8.45197 30.8095 8.45197H31.0027L31.2511 8.65896L31.2097 8.82456L31.0303 8.83836C30.9475 8.68656 30.7543 8.74176 30.7957 8.87976C30.8371 9.00396 30.7129 9.23856 30.6301 9.26616C30.5611 9.27996 30.3265 9.27996 30.3403 9.16956C30.3817 9.04536 30.4507 8.79696 30.4507 8.79696Z" fill="#A0D3FF" fill-opacity="0.8"/>
<path d="M30.3125 8.29976V8.16176C30.3125 8.16176 30.2987 8.00996 30.2021 8.00996C30.1193 8.00996 29.9537 7.89956 29.9813 7.83056C30.0227 7.76156 29.6777 7.67876 29.6777 7.67876C29.6777 7.67876 29.3741 7.38896 29.4845 7.43036C29.5949 7.47176 29.5397 7.30616 29.5397 7.30616C29.5397 7.30616 29.3189 7.34756 29.2637 7.31996C29.2085 7.30616 29.2223 7.14056 29.2223 7.14056C29.2223 7.14056 29.0015 7.08536 29.0015 7.14056C29.0015 7.19576 29.0705 7.19576 29.1119 7.30616C29.1533 7.41656 29.1257 7.59596 29.2913 7.63736C29.4569 7.67876 29.4845 7.70636 29.5121 7.78916C29.5259 7.85816 29.7329 7.88576 29.7329 7.88576L29.8709 7.95476L30.3125 8.29976Z" fill="#A0D3FF" fill-opacity="0.8"/>
<path d="M28.3666 6.45084L28.3115 6.29903L28.1735 6.25763V6.42324L28.3666 6.45084Z" fill="#A0D3FF" fill-opacity="0.8"/>
<path d="M28.3125 5.67797C28.1193 5.53997 28.5609 5.78837 28.5609 5.78837C28.6989 5.78837 28.7955 5.89877 28.7955 5.95397C28.7955 6.00917 28.9887 5.99537 28.9887 5.99537L29.0025 5.87117L28.8645 5.69177L28.7403 5.59517C28.7403 5.59517 28.5471 5.58137 28.5471 5.52617C28.5471 5.45717 28.3953 5.73317 28.3125 5.67797Z" fill="#A0D3FF" fill-opacity="0.8"/>
<path d="M31.6245 5.7884C31.5693 5.954 31.5555 6.1748 31.4589 6.1748C31.3761 6.1748 31.4037 6.4094 31.4037 6.4094C31.4037 6.4094 31.6383 6.4094 31.7073 6.4232C31.7763 6.437 31.7763 6.6302 31.7763 6.6302C32.0523 6.6164 32.1489 6.9752 32.1213 7.0718C32.0799 7.1684 32.2317 7.1684 32.2317 7.1684C32.2317 7.1684 32.2317 7.4582 32.1903 7.5272C32.1489 7.5962 32.4249 7.6514 32.4939 7.7618C32.5629 7.8722 32.4525 8.231 32.3973 8.2586C32.3421 8.2724 32.5353 8.3276 32.5215 8.4242C32.5077 8.5208 32.5767 8.4242 32.5905 8.576C32.6043 8.7278 32.6457 9.0314 32.6457 9.0314L32.8941 9.0452C32.9355 8.8106 33.3909 8.7968 33.4737 8.8244C33.7773 8.9348 34.0119 9.404 34.0119 9.5144C34.0119 9.6248 33.8187 9.6386 33.8187 9.6386L33.8601 10.163C34.1637 10.2596 34.4121 10.6874 34.3845 10.7702C34.3431 10.8392 34.6053 10.8254 34.6053 10.8254C34.6467 10.4942 34.9503 10.6046 34.9641 10.715C34.9779 10.8254 35.0331 11.06 35.0331 11.06L35.1297 11.2256L35.2539 11.3498L35.4471 11.336L35.5023 11.4464L35.7369 11.4878C35.7369 11.4878 35.9301 11.7086 35.9577 11.7638C35.9715 11.819 36.2475 11.8052 36.3165 11.819C36.3855 11.8328 36.4959 11.888 36.5097 11.9846C36.5235 12.0812 36.6339 12.2192 36.6339 12.2192C36.6339 12.2192 36.8547 12.2744 36.8685 12.3434C36.8823 12.4124 36.9789 12.578 36.9789 12.578L37.1583 12.7298L37.1721 12.8954L37.3653 12.9092L37.4205 13.13L37.7379 13.1162L37.9173 12.992C38.1519 12.8678 38.3175 12.7022 38.3313 12.6332C38.3451 12.5642 38.3865 12.2882 38.5659 12.3434C38.7453 12.3986 38.6211 11.9432 38.6211 11.9432C38.6211 11.9432 38.3727 11.7638 38.3865 11.6672C38.4003 11.5706 38.1381 11.3912 38.1519 11.3222C38.1657 11.2532 37.9173 11.1014 37.9311 11.0324C37.9449 10.9634 37.8069 10.7564 37.8069 10.7564L37.5309 10.508L37.4895 10.3424L37.2687 10.3286L36.8409 9.8042L36.8547 9.6524L36.7305 9.6386V9.404L36.6063 9.335L36.4131 9.3212L36.0129 8.8796L35.9715 8.6726H35.7783L35.8197 8.2862C35.9439 8.1206 35.8749 7.817 35.8749 7.817C35.8749 7.817 35.6265 7.9412 35.5023 7.886C35.3781 7.8308 35.5575 7.7066 35.5575 7.7066V7.5548L35.4471 7.4444C35.4471 7.4444 35.1435 7.4858 35.1297 7.4306C35.1159 7.3754 35.0607 7.1408 35.0607 7.1408L35.0469 6.8372L34.9227 6.782L34.9089 6.6716L34.7157 6.6854V6.4646L34.6053 6.4232L34.4949 6.368L34.4811 6.1472L34.0809 6.1334L33.9567 5.954L33.8187 5.7332L33.3633 5.6918L33.2529 5.5814L33.0735 5.54L32.9493 5.4848L32.8941 5.5814L32.5491 5.5952L32.5353 5.7056C32.3559 5.8022 31.6383 5.7332 31.6245 5.7884Z" fill="#A0D3FF" fill-opacity="0.8"/>
<path d="M33.502 5.31918C33.4744 5.18118 33.8609 5.04318 33.9575 5.15358C34.0541 5.26398 34.3025 5.27778 34.3301 5.82978C34.3439 6.02298 34.0127 5.62278 34.0127 5.62278L33.7367 5.52618C33.5987 5.49858 33.5296 5.40198 33.502 5.31918Z" fill="#A0D3FF" fill-opacity="0.8"/>
<path d="M28.2399 5.54013L28.1433 5.49873L28.2123 5.33313L28.3089 5.37453L28.2399 5.54013Z" fill="#A0D3FF" fill-opacity="0.8"/>
<path d="M27.3014 3.74572L27.0668 3.51113V3.30413L26.9978 3.23513L26.9288 2.98672L26.6942 2.91772L26.4596 3.01432L26.2112 3.17992L25.9352 3.22132L25.7972 3.38693L26.3768 3.44213L26.4872 3.62152L26.9012 3.66293L27.1634 3.93893C27.398 3.98033 27.4532 3.86993 27.3014 3.74572Z" fill="#A0D3FF" fill-opacity="0.8"/>
<path d="M27.2769 2.84913C27.2355 2.68353 27.0009 3.05613 27.2355 3.12513C27.4701 3.19413 27.7047 3.12513 27.7047 3.12513L27.7599 3.01473L28.6569 3.02853C28.7259 2.95953 28.7673 2.84913 28.7673 2.84913C28.7673 2.84913 28.9881 2.78013 29.0709 2.80773C29.1675 2.84913 29.0847 2.55933 29.0019 2.58693C28.9191 2.62833 28.7259 2.60073 28.7259 2.60073H28.4085C28.3947 2.47653 28.1049 2.53173 28.0911 2.60073C28.0773 2.66973 27.9669 2.69733 27.9669 2.69733L27.5529 2.73873C27.5115 2.84913 27.2907 2.93193 27.2769 2.84913Z" fill="#A0D3FF" fill-opacity="0.8"/>
<path d="M25.4943 5.92639C25.7703 6.00919 25.8669 5.95398 25.8945 5.87118C25.9083 5.80218 25.9359 5.77459 26.0325 5.76079C26.1429 5.74699 26.0187 5.52618 25.9083 5.53998C25.7979 5.55378 25.6875 5.49859 25.6737 5.41578C25.6599 5.31918 25.4805 5.08458 25.4529 5.26398C25.4391 5.44338 25.3287 5.44338 25.3425 5.56758C25.3701 5.71938 25.4253 5.91259 25.4943 5.92639Z" fill="#A0D3FF" fill-opacity="0.8"/>
<path d="M23.4251 6.13345C23.4113 6.06445 23.7839 6.06445 23.8391 6.11965C23.8943 6.17485 23.8529 6.27146 24.0185 6.27146C24.1841 6.27146 24.1151 6.38186 24.0875 6.43706C24.0737 6.49226 23.8943 6.47846 23.8667 6.42326C23.8529 6.36806 23.5769 6.35426 23.5769 6.35426C23.5769 6.35426 23.4527 6.23006 23.4251 6.13345Z" fill="#A0D3FF" fill-opacity="0.8"/>
<path d="M29.3573 2.44901L29.3849 2.49041L29.4263 2.46281L29.6057 2.31101L29.5367 2.22821L29.3987 2.33861L29.3021 2.25581L29.2331 2.32481L29.3573 2.44901Z" fill="#A0D3FF" fill-opacity="0.8"/>
<path d="M28.5455 2.02116L28.5731 2.00736L28.7801 1.88316L28.7249 1.78656L28.5455 1.89696L28.4351 1.82796L28.3799 1.91076L28.5179 2.00736L28.5455 2.02116Z" fill="#A0D3FF" fill-opacity="0.8"/>
<path d="M27.9088 5.74749L28.0191 5.92689L28.1019 5.87169L27.9777 5.66469L27.9639 5.65089H27.9364L27.757 5.62329V5.73369L27.9088 5.74749Z" fill="#A0D3FF" fill-opacity="0.8"/>
<path d="M22.0339 10.7291L22.0477 10.9361H22.3099C22.4203 10.9361 22.2271 10.8119 22.2271 10.8119C22.2271 10.8119 22.0201 10.8257 22.0339 10.7291Z" fill="#A0D3FF" fill-opacity="0.8"/>
<path d="M22.3766 10.7286L22.4456 10.6458L22.5422 10.7424L22.4732 10.8252L22.3766 10.7286Z" fill="#A0D3FF" fill-opacity="0.8"/>
<path d="M19.1066 7.32034L19.1756 7.25134L19.286 7.36174L19.2032 7.43074L19.1066 7.32034Z" fill="#A0D3FF" fill-opacity="0.8"/>
<path d="M24.1697 30.8906L24.2387 30.9596L24.3353 30.8768L24.3767 30.8216L24.3215 30.7802L24.1421 30.6974L24.0869 30.794L24.1973 30.8492L24.1697 30.8906Z" fill="#A0D3FF" fill-opacity="0.8"/>
<path d="M22.7464 29.5659L22.8706 29.6625L22.9396 29.5659L22.8706 29.5107L22.9258 29.4693L22.8568 29.3865L22.7464 29.4831L22.6912 29.5245L22.7464 29.5659Z" fill="#A0D3FF" fill-opacity="0.8"/>
<path d="M36.2883 26.0191C36.2607 25.9225 36.1641 25.8949 36.1503 25.8811L36.1227 25.9915C36.1365 25.9915 36.1503 26.0053 36.1503 26.0053L36.1779 26.1019C36.1641 26.1157 36.1641 26.1295 36.1503 26.1295L36.2331 26.1985C36.2745 26.1295 36.3021 26.0743 36.2883 26.0191Z" fill="#A0D3FF" fill-opacity="0.8"/>
<path d="M36.4519 25.674L36.2725 25.6602L36.2863 25.4946L36.4657 25.5222L36.4519 25.674Z" fill="#A0D3FF" fill-opacity="0.8"/>
<path d="M40.608 24.2529C40.6908 24.1977 40.7874 24.1149 40.7736 24.3219C40.7598 24.5289 40.677 24.4599 40.608 24.5289C40.539 24.5841 40.4976 24.3219 40.608 24.2529Z" fill="#A0D3FF" fill-opacity="0.8"/>
<path d="M41.5177 23.4801V23.4525C41.5177 23.4249 41.5177 23.3835 41.4901 23.3421L41.3935 23.3973C41.4073 23.4249 41.4073 23.4525 41.4073 23.4663C41.4073 23.4939 41.4073 23.5353 41.4487 23.5629C41.4625 23.5767 41.4901 23.5767 41.5177 23.5767L41.5039 23.4663L41.5177 23.4801Z" fill="#A0D3FF" fill-opacity="0.8"/>
<path d="M41.2819 23.5627C41.3095 23.6731 41.3509 23.7835 41.3509 23.7835L41.4475 23.7421C41.4475 23.7421 41.4061 23.6317 41.3785 23.5351L41.2819 23.5627Z" fill="#A0D3FF" fill-opacity="0.8"/>
<path d="M40.8941 23.9909L40.7837 23.9771C40.7699 24.0599 40.7975 24.1703 40.8803 24.1841L40.9079 24.0737C40.8941 24.0737 40.8803 24.0323 40.8941 23.9909Z" fill="#A0D3FF" fill-opacity="0.8"/>
<path d="M40.4121 21.8242C40.4121 21.7828 40.3845 21.7552 40.3569 21.7414C40.2741 21.7 40.1361 21.769 40.0809 21.8104L40.1361 21.907C40.2051 21.8656 40.2879 21.838 40.3155 21.8518L40.4121 21.8242Z" fill="#A0D3FF" fill-opacity="0.8"/>
<path d="M35.4426 16.0006C35.3736 16.0696 35.208 16.111 35.208 16.111L35.1528 16.3042L35.07 16.3732C35.07 16.3732 35.0838 16.4284 35.07 16.5526C35.0562 16.6768 34.8906 16.7596 34.8906 16.7596L34.8216 16.8562C34.8216 16.8562 34.3938 16.8838 34.3386 16.8562C34.173 16.7872 34.2834 16.5664 34.3938 16.5802C34.5042 16.594 34.38 16.2766 34.38 16.2766L34.518 16.2628C34.518 16.2628 34.5318 15.9316 34.587 15.9316C34.6422 15.9316 34.5732 15.8212 34.4904 15.766C34.4214 15.7108 34.3248 15.5314 34.2558 15.5452C34.1868 15.559 33.897 15.5452 33.897 15.5452L33.8418 15.6556L33.6486 15.697C33.6486 15.697 33.6624 15.835 33.6348 15.8764C33.5244 16.0006 33.1104 16.2766 33.2898 15.8212L33.345 15.7108V15.5452L33.0276 15.5314C33.0276 15.5314 32.862 15.4762 32.862 15.4072C32.862 15.3382 32.8482 15.2416 32.8482 15.2416L32.4756 14.8276L32.0202 14.7724L31.9788 14.6758L31.7166 14.6344C31.3992 14.4688 31.1094 14.6206 31.1646 14.8828C31.2198 15.1588 31.3026 15.2692 31.1232 15.2692C30.9438 15.2692 30.9024 15.1174 30.9024 15.1174C30.9024 15.1174 30.7644 15.0622 30.7644 15.1312C30.7644 15.2002 30.7092 15.352 30.7644 15.421C30.8196 15.49 30.6954 15.6004 30.6402 15.5452C30.585 15.49 30.447 15.3244 30.4746 15.2692C30.516 15.214 30.2262 14.869 30.516 14.8138C30.8058 14.7586 30.5022 14.593 30.6126 14.5654L30.7506 14.4964H30.8886L30.9852 14.4274L30.7506 14.386L30.6126 14.3722L30.3366 14.3584C30.0606 14.5378 30.0192 14.7586 30.0192 14.7586C29.8812 15.0346 29.5362 14.6482 29.6604 14.5102C29.7846 14.3584 29.2602 14.4964 29.1774 14.5654C29.0808 14.6344 28.8186 14.6068 28.8186 14.6068C28.7634 14.7724 28.515 14.593 28.584 14.4826C28.653 14.3722 28.653 14.3032 28.653 14.3032L28.5702 14.2894L28.4598 14.4964C28.2114 14.4964 28.1424 14.6482 28.1838 14.731C28.239 14.8276 28.1148 14.7172 28.0734 14.8414C28.032 14.9656 28.0872 14.9656 28.1976 15.0208C28.308 15.076 28.1424 15.076 28.2114 15.1726C28.2804 15.2692 28.5012 15.1726 28.377 15.2968C28.2528 15.421 28.0044 15.3658 28.0044 15.3658C27.9906 15.5314 27.6456 15.49 27.6042 15.4348C27.5628 15.3796 27.3006 15.0484 27.3006 15.0484L26.9556 15.0346C26.9142 14.7862 27.1212 14.9104 27.1902 14.7034C27.2592 14.4964 27.3006 14.179 27.3006 14.179C27.3006 14.179 27.0108 14.1652 26.997 14.248C26.9832 14.3446 26.8038 14.3998 26.8038 14.3998C26.8038 14.3998 26.6658 14.455 26.7072 14.524C26.7624 14.593 26.5968 14.6344 26.5968 14.6344C26.5968 14.6344 26.6244 14.7586 26.583 14.8C26.445 14.9518 26.0862 14.8138 26.031 14.7586L25.8102 14.662L25.5894 14.5102L25.341 14.6206L25.272 14.6896H24.996L24.9822 14.9104L25.4652 14.9656L25.5066 15.421L25.3134 15.352H25.1892L25.134 15.2416L25.0236 15.2278V15.628L25.134 15.7246L25.2306 15.8212L25.41 15.835L25.4514 16.0558L25.9068 16.0696L25.962 16.1662L26.238 16.18L26.7624 16.7044L26.721 16.87L26.6244 16.9252C26.6658 17.0494 26.3898 16.9804 26.3898 16.9804V17.0908L26.514 17.1046L26.6382 17.1736L26.8176 16.87C27.0108 16.7458 27.1074 16.9252 27.1212 17.0356C27.135 17.146 27.0246 17.1322 27.0246 17.1322V17.3944L27.135 17.4358C27.3144 17.6566 27.066 17.7808 27.066 17.7808L27.0108 17.9602C26.9556 18.1258 26.7624 18.0844 26.7624 18.0844L26.6934 18.1948L26.4726 18.25L26.9004 18.3052C26.9418 18.1534 27.0522 18.1258 27.1074 18.1948C27.1626 18.2638 27.1626 18.4018 27.1626 18.4018L27.273 18.4156L27.2592 18.6226L27.3696 18.664V19.2436L27.4938 19.3954C27.7146 19.2988 27.7146 19.4506 27.6042 19.5196C27.4938 19.5886 27.5628 19.9198 27.5628 19.9198L27.4662 20.0164V20.1682L27.3558 20.2372V20.4442C27.1764 20.3476 26.9556 20.389 26.9004 20.4442C26.7348 20.3338 26.4036 20.3752 26.4036 20.458C26.514 20.6098 26.2794 20.6374 26.2794 20.6374L26.1552 20.7892C26.2518 20.9686 26.0724 20.9962 26.0724 20.9962V21.3412L25.8516 21.5482L25.8654 22.0174C25.8654 22.1416 26.1414 22.1692 26.1828 22.0864C26.238 22.0174 26.4588 22.2382 26.4588 22.2382H26.6244L26.6658 21.907L26.5554 21.8518V21.3274L26.7348 21.1204C26.9556 21.0514 26.8728 21.5896 26.8728 21.6448C26.8866 21.8518 26.9832 21.8242 27.066 21.7966C27.2454 21.7276 27.1074 22.0036 26.9556 21.976C26.8176 21.9622 26.9004 22.1554 26.9004 22.1554L26.997 22.1968L26.8314 22.321L26.6934 22.4866L26.514 22.4314L26.2932 22.4176L26.2242 22.2934L26.1 22.2796L26.0862 22.528L26.0034 22.6384L25.7826 22.8592C26.0724 22.8592 25.7412 23.0524 25.6722 23.0524C25.8378 23.1076 25.6584 23.2732 25.2444 23.149V23.2732L25.1064 23.287L25.2306 23.4388L25.3686 23.4526L25.3134 23.7562C25.3134 23.9908 24.72 23.8252 24.6648 23.77L24.651 24.1012L24.5406 24.115L24.5544 24.3358L24.5406 24.6394L24.7338 24.598V24.7222L25.2168 24.736L25.9206 23.9908L26.3346 23.8942C26.376 23.7148 26.5554 23.9356 26.5554 23.9356C26.7348 23.9218 26.7762 24.046 26.7762 24.046L27.0108 24.0874C27.204 24.1426 27.0936 24.1564 27.0936 24.2392C27.1074 24.3496 27.204 24.3082 27.204 24.3082L27.2454 24.0736L27.3558 24.0874L27.2454 23.9632L27.0522 23.8666L26.8314 23.77C26.6934 23.563 26.8728 23.6044 27.0108 23.6182H27.2454C27.2454 23.6182 27.5214 23.977 27.5214 24.0736C27.5214 24.1702 27.6456 24.184 27.6456 24.184L27.8112 24.1702L27.8664 24.2944H28.032L28.0872 24.4048H28.4046L28.4184 24.2392L28.1148 24.184L28.101 24.0046L27.8802 23.9494C27.8112 23.6458 27.9354 23.5492 28.0182 23.701L28.1286 23.7148L28.0872 23.4388L28.2114 23.3974L28.17 23.011L28.0596 22.9696V22.8454L28.515 22.8592C28.4736 22.6246 28.5288 22.5142 28.5288 22.5142H28.653L28.6668 22.6108L29.2188 22.666L29.6052 22.2244C29.5914 22.1968 29.6466 22.1692 29.6052 22.1278C29.55 22.0726 29.481 22.1278 29.3844 22.0726C29.3016 22.0174 29.3844 21.7138 29.3706 21.631C29.3568 21.562 29.6742 21.4516 29.619 21.6172C29.5638 21.7828 29.619 21.8518 29.619 21.8518C29.8536 21.631 30.0468 21.8656 30.033 21.9208C30.0192 21.976 30.1572 22.0312 30.2538 21.976C30.3504 21.9208 30.447 22.1416 30.4194 22.252C30.378 22.3624 30.0606 22.3486 30.0468 22.2382C30.033 22.1278 29.9778 22.1692 29.9364 22.2244C29.895 22.2796 29.7432 22.321 29.6466 22.2658C29.6328 22.252 29.619 22.252 29.619 22.2382L29.2326 22.6798H29.2602C29.481 22.804 29.3706 22.9696 29.3016 23.011C29.2326 23.0524 29.1084 23.0524 29.1084 23.0524L29.067 23.1214L28.5978 23.1628L28.5564 23.3422C28.3218 23.3008 28.239 23.563 28.2804 23.6872C28.3356 23.8114 28.2804 23.9218 28.2804 23.9218L28.4736 24.0184L28.722 23.9494C28.7634 23.77 28.9152 23.7286 29.067 23.6182C29.205 23.5078 29.4396 23.8114 29.3706 23.9632C29.3016 24.115 29.3016 24.1702 29.3016 24.1702L29.3154 24.3358L29.136 24.4048L28.998 24.4738L28.9842 24.5704H28.5012L28.4184 24.667L28.1838 24.6808L28.1148 24.7912L27.9492 24.805C27.9492 24.805 27.6732 24.9292 27.7836 25.081C27.894 25.2328 27.3282 25.2052 27.204 25.012C27.1626 25.1914 26.9694 25.0258 26.9694 25.0258L26.7762 24.9706L26.7624 24.6946C26.721 24.5152 26.3898 24.5152 26.4036 24.6394C26.4174 24.7636 25.755 24.6946 25.755 24.6946L25.5342 24.805L25.341 24.9154L25.3272 25.012L25.0098 25.0534L24.8718 25.1224L24.8166 25.012H24.6786L24.5406 25.219C24.168 25.2328 23.8092 25.4536 23.8368 25.5502C23.8782 25.6468 23.6988 25.7296 23.6988 25.7296L23.5332 25.7848L23.4228 25.9504L23.202 26.0194L23.1606 26.4058L23.0502 26.4748V26.6404L22.926 26.6818V26.7784L22.7466 26.7922L22.857 27.0682L22.995 27.1372C23.2434 27.1786 23.133 27.4822 23.133 27.4822L23.271 27.496L23.34 27.703L23.478 27.9928C23.5332 28.2136 23.6988 28.1584 23.7678 28.1446C23.8368 28.1308 23.9058 28.3654 23.9058 28.3654L24.6234 28.3792C24.6234 28.3792 24.582 28.4482 24.72 28.4896C24.8442 28.531 25.6722 28.5586 25.7136 28.5034C25.6722 28.3378 26.169 28.2964 26.3622 28.4482C26.5554 28.6 26.8314 28.5034 26.8314 28.5034L27.1074 28.8346L27.2868 29.2348L27.5904 29.3314L27.8112 29.3866L27.8802 29.6902L28.0458 29.704L28.101 29.911C28.2942 30.0628 28.0458 30.3664 28.0458 30.3664V30.7666L28.1838 30.8356L28.17 30.9874L28.4046 31.222L28.6806 31.2358L29.3568 31.9672L29.895 32.1328L29.9778 32.4226L30.1158 32.4088L30.2262 32.3122L30.654 32.2984L30.8748 32.0914L31.1094 32.05L33.0966 30.3526L32.9172 30.2422V29.842C33.2346 29.6074 33.2622 29.1796 32.9586 29.152C32.724 29.1244 32.8344 28.876 33.0552 28.8484L33.1794 28.7932V28.6276L33.5934 28.2412V27.8962L32.6964 27.151C32.2962 26.9992 32.6964 26.1298 32.9586 26.1436C33.2346 26.1574 32.9448 24.7912 32.9448 24.7912L32.8068 24.7222L32.8482 24.2806H32.655L32.3376 24.6946L32.2548 24.9844C32.2134 25.3708 31.1094 25.288 31.0542 25.2328C30.999 25.1776 30.6264 25.012 30.6264 25.012C30.6264 25.012 30.3366 24.7774 30.2814 24.8464C30.2262 24.9154 29.9778 24.7498 29.9778 24.805C29.9778 24.8602 29.7432 24.6808 29.7432 24.6808L29.3844 24.5566L29.6604 24.5014L29.6052 24.2806L30.0744 24.5152C30.1296 24.5842 30.3642 24.5704 30.3642 24.5704L30.4332 24.667C30.4332 24.667 30.5712 24.6532 30.6678 24.7636C30.7506 24.874 31.2198 24.7774 31.2198 24.7774L31.344 24.8878L31.5372 24.9568L32.0892 24.9706L32.103 24.6256L32.2134 24.5152L32.1996 24.2944L32.3238 24.184V24.0322L32.4342 23.9908L32.448 23.5906L32.5308 23.5768V22.7074L32.2548 22.4452C32.241 22.5418 31.9512 22.5418 31.9512 22.5418C31.9512 22.5418 31.8822 22.666 31.827 22.666C31.7718 22.666 31.896 22.8316 31.8684 22.942C31.827 23.0524 31.689 23.0524 31.689 23.0524L31.413 23.1214L31.344 23.218H31.0542L31.0128 22.9834L31.3302 22.8868L31.5096 22.7902L31.6062 22.6108C31.62 22.4314 31.8408 22.4452 31.8408 22.4452C31.8408 22.4452 32.2548 22.1002 32.2686 21.9346C32.2824 21.769 32.4342 21.3136 32.6826 21.3136H33.1518C33.3312 21.2446 33.276 21.01 33.276 21.01L33.5106 20.9686L33.552 21.0928C33.552 21.0928 33.8694 21.1342 33.9108 21.079C33.9522 21.0238 34.0212 20.8996 34.104 20.9548C34.2006 21.01 34.4766 20.8306 34.4766 20.8306C34.4904 20.7064 34.9458 20.7616 34.9458 20.7616L35.001 20.596C35.001 20.596 34.6974 20.182 34.6422 20.182C34.587 20.182 34.2972 19.9198 34.2696 20.0164C33.9798 19.9474 33.9936 19.5472 33.9936 19.5472L33.8832 19.2988C33.8832 19.147 33.621 18.8434 33.5658 18.8848C33.2898 18.6778 33.4968 18.4432 33.5658 18.4294C33.6348 18.4156 33.8142 18.1534 33.8142 18.1534L33.897 17.905L34.2006 17.8084L34.242 17.5738L34.0764 17.56C34.0764 17.56 34.2558 17.2288 34.3524 17.2288C34.449 17.2288 35.0286 17.2288 35.0838 17.1874C35.139 17.146 35.2494 16.8562 35.2494 16.801C35.2494 16.7458 35.3874 16.732 35.4426 16.7044C35.4978 16.6906 35.622 16.5388 35.6634 16.4698C35.6358 16.3732 35.5116 15.9178 35.4426 16.0006Z" fill="#A0D3FF" fill-opacity="0.8"/>
<path d="M25.4953 22.5695C25.5229 22.5419 25.5505 22.6523 25.6057 22.6385C25.6609 22.6247 25.6885 22.7351 25.6333 22.7351C25.5781 22.7351 25.5781 22.8041 25.5781 22.8317C25.5781 22.8593 25.5781 22.9283 25.5367 22.9697C25.4953 23.0111 25.4539 22.9835 25.3987 22.9559C25.3435 22.9283 25.3159 22.9283 25.2469 22.9283C25.1779 22.9283 25.2331 23.0387 25.2331 23.0387C25.2331 23.0387 24.9571 23.0249 24.9985 22.9835C25.0537 22.9421 25.1089 22.9283 25.0675 22.9007C25.0261 22.8731 25.0675 22.8455 25.0675 22.7903C25.0675 22.7351 25.2055 22.7627 25.1641 22.7213C25.1227 22.6799 25.1641 22.5281 25.2331 22.6109L25.2745 22.5143C25.2331 22.4729 25.2607 22.4591 25.1779 22.4315C25.0951 22.4039 25.1641 22.2383 25.1641 22.2383L25.1779 22.1279C25.2055 21.9899 25.4677 21.9761 25.4815 22.1003C25.4953 22.2245 25.4815 22.3073 25.4815 22.3073L25.5643 22.3349C25.5643 22.3349 25.5505 22.4177 25.4815 22.4177C25.4125 22.4177 25.4815 22.4591 25.4401 22.5005L25.4953 22.5695Z" fill="#A0D3FF" fill-opacity="0.8"/>
<path d="M24.614 22.7074C24.6554 22.6246 24.752 22.2658 24.8624 22.3762C24.9728 22.4866 25.0418 22.3762 25.0418 22.3762C25.0418 22.3762 25.097 22.4314 25.0694 22.5418C25.0418 22.6522 25.0142 22.7626 24.9452 22.7764C24.8762 22.7902 24.821 22.8316 24.7382 22.8454C24.6554 22.8592 24.614 22.7074 24.614 22.7074Z" fill="#A0D3FF" fill-opacity="0.8"/>
</svg>
