<svg viewBox="0 0 80 36" fill="none" xmlns="http://www.w3.org/2000/svg">
<path fill-rule="evenodd" clip-rule="evenodd" d="M9.03653 3.16156C10.9341 3.16156 11.5305 4.53488 12.0289 5.9082C12.2407 6.49009 17.1694 20.1267 17.3163 20.5354C17.3577 20.6499 17.3306 20.8368 17.1562 20.9046C16.9816 20.9704 14.4205 21.9783 14.2792 22.0315C14.1376 22.0846 13.9782 22.0061 13.926 21.8637C13.8734 21.7216 12.8118 18.749 12.692 18.4167H5.3896C5.26917 18.749 4.19656 21.7278 4.14725 21.8637C4.09859 21.9997 3.94426 22.0909 3.79477 22.0315C3.64462 21.9721 1.07185 20.964 0.919938 20.9046C0.772872 20.8472 0.705063 20.6775 0.757901 20.5354C0.938431 20.0244 5.79227 6.60754 6.04083 5.9082C6.52144 4.5569 7.13942 3.16156 9.03653 3.16156ZM0.367341 27.5592C0.21433 27.5592 0.0908203 27.6887 0.0908203 27.8477V31.033C0.0908203 31.1923 0.21455 31.3195 0.367341 31.3195H17.7062C17.8581 31.3195 17.9805 31.1923 17.9805 31.033V27.8477C17.9805 27.6884 17.8581 27.5592 17.7062 27.5592H0.367341ZM9.02222 7.61406L6.55248 15.1048H11.5307L9.0526 7.61406H9.02244H9.02222ZM46.0701 19.8954C45.707 20.0211 45.4671 20.0516 45.1806 20.0516C44.5904 20.0516 44.2619 19.8153 44.2619 19.2032C44.2619 18.5661 44.6796 18.3515 45.497 18.3515C45.6941 18.3515 45.8926 18.3811 45.9842 18.4133V18.8691C45.9842 19.3622 46.0098 19.6854 46.0701 19.8956V19.8954ZM48.1682 20.6286C47.7329 19.9577 47.6193 19.5635 47.6193 18.7194V17.0093C47.6193 16.0858 47.5135 15.7541 47.2711 15.4169C46.9362 14.9409 46.3777 14.7347 45.3475 14.7347C44.6206 14.7347 43.9132 14.8148 43.2296 14.99L43.474 16.2081C43.9379 16.1429 44.4226 16.0858 44.7648 16.0858C45.8583 16.0858 45.9844 16.2464 45.9844 17.0743V17.3839C45.7414 17.3183 45.4673 17.2709 45.1503 17.2709C43.5052 17.2709 42.6367 18.0837 42.6367 19.4287C42.6367 20.6922 43.5636 21.3797 44.6952 21.3797C45.119 21.3797 45.5595 21.3012 45.9085 21.1568C46.119 21.0634 46.2105 21.0105 46.4849 20.8301C46.6473 21.0721 46.9785 21.3203 47.1128 21.3648L48.168 20.6286H48.1682ZM64.4404 19.8954C64.0762 20.0211 63.838 20.0516 63.5505 20.0516C62.9593 20.0516 62.6254 19.8153 62.6254 19.2032C62.6254 18.5661 63.0481 18.3515 63.8673 18.3515C64.065 18.3515 64.2622 18.3811 64.3523 18.4133V18.8691C64.3521 19.3622 64.3789 19.6854 64.4406 19.8956L64.4404 19.8954ZM66.5385 20.6286C66.101 19.9577 65.9885 19.5635 65.9885 18.7194V17.0093C65.9885 16.0858 65.8824 15.7541 65.6393 15.4169C65.3051 14.9409 64.7466 14.7347 63.7158 14.7347C62.9877 14.7347 62.2744 14.8148 61.5924 14.99L61.8359 16.2081C62.2993 16.1429 62.7861 16.0858 63.1355 16.0858C64.2253 16.0858 64.3518 16.2464 64.3518 17.0743V17.3839C64.1103 17.3183 63.838 17.2709 63.5186 17.2709C61.8682 17.2709 60.9988 18.0837 60.9988 19.4287C60.9988 20.6922 61.9268 21.3797 63.0648 21.3797C63.4879 21.3797 63.9287 21.3012 64.277 21.1568C64.4894 21.0634 64.5797 21.0105 64.8525 20.8301C65.017 21.0721 65.3485 21.3203 65.4821 21.3648L66.5387 20.6286H66.5385ZM79.348 21.2376C79.348 21.2376 78.4471 19.2942 78.2274 18.854C77.9781 18.3553 77.7489 18.0109 77.2404 17.8899V17.8599C77.5805 17.7947 77.852 17.5859 78.1437 16.951C78.4281 16.3311 78.5105 16.1976 78.6747 16.0515C78.8376 15.9029 79.0591 15.9583 79.0591 15.9583L79.1437 14.8112C78.9068 14.7798 78.6446 14.7789 78.3744 14.7947C77.9277 14.8216 77.6957 14.95 77.4757 15.1753C77.3051 15.347 77.1875 15.6031 77.0433 15.8965L76.6092 16.8033C76.4518 17.1372 76.3736 17.2871 75.9461 17.2871H75.6691V12.2163H74.0186V21.2376H75.6691V18.6433L75.893 18.6384C76.3661 18.6384 76.448 18.7565 76.6973 19.2597C76.9907 19.8607 77.5488 21.2374 77.5488 21.2374H79.348V21.2376ZM32.9493 21.2376H34.8508L31.9764 12.3684C31.6748 12.2654 31.2983 12.2011 30.8987 12.2011C30.4624 12.2011 30.3074 12.2599 29.965 12.3684L26.9249 21.2376H28.7478C28.7478 21.2376 28.993 20.4588 29.2845 19.4935H32.4359C32.7183 20.4588 32.9493 21.2376 32.9493 21.2376ZM29.7477 18.0063C29.7477 18.0063 30.2722 16.2274 30.3532 15.949C30.5656 15.2327 30.8827 14.0932 30.8827 14.0932H30.9355C30.9355 14.0932 31.2279 15.2743 31.4205 15.9383L31.9967 18.0063H29.7477ZM50.9748 16.9937C50.3927 16.9937 49.9209 17.4722 49.9209 18.0603C49.9209 18.6509 50.3927 19.1258 50.9748 19.1258C51.5562 19.1258 52.0274 18.6509 52.0274 18.0603C52.0274 17.4722 51.5558 16.9937 50.9748 16.9937ZM37.1081 12.2163H35.4573V21.2376H37.1081V12.2163ZM69.9172 16.1678C70.8283 16.1887 70.9403 16.3778 70.9403 17.1526V21.2376H72.5761V17.0091C72.5761 16.0855 72.4702 15.7539 72.2276 15.4167C71.8929 14.9407 71.2311 14.7345 70.1158 14.7345C69.0122 14.7345 68.3099 14.853 67.4037 15.1253V21.2376H69.0564V16.2464C69.4923 16.1827 69.5665 16.1678 69.9172 16.1678ZM41.1907 12.0561C40.1608 12.0561 39.6007 12.2612 39.2665 12.7372C39.0241 13.0742 38.9178 13.4147 38.9178 14.339V15.1253H38.0975V16.4737H38.9178V21.2376H40.5531L40.5494 16.4737H42.183V15.1253H40.5494L40.5531 14.4024C40.5531 13.5756 40.6799 13.4152 41.773 13.4152C41.8904 13.4152 42.0231 13.4216 42.1656 13.4325L42.4236 12.1375C42.0189 12.0824 41.6062 12.0563 41.1905 12.0563L41.1907 12.0561ZM54.3309 12.1393C54.8927 12.1064 56.1468 12.059 56.9367 12.059C57.0769 12.059 57.2244 12.0603 57.3755 12.067C58.9267 12.067 59.8137 13.2079 59.8137 14.5452C59.8137 15.4547 59.4016 16.0584 58.4355 16.419C59.5742 16.6732 60.1699 17.571 60.1699 18.6673C60.1699 19.4726 59.9427 20.1114 59.5284 20.5478C58.9949 21.0826 58.1856 21.3797 57.1088 21.3797C56.1465 21.3797 54.944 21.3499 54.3304 21.3119V12.1393H54.3307H54.3309ZM56.9369 13.6183C56.6604 13.6183 56.3255 13.6227 55.9891 13.635V15.8008H56.9384C57.3105 15.8008 57.6139 15.6952 57.8206 15.4912C58.015 15.3003 58.1161 15.0285 58.1161 14.706C58.1161 14.0147 57.746 13.6212 57.0569 13.618H56.9369V13.6183ZM56.9682 19.8249H57.0443C57.8979 19.8249 58.4276 19.3627 58.4329 18.4327C58.4232 18.097 58.2977 17.7898 58.0725 17.5674C57.8222 17.3154 57.4708 17.1835 57.0591 17.1835H55.9887V19.8144C56.2905 19.8211 56.6223 19.8236 56.9682 19.8251V19.8249Z" fill="#A0D3FF" fill-opacity="0.8"/>
</svg>
