<svg viewBox="0 0 50 46" fill="none" xmlns="http://www.w3.org/2000/svg">
<path d="M15.6403 46.0004C15.2338 45.7245 14.8884 45.3828 14.6258 44.9682C14.4487 44.6887 14.3956 44.3624 14.3848 44.0369C14.3488 43.021 14.7913 42.197 15.4407 41.4605C15.4838 41.4118 15.5252 41.3613 15.5711 41.3162C15.6754 41.2117 15.6799 41.0764 15.5953 40.9845C15.4793 40.8583 15.3624 40.9674 15.2878 41.0593C15.0189 41.392 14.7472 41.7246 14.5017 42.0753C14.0682 42.6955 13.5637 43.1886 12.7561 43.2553C12.5636 43.2716 12.4161 43.4329 12.1994 43.4492C11.7461 43.4825 11.3782 43.3329 11.0653 43.03C10.9259 42.8947 10.8233 42.8812 10.6606 42.9948C10.4564 43.1363 10.2262 43.2391 10.0094 43.3626C9.65148 43.5663 9.12446 43.5159 8.83037 43.2454C8.53897 42.9768 8.52189 42.7505 8.70536 42.2673C8.86634 41.8427 9.14244 41.483 9.33221 41.0773C9.41945 41.1242 9.41675 41.0602 9.42124 41.0043C9.44733 40.9484 9.47341 40.8916 9.49859 40.8367C9.55165 40.8529 9.55615 40.824 9.54626 40.7826C9.57414 40.7285 9.60112 40.6744 9.629 40.6203C9.77919 40.5491 9.84305 40.4148 9.88621 40.2642C10.2514 39.8378 10.5814 39.7702 10.8881 40.0569C11.1147 40.2678 11.1444 40.5329 10.9744 40.8069C10.7082 41.2378 10.3728 41.6227 10.1344 42.0744C10.0913 42.1555 10.0103 42.2448 10.0769 42.316C10.1578 42.4025 10.2559 42.316 10.3386 42.2655C10.88 41.9383 11.2245 41.465 11.4052 40.8583C11.5509 40.3679 11.9628 40.1019 12.4224 40.1732C12.748 40.2236 12.9242 40.4923 12.8037 40.8024C12.6436 41.2135 12.4638 41.6173 12.2785 42.0176C12.1922 42.2042 12.149 42.3791 12.3046 42.5369C12.4638 42.6982 12.6293 42.6 12.7929 42.5215C13.2561 42.2989 13.5862 41.9184 13.9351 41.5605C14.231 41.3875 14.3587 41.0963 14.464 40.7907C14.6933 40.2164 14.8057 39.6278 14.7904 39.0021C14.7814 38.6451 15.268 38.3828 15.5899 38.5288C15.7096 38.5838 15.7788 38.6821 15.8022 38.8363C15.9326 39.7161 16.3085 40.0686 17.1863 40.1831C17.4876 40.2227 17.7475 40.3517 17.8977 40.6365C18.0542 40.934 17.8635 41.3523 17.5488 41.3289C16.5649 41.2558 16.2114 42.0014 15.7977 42.6522C15.5612 43.0246 15.4739 43.4744 15.4137 43.9044C15.3552 44.32 15.5333 44.7013 15.8661 44.9745C16.0198 45.1016 16.2006 45.2007 16.3814 45.2891C16.6827 45.4369 16.8607 45.6425 16.787 45.9986C16.4048 46.0004 16.0225 46.0004 15.6403 46.0004Z" fill="#A0D3FF" fill-opacity="0.8"/>
<path d="M24.6653 -0.000305176C24.8479 0.303495 24.7957 0.647862 24.8362 0.972397C24.9144 1.59622 24.9477 2.22636 25.0089 2.85289C25.0449 3.2189 25.4927 3.60563 25.91 3.68677C27.3355 3.96443 28.5892 4.59276 29.5821 5.65741C30.1451 6.26141 30.6973 6.90777 30.9473 7.72001C31.2864 8.82253 31.6309 9.92414 31.3961 11.1186C31.2765 11.7244 31.1839 12.3293 30.9168 12.89C30.638 13.4733 30.3897 14.0647 29.8816 14.5181C29.5165 14.8435 29.4382 14.8688 29.226 14.4027C28.8752 13.6329 28.886 12.8558 29.1972 12.0769C29.4661 11.4026 29.6451 10.7048 29.5578 9.98003C29.3636 8.37449 28.6369 7.09618 27.224 6.23436C26.4002 5.73224 25.5071 5.44737 24.5673 5.47892C22.7929 5.54022 21.3215 6.24608 20.325 7.78492C19.6721 8.79278 19.5633 9.92144 19.7054 11.0654C19.7998 11.8263 20.1236 12.5231 20.6254 13.1352C21.8144 14.5857 23.1841 15.8622 24.4684 17.2208C25.6978 18.5225 26.9308 19.8206 28.1566 21.1251C28.3077 21.2856 28.4795 21.4226 28.6207 21.5984C28.734 21.7408 28.815 21.5668 28.8482 21.465C28.9517 21.1449 29.0452 20.8213 29.136 20.4968C29.3654 19.6755 29.6739 18.8804 29.9491 18.0745C30.4455 16.6195 31.1533 15.2564 31.79 13.8645C32.0455 13.3056 32.3423 12.7494 32.8522 12.3446C33.3208 11.9732 34.3235 11.8281 34.8173 12.103C34.945 12.1742 34.9054 12.2644 34.8578 12.3591C34.6824 12.707 34.4593 13.0262 34.2588 13.3579C33.9854 13.8104 33.7758 14.3009 33.5357 14.7741C32.9826 15.8649 32.5032 16.9873 32.0158 18.1087C31.6515 18.9471 31.3664 19.8107 31.0733 20.668C30.7063 21.7408 30.4176 22.8424 30.1712 23.9512C29.9922 24.7581 29.8672 25.5748 29.7287 26.3898C29.4553 27.9953 29.3312 29.6117 29.2754 31.2361C29.2637 31.5841 29.2233 31.9321 29.2206 32.2801C29.2179 32.5253 29.11 32.61 28.8869 32.564C28.3608 32.4559 27.9768 32.1728 27.6881 31.7031C27.2753 31.0297 27.4587 30.3076 27.4416 29.6027C27.4264 28.959 27.4416 28.9473 26.8813 29.2177C25.7104 29.7839 24.4944 29.8812 23.2452 29.5675C22.8891 29.4783 22.5527 29.3178 22.2272 29.1411C21.9744 29.0041 21.8458 29.0762 21.88 29.3674C21.9331 29.8136 21.9816 30.2571 21.9897 30.7079C22.0068 31.6508 21.0895 32.4919 20.3673 32.5929C20.1712 32.6199 20.0885 32.5758 20.0975 32.3783C20.0984 32.3558 20.0957 32.3333 20.0966 32.3107C20.1191 31.109 19.9941 29.911 19.9041 28.7174C19.8241 27.6563 19.6982 26.5872 19.4455 25.5415C19.2881 24.8879 19.2026 24.2172 19.0596 23.56C18.9355 22.9885 18.7988 22.4178 18.6261 21.8598C18.4058 21.1458 18.2025 20.4264 17.9327 19.7278C17.5541 18.747 17.1701 17.768 16.7573 16.8007C16.4569 16.0966 16.1466 15.3989 15.7788 14.7282C15.3687 13.9808 15.0332 13.1929 14.544 12.4898C14.4046 12.2896 14.5062 12.1364 14.7427 12.0589C15.857 11.6929 16.8814 12.4708 17.2897 13.3967C17.6422 14.1963 18.0928 14.9535 18.4319 15.7613C18.7485 16.5158 19.0587 17.2739 19.3573 18.0366C19.4509 18.2746 19.5947 18.4612 19.7728 18.6343C20.5157 19.3537 21.2586 20.074 21.9978 20.797C23.0249 21.8012 24.0511 22.8073 25.0727 23.8169C25.589 24.3272 25.4873 24.8013 25.1762 25.1782C24.8434 25.582 24.2219 25.6019 23.8037 25.1881C22.9565 24.3488 22.0401 23.5816 21.2226 22.7117C21.0994 22.5801 20.9348 22.4872 20.7351 22.425C20.8988 23.0723 21.0805 23.7151 21.2172 24.3677C21.2792 24.6625 21.3593 24.9627 21.3746 25.2602C21.4267 26.2933 22.0293 26.9234 22.8576 27.4075C23.6095 27.8466 24.4414 27.943 25.258 27.7789C26.0377 27.6221 26.7186 27.2489 27.2024 26.5196C27.742 25.7064 27.8688 24.8536 27.6827 23.9485C27.546 23.2841 27.1251 22.7595 26.652 22.2718C25.3129 20.8889 24.0016 19.4808 22.6661 18.0952C21.6992 17.0928 20.718 16.1047 19.7323 15.1212C18.9796 14.3703 18.4373 13.4904 18.0784 12.4952C17.8131 11.7596 17.6458 10.9969 17.6854 10.2126C17.7717 8.48808 18.3599 6.96547 19.5705 5.7097C20.5238 4.72077 21.6741 4.0735 22.9997 3.74266C23.4089 3.64079 23.837 3.63448 24.1653 3.29192C24.3146 3.13506 24.4135 3.00074 24.409 2.77987C24.3838 1.84774 24.57 0.93183 24.6653 -0.000305176Z" fill="#A0D3FF" fill-opacity="0.8"/>
<path d="M38.6358 40.4821C39.0351 40.1476 39.465 39.8645 39.9848 39.7582C40.1296 39.7284 40.3122 39.6716 40.394 39.8636C40.4767 40.0575 40.3652 40.2116 40.2132 40.309C39.8445 40.5461 39.483 40.7832 39.2024 41.1356C39.0072 41.3808 38.8435 41.6405 38.7203 41.9253C38.6187 42.1615 38.634 42.3797 38.8381 42.5699C39.0342 42.7529 39.2482 42.7809 39.4857 42.6781C40.1332 42.3977 40.3922 41.8451 40.1755 41.1753C40.1062 40.9626 40.1197 40.7796 40.2708 40.6146C40.4929 40.373 40.743 40.4172 40.8518 40.7345C41.0218 41.2339 41.0685 41.7667 41.2466 42.2661C41.3941 42.6781 41.5973 42.7502 41.9697 42.5113C42.6478 42.0759 43.0084 41.4142 43.2765 40.6849C43.3727 40.4235 43.4563 40.1566 43.575 39.9069C43.6389 39.7726 43.7 39.6058 43.9132 39.6013C44.138 39.5968 44.3116 39.6879 44.4249 39.8627C44.5409 40.0421 44.6147 40.2432 44.4915 40.4631C44.4492 40.5389 44.4069 40.656 44.4897 40.711C44.5868 40.775 44.657 40.6741 44.7406 40.6137C44.9834 40.4397 45.1849 40.1891 45.5203 40.1711C45.9439 40.1476 46.0231 40.2224 46.14 40.638C46.2902 41.1735 46.4458 41.7054 46.6742 42.2201C47.0744 43.1225 47.7633 43.6688 48.6402 44.0294C48.7742 44.0844 48.9154 44.1268 49.0404 44.1962C49.1475 44.2557 49.3129 44.2944 49.2896 44.4612C49.268 44.6172 49.1277 44.6767 48.9892 44.7181C48.0359 45.0012 47.2633 44.6523 46.5681 44.0249C45.9646 43.4795 45.6526 42.7718 45.4268 42.0128C45.4106 41.9596 45.3845 41.91 45.3639 41.8586C45.4178 41.6846 45.3252 41.5449 45.2038 41.4692C45.0707 41.3863 44.9583 41.5197 44.853 41.6026C44.7919 41.6504 44.7226 41.6901 44.7217 41.782C44.4726 42.1868 44.2244 42.5915 43.9726 42.9945C43.7153 43.4065 43.2567 43.53 42.8547 43.2604C42.6766 43.1414 42.5642 43.1414 42.3933 43.2568C41.8869 43.5985 41.0775 43.5868 40.6539 43.1072C40.5289 42.9657 40.4102 42.981 40.2627 43.1C39.8445 43.4389 39.3678 43.6156 38.8201 43.6102C38.3857 43.6057 38.0395 43.4534 37.7859 43.1C37.6627 42.9278 37.5736 42.8593 37.3317 42.9936C37.0439 43.1532 36.7291 43.2866 36.3874 43.3587C36.105 43.4182 35.8388 43.3686 35.6715 43.2262C35.3054 42.9152 34.9727 43.0107 34.6453 43.21C34.1722 43.4975 33.7343 43.4795 33.2837 43.1748C33.1659 43.0955 33.0561 43.063 32.8727 43.1414C32.45 43.3226 31.9994 43.4507 31.5227 43.4434C31.1792 43.438 30.8887 43.3353 30.6692 43.0675C30.537 42.9071 30.4201 42.8602 30.2196 42.9945C29.9579 43.1703 29.6764 43.3461 29.3778 43.4344C28.5719 43.6733 28.1385 43.2298 28.3237 42.3202C28.4973 41.4674 28.8723 40.6975 29.5055 40.0755C29.697 39.888 29.9309 39.7753 30.1575 39.9349C30.3788 40.0899 30.5829 40.3108 30.439 40.6389C30.4237 40.6344 30.4075 40.6299 30.3922 40.6263C30.3913 40.6497 30.3904 40.6723 30.3895 40.6957C30.3599 40.7426 30.3302 40.7904 30.3014 40.8372C30.2394 40.8192 30.2286 40.8436 30.2528 40.8967C30.1638 41.0626 30.0748 41.2285 29.9857 41.3944C29.8337 41.3745 29.8985 41.4782 29.9003 41.5458C29.8859 41.5882 29.8715 41.6306 29.8571 41.6711C29.6988 41.6342 29.7699 41.7505 29.7618 41.8145C29.7339 41.91 29.7393 42.0119 29.6665 42.0966C29.5963 42.1787 29.5702 42.3013 29.6485 42.3743C29.733 42.4536 29.8301 42.3635 29.9201 42.322C30.3644 42.1183 30.5568 41.6892 30.8311 41.3295C31.029 41.0689 31.0937 40.7507 31.2448 40.473C31.4274 40.1368 31.9041 40.0512 32.2224 40.2747C32.4257 40.4172 32.4994 40.5911 32.3951 40.8201C32.217 41.2132 32.0408 41.608 31.8456 41.993C31.7521 42.1778 31.7071 42.3617 31.8429 42.5176C32.0066 42.7051 32.2054 42.6177 32.3933 42.5212C32.6316 42.3995 32.7477 42.2436 32.7441 41.9443C32.7315 41.1077 33.0543 40.3721 33.4438 39.6392C33.9825 38.625 34.4322 37.5631 34.9223 36.5227C35.0239 36.3064 35.14 36.0972 35.2497 35.8854C35.3378 35.9151 35.309 35.8493 35.3117 35.8088C35.3369 35.742 35.3621 35.6753 35.3864 35.6095C35.5537 35.4265 35.6778 35.2147 35.7875 34.9929C35.8235 34.9623 35.8585 34.9325 35.8936 34.9028C35.9764 34.7964 36.1634 34.8297 36.2075 34.6693C36.4881 34.6197 36.7687 34.599 37.007 34.7928C37.1878 34.9397 37.2894 35.0948 37.132 35.349C36.4557 36.4461 35.774 37.5405 35.1418 38.6638C34.7002 39.4481 34.2982 40.2603 33.9564 41.0924C33.8197 41.4259 33.7217 41.8145 33.7478 42.2048C33.7711 42.5519 33.9699 42.6934 34.291 42.5708C34.4061 42.5266 34.5194 42.4771 34.6309 42.4248C34.8225 42.3346 34.925 42.2174 34.9349 41.9686C34.9646 41.2132 35.3054 40.5443 35.6274 39.8835C36.3622 38.3744 37.1374 36.8851 37.9657 35.4247C38.097 35.1939 38.2544 34.9857 38.4811 34.8288C38.8084 34.6008 39.1331 34.6485 39.4398 34.8315C39.6646 34.965 39.7366 35.1777 39.5927 35.4346C39.2212 36.0954 38.7122 36.6634 38.3435 37.3269C38.2967 37.4116 38.2005 37.4819 38.2445 37.5802C38.2886 37.6811 38.4046 37.6289 38.4865 37.6298C39.1718 37.637 39.8571 37.6541 40.5415 37.637C41.6882 37.6081 42.8277 37.737 43.9708 37.7803C44.2208 37.7902 44.487 37.7956 44.5553 38.1066C44.5922 38.2716 44.2127 38.6025 43.9663 38.6232C43.7099 38.6448 43.45 38.6367 43.1919 38.6385C42.3717 38.6457 41.547 38.5971 40.734 38.6746C39.8058 38.7629 38.8777 38.7566 37.9496 38.7846C37.4009 38.8008 37.168 39.1497 36.9746 39.5653C36.7048 40.1467 36.3307 40.6786 36.1499 41.3015C36.0735 41.5647 35.9854 41.8289 35.9557 42.0984C35.9125 42.4825 36.1679 42.6673 36.525 42.5347C36.9063 42.3941 37.302 42.2724 37.5296 41.8902C37.6015 41.9326 37.6267 41.8713 37.6564 41.8298C37.9316 41.4403 38.2059 41.0509 38.4793 40.6606C38.509 40.6317 38.5377 40.6029 38.5665 40.5731C38.643 40.5821 38.6834 40.5668 38.6358 40.4821Z" fill="#A0D3FF" fill-opacity="0.8"/>
<path d="M20.9859 41.5969C21.477 41.5969 21.8151 41.587 22.1515 41.5996C22.5022 41.6131 22.5904 41.7916 22.4267 42.1071C22.2414 42.4641 21.9824 42.6615 21.5498 42.6291C21.1703 42.6002 20.7863 42.6381 20.4049 42.6381C19.752 42.6381 19.3824 43.0834 19.0235 43.5306C18.8679 43.7235 19.0577 43.8145 19.1944 43.8704C19.4822 43.9894 19.7871 43.9678 20.0911 43.9443C21.2215 43.8569 22.3439 43.7018 23.4412 43.4197C24.3576 43.1835 25.2723 42.9149 26.0394 42.3118C26.3974 42.0305 26.3983 41.8484 26.0151 41.587C25.4629 41.211 24.8163 41.0695 24.1939 40.8739C23.1111 40.534 21.9986 40.2735 21.0237 39.6515C20.3456 39.2188 20.1963 38.6986 20.5776 37.9981C21.0534 37.1228 21.8241 36.5801 22.7082 36.206C23.2226 35.9887 23.7182 35.7201 24.2632 35.5723C25.4521 35.2495 26.651 35.0575 27.8822 35.2856C28.0378 35.3144 28.1844 35.3694 28.3049 35.4812C28.4254 35.5921 28.5855 35.6849 28.5225 35.886C28.4614 36.0843 28.3912 36.2646 28.1583 36.3538C27.5818 36.5747 26.9792 36.4683 26.3911 36.5332C25.257 36.6585 24.1418 36.8524 23.1012 37.3509C22.8458 37.4735 22.5985 37.615 22.3943 37.8115C21.9923 38.1983 21.8916 38.6445 22.6147 38.8825C23.6912 39.2368 24.7803 39.555 25.8559 39.9138C26.4639 40.1166 27.0638 40.3483 27.5872 40.7387C28.0774 41.1047 28.161 41.5365 27.8795 42.0882C27.4424 42.9446 26.6582 43.3503 25.8407 43.719C24.9899 44.103 24.104 44.3726 23.2019 44.616C21.7998 44.9955 20.3923 45.2308 18.9381 45.1352C18.5999 45.1127 18.2806 45.0361 17.9785 44.8756C17.5666 44.6574 17.4757 44.4014 17.6187 43.9606C17.7221 43.6396 17.9128 43.3863 18.1305 43.1447C18.2231 43.042 18.295 42.9437 18.2672 42.7895C18.1448 42.1143 18.3256 41.8069 18.975 41.7646C19.6971 41.7204 20.4094 41.5374 20.9859 41.5969Z" fill="#A0D3FF" fill-opacity="0.8"/>
<path d="M6.32437 37.4138C6.32437 37.6455 6.25962 37.842 6.16159 38.0368C5.84321 38.6732 5.83332 39.3746 5.78925 40.0615C5.74608 40.7358 5.8612 41.4083 5.89448 42.0826C5.90167 42.2278 5.91966 42.4135 6.06536 42.4558C6.21915 42.5009 6.31628 42.3332 6.39722 42.2179C7.31366 40.8909 8.22472 39.5576 9.00446 38.1431C9.82018 36.6647 10.608 35.1718 11.3212 33.6402C11.4354 33.395 11.6306 33.2228 11.9256 33.2075C12.2961 33.1886 12.4562 33.3923 12.3159 33.7376C12.0353 34.4272 11.7574 35.1187 11.4462 35.7939C10.7933 37.2092 10.0972 38.602 9.31474 39.9506C8.43606 41.466 7.53311 42.9652 6.47906 44.3679C6.36574 44.5184 6.25872 44.6771 6.05996 44.7276C5.53923 44.861 5.38454 44.6816 5.15431 44.0073C4.84942 43.1148 4.71092 42.1764 4.54814 41.2479C4.52655 41.1225 4.49957 40.9729 4.37366 40.9468C4.26394 40.9233 4.19829 41.0612 4.14073 41.1541C3.32321 42.473 2.31953 43.6413 1.2403 44.7483C1.12338 44.8682 0.98578 44.9665 0.858071 45.0747C0.638627 45.2604 0.413789 45.1937 0.204238 45.0674C-0.0125071 44.9367 -0.0340921 44.7186 0.0351585 44.5022C0.117899 44.2444 0.252803 44.0136 0.440769 43.8117C1.76372 42.3936 2.89422 40.8323 3.91769 39.1853C4.36017 38.474 4.89349 37.8186 5.39264 37.1434C5.55182 36.9279 5.76677 36.818 6.03838 36.9189C6.27221 37.0073 6.35675 37.1876 6.32437 37.4138Z" fill="#A0D3FF" fill-opacity="0.8"/>
<path d="M38.4771 40.6579C38.2028 41.0473 37.9294 41.4377 37.6542 41.8271C37.6245 41.8686 37.5993 41.9308 37.5273 41.8875C37.7998 41.4764 38.0364 41.0419 38.3781 40.6804C38.4105 40.6462 38.4303 40.6092 38.4771 40.6579Z" fill="#A0D3FF" fill-opacity="0.8"/>
<path d="M44.7192 41.7803C44.7201 41.6893 44.7893 41.6496 44.8505 41.6009C44.9557 41.518 45.0681 41.3846 45.2012 41.4675C45.3236 41.5432 45.4162 41.683 45.3613 41.857C45.1698 41.4982 45.1626 41.4964 44.8235 41.7713C44.7848 41.8038 44.7587 41.8299 44.7192 41.7803Z" fill="#A0D3FF" fill-opacity="0.8"/>
<path d="M14.4624 40.7919C14.3563 41.0975 14.2295 41.3878 13.9336 41.5617C14.0928 41.2967 14.2511 41.0335 14.4112 40.7693C14.4139 40.7648 14.4309 40.7657 14.439 40.7693C14.448 40.7739 14.4543 40.7838 14.4624 40.7919Z" fill="#A0D3FF" fill-opacity="0.8"/>
<path d="M35.7883 34.9913C35.6794 35.213 35.5544 35.4249 35.3871 35.6079C35.4492 35.3555 35.5589 35.1337 35.7883 34.9913Z" fill="#A0D3FF" fill-opacity="0.8"/>
<path d="M9.88705 40.2645C9.84388 40.4151 9.78003 40.5494 9.62984 40.6206C9.66401 40.4638 9.73596 40.3357 9.88705 40.2645Z" fill="#A0D3FF" fill-opacity="0.8"/>
<path d="M36.2084 34.6674C36.1643 34.8278 35.9773 34.7936 35.8945 34.9008C35.926 34.7233 36.0402 34.6593 36.2084 34.6674Z" fill="#A0D3FF" fill-opacity="0.8"/>
<path d="M29.8986 41.545C29.8968 41.4774 29.832 41.3738 29.984 41.3936C29.9885 41.463 30.0371 41.5568 29.8986 41.545Z" fill="#A0D3FF" fill-opacity="0.8"/>
<path d="M29.7603 41.8142C29.7675 41.7502 29.6965 41.634 29.8556 41.6709C29.8502 41.7367 29.9087 41.8449 29.7603 41.8142Z" fill="#A0D3FF" fill-opacity="0.8"/>
<path d="M35.3115 35.807C35.3088 35.8475 35.3376 35.9133 35.2495 35.8836C35.2117 35.8097 35.2099 35.7664 35.3115 35.807Z" fill="#A0D3FF" fill-opacity="0.8"/>
<path d="M38.6336 40.482C38.6813 40.5658 38.6408 40.5821 38.5661 40.5704C38.4996 40.473 38.5688 40.4802 38.6336 40.482Z" fill="#A0D3FF" fill-opacity="0.8"/>
<path d="M9.4219 41.0045C9.41741 41.0595 9.42011 41.1235 9.33287 41.0775C9.32838 41.0099 9.34007 40.9639 9.4219 41.0045Z" fill="#A0D3FF" fill-opacity="0.8"/>
<path d="M30.3867 40.6951C30.3876 40.6716 30.3885 40.6491 30.3894 40.6257C30.4047 40.6302 30.4209 40.6338 30.4362 40.6383C30.4344 40.6617 30.4335 40.6852 30.4317 40.7086C30.4173 40.7032 30.402 40.6996 30.3867 40.6951Z" fill="#A0D3FF" fill-opacity="0.8"/>
<path d="M9.54867 40.7832C9.55856 40.8246 9.55407 40.8526 9.501 40.8373C9.4938 40.8219 9.47671 40.8003 9.48121 40.7922C9.4974 40.7624 9.52169 40.7453 9.54867 40.7832Z" fill="#A0D3FF" fill-opacity="0.8"/>
<path d="M30.2506 40.8968C30.2263 40.8436 30.2371 40.8193 30.2991 40.8373C30.3216 40.8887 30.3153 40.9157 30.2506 40.8968Z" fill="#A0D3FF" fill-opacity="0.8"/>
</svg>
