<svg viewBox="0 0 122 34" fill="none" xmlns="http://www.w3.org/2000/svg">
<path fill-rule="evenodd" clip-rule="evenodd" d="M16.7099 0.0552979L8.30854 8.30992L9.05207 9.02991L6.31641 6.38635V13.3344L10.9162 17.9888L11.6954 17.2373L8.32298 20.551L5.97274 18.2682V18.2684L0 12.4672V19.2128L5.9728 25.2164V25.2162L11.9455 31.2198V24.0695L11.2151 23.3601L11.8816 24.0024L16.8246 19.1455V19.1364L22.9265 12.9386V6.12561L16.8164 12.1967V12.2056L14.5961 14.3872L11.8385 11.7225L16.7099 7.00329V0.0552979ZM0 0.282607L6.31607 6.3864V13.3344L0 7.2306V0.282607ZM22.9313 18.1334L16.8899 24.0697V24.0719L15.1572 25.7744C14.7501 26.1743 14.0902 26.1743 13.6832 25.7744L11.9486 24.0701V31.2205L12.8393 32.1457C13.661 32.9991 15.0431 33.0001 15.866 32.1478L16.8917 31.0855V31.0832L22.9313 25.014V18.1334Z" fill="#A0D3FF" fill-opacity="0.8"/>
<path d="M32.3093 7.22418H35.4361V15.417V20.5375H45.3377L43.7742 23.6098H35.4361H32.3093V7.22418Z" fill="#A0D3FF" fill-opacity="0.8"/>
<path d="M92.7617 23.6098H96.4096L104.622 7.22418H101.1L94.8462 20.5375L88.5926 7.22418H84.9446L92.7617 23.6098Z" fill="#A0D3FF" fill-opacity="0.8"/>
<path fill-rule="evenodd" clip-rule="evenodd" d="M58.1841 7.22418H54.1978L46.3523 23.6098H49.5075L51.5921 19.5134H60.9725L63.0571 23.6098H66.2101L58.1841 7.22418ZM59.804 16.9532L56.2172 9.78444L52.6343 16.9532H59.804Z" fill="#A0D3FF" fill-opacity="0.8"/>
<path fill-rule="evenodd" clip-rule="evenodd" d="M79.578 7.22424H75.5916L67.7461 23.6099H70.9014L72.9859 19.5135H82.3663L84.4509 23.6099H87.6041L79.578 7.22424ZM81.1979 16.9532L77.611 9.7845L74.0282 16.9532H81.1979Z" fill="#A0D3FF" fill-opacity="0.8"/>
<path fill-rule="evenodd" clip-rule="evenodd" d="M113.972 7.22424H109.986L102.141 23.6099H105.296L107.38 19.5135H116.761L118.845 23.6099H121.999L113.972 7.22424ZM115.592 16.9532L112.006 9.7845L108.422 16.9532H115.592Z" fill="#A0D3FF" fill-opacity="0.8"/>
<path d="M116.257 27.5142H117.82V29.0504V29.5624V29.733H120.426V27.5142H121.945V32.1227V33.8068H120.426V31.2426H117.82V33.8068H116.257V27.5142Z" fill="#A0D3FF" fill-opacity="0.8"/>
<path d="M85.09 28.7576H84.4978H83.2031V27.524H86.5824H88.6669V28.7576H87.6124H86.6516V33.7901H85.09V28.7576Z" fill="#A0D3FF" fill-opacity="0.8"/>
<path d="M94.5 27.4762H95.5748H99.0151V28.7298H97.4517H95.9901V29.9879H96.9673H98.494V31.2901H97.9728H95.9901V31.7067V32.4862H97.4802H99.0518V33.8224H98.0095H94.5V27.4762Z" fill="#A0D3FF" fill-opacity="0.8"/>
<path d="M110.825 29.0478C110.456 28.4298 109.889 27.9491 109.214 27.6803C108.537 27.4116 107.79 27.3698 107.088 27.5615C106.384 27.7532 105.766 28.1678 105.328 28.7407C104.889 29.3134 104.656 30.0125 104.664 30.7291C104.672 31.4456 104.921 32.1396 105.371 32.7029C105.822 33.2663 106.45 33.6675 107.156 33.8443C107.863 34.021 108.609 33.9634 109.279 33.6802C109.95 33.3972 110.505 32.9045 110.862 32.2787L109.528 31.5468C109.336 31.8835 109.037 32.1487 108.676 32.3011C108.315 32.4534 107.914 32.4845 107.534 32.3893C107.153 32.2943 106.816 32.0783 106.573 31.7751C106.33 31.4719 106.196 31.0985 106.192 30.7128C106.188 30.3272 106.313 29.9509 106.549 29.6427C106.785 29.3343 107.118 29.1113 107.496 29.0081C107.874 28.9049 108.277 28.9274 108.641 29.0721C109.004 29.2167 109.31 29.4755 109.508 29.808L110.825 29.0478Z" fill="#A0D3FF" fill-opacity="0.8"/>
</svg>
