<svg viewBox="0 0 56 41" fill="none" xmlns="http://www.w3.org/2000/svg">
<path d="M10.7219 36.0608H11.5685L13.0246 38.3329L14.4582 36.0608H15.3048L15.5306 40.8638H14.6388L14.4808 37.5343L13.2052 39.5028H12.7763L11.5007 37.5906L11.3427 40.875H10.4961L10.7219 36.0608Z" fill="#A0D3FF" fill-opacity="0.8"/>
<path d="M19.1987 36.0611H20.1356L21.9643 40.8641H20.9484L20.5307 39.6493H18.7359L18.3183 40.8641H17.3588L19.1987 36.0611ZM20.2711 38.9069L19.639 37.0397L18.9955 38.9069H20.2711Z" fill="#A0D3FF" fill-opacity="0.8"/>
<path d="M23.8707 36.061H25.6993C26.0041 36.061 26.2637 36.106 26.4782 36.196C26.6927 36.286 26.862 36.3985 26.9862 36.5447C27.1216 36.6909 27.2119 36.8372 27.2684 37.0059C27.3248 37.1746 27.3587 37.3321 27.3587 37.4896C27.3587 37.7933 27.291 38.0632 27.1555 38.2882C27.02 38.5244 26.8169 38.7044 26.5459 38.8506L27.6635 40.864H26.6363L25.6542 38.9631H24.7398V40.864H23.8594V36.061H23.8707ZM25.7106 38.2319C25.9364 38.2319 26.117 38.1645 26.2525 38.0295C26.3766 37.8945 26.4444 37.737 26.4444 37.5346C26.4444 37.3321 26.3766 37.1634 26.2412 37.0284C26.1057 36.8934 25.9251 36.8372 25.7106 36.8372H24.7511V38.2319H25.7106Z" fill="#A0D3FF" fill-opacity="0.8"/>
<path d="M29.7305 36.061H31.5591C31.8639 36.061 32.1236 36.106 32.338 36.196C32.5525 36.286 32.7218 36.3985 32.8573 36.5447C32.9927 36.6909 33.083 36.8372 33.1395 37.0059C33.1959 37.1746 33.2298 37.3321 33.2298 37.4896C33.2298 37.7933 33.1621 38.0632 33.0266 38.2882C32.8911 38.5244 32.688 38.7044 32.417 38.8506L33.5346 40.864H32.5074L31.5253 38.9631H30.6109V40.864H29.7305V36.061ZM31.5591 38.2319C31.7849 38.2319 31.9655 38.1645 32.101 38.0295C32.2251 37.8945 32.2929 37.737 32.2929 37.5346C32.2929 37.3321 32.2251 37.1634 32.0897 37.0284C31.9542 36.8934 31.7736 36.8372 31.5591 36.8372H30.5997V38.2319H31.5591Z" fill="#A0D3FF" fill-opacity="0.8"/>
<path d="M35.8043 36.0611H36.7186V40.8641H35.8043V36.0611Z" fill="#A0D3FF" fill-opacity="0.8"/>
<path d="M41.4283 40.9992C41.0783 40.9992 40.751 40.9317 40.4462 40.7968C40.1414 40.6618 39.8818 40.4818 39.656 40.2568C39.4303 40.0319 39.2497 39.7619 39.1255 39.447C38.99 39.1433 38.9336 38.8058 38.9336 38.4571C38.9336 38.1084 39.0013 37.7822 39.1255 37.4673C39.261 37.1636 39.4303 36.8936 39.656 36.6687C39.8818 36.4437 40.1414 36.2637 40.4462 36.1287C40.751 35.9938 41.0783 35.9263 41.4283 35.9263C41.7782 35.9263 42.1056 35.9938 42.4103 36.1287C42.7151 36.2637 42.9747 36.4437 43.2118 36.6687C43.4376 36.8936 43.6182 37.1636 43.7423 37.4673C43.8665 37.771 43.9342 38.1084 43.9342 38.4571C43.9342 38.8058 43.8665 39.1433 43.7423 39.447C43.6069 39.7507 43.4376 40.0206 43.2118 40.2568C42.986 40.4931 42.7151 40.673 42.4103 40.7968C42.1056 40.943 41.7782 40.9992 41.4283 40.9992ZM41.4283 40.1444C41.6653 40.1444 41.8798 40.0994 42.0717 40.0094C42.2636 39.9194 42.4329 39.7957 42.5684 39.6382C42.7038 39.4807 42.8054 39.3007 42.8844 39.0983C42.9522 38.8958 42.9973 38.6708 42.9973 38.4459C42.9973 38.2209 42.9635 37.9959 42.8844 37.7935C42.8167 37.591 42.7038 37.411 42.5684 37.2536C42.4329 37.0961 42.2636 36.9836 42.0717 36.8936C41.8798 36.8036 41.6653 36.7586 41.4283 36.7586C41.1912 36.7586 40.9767 36.8036 40.7848 36.8936C40.5929 36.9836 40.4349 37.1073 40.2995 37.2536C40.164 37.411 40.0624 37.591 39.9834 37.7935C39.9157 37.9959 39.8705 38.2209 39.8705 38.4459C39.8705 38.6708 39.9044 38.8846 39.9834 39.0983C40.0511 39.3007 40.164 39.492 40.2995 39.6382C40.4349 39.7957 40.5929 39.9194 40.7848 40.0094C40.9655 40.0994 41.1799 40.1444 41.4283 40.1444Z" fill="#A0D3FF" fill-opacity="0.8"/>
<path d="M46.7618 36.8709H45.125V36.0723H49.3016V36.8709H47.6648V40.8753H46.7505V36.8709H46.7618Z" fill="#A0D3FF" fill-opacity="0.8"/>
<path d="M52.4875 36.8711H50.8508V36.0725H55.0274V36.8711H53.3906V40.8755H52.4875V36.8711Z" fill="#A0D3FF" fill-opacity="0.8"/>
<path d="M35.1625 31.2589H43.3012L29.6765 0.494923L22.8472 3.64443L27.6107 14.3528L25.387 19.347L16.8757 0L9.96741 2.99203L15.5099 15.3539C15.4986 15.3651 15.4986 15.3876 15.4873 15.3988C12.067 23.1939 7.86782 25.331 7.46145 25.4885C6.49067 25.8597 5.44087 26.0734 4.33464 26.0734C3.996 26.0734 3.66864 26.0509 3.34128 26.0284L0 32.8111C1.10624 33.4185 2.34793 33.7672 3.66864 33.7672C5.33928 33.7672 6.87447 33.2161 8.15002 32.305L8.13874 32.3274C8.13874 32.3274 11.2994 30.8089 14.6746 22.4965C14.6746 22.4852 15.9163 19.8307 16.5822 18.1434L16.65 17.9522L22.5988 31.2701H30.7263L26.5271 21.8891L28.7508 16.9061L35.1625 31.2589Z" fill="#A0D3FF" fill-opacity="0.8"/>
</svg>
