<svg viewBox="0 0 44 26" fill="none" xmlns="http://www.w3.org/2000/svg">
<path d="M43.9029 12.4547C43.8545 12.5031 43.8062 12.5031 43.8062 12.5514C43.226 14.5822 41.9688 15.6943 39.8413 15.8393C38.5358 15.936 37.2303 15.8877 35.9732 15.8877C35.8765 15.8877 35.7314 15.8877 35.5864 15.8877C35.5864 14.4371 35.5864 12.9866 35.5864 11.4877C34.5226 11.4877 33.5073 11.4877 32.4435 11.4877C32.5402 10.1822 32.1534 8.92503 33.0721 7.71624C34.0391 6.36239 34.8611 4.86349 35.7314 3.46129C35.9248 3.17118 36.0699 3.02612 36.4567 3.02612C37.7139 3.07447 38.9227 3.02612 40.1798 3.12283C42.404 3.36459 43.8062 5.44371 43.1293 7.57118C42.9842 8.00635 42.5974 8.39316 42.2589 8.73162C42.0172 8.97338 41.7271 9.07009 41.4369 9.26349C41.8238 9.4569 42.2106 9.60196 42.549 9.79536C43.2743 10.1822 43.7095 10.8107 43.8545 11.5844C43.9029 11.7294 43.9512 11.8261 43.9996 11.9712C43.9029 12.1162 43.9029 12.3097 43.9029 12.4547ZM36.8435 12.7932C37.182 12.7932 37.5204 12.7932 37.8589 12.7932C37.9556 12.7932 38.1007 12.7932 38.1974 12.7932C38.7776 12.6965 39.1644 12.2613 39.2128 11.7778C39.2128 11.2459 38.8259 10.8107 38.2457 10.714C37.8106 10.6657 37.327 10.714 36.8435 10.714C36.8435 11.3426 36.8435 12.0195 36.8435 12.7932ZM36.8919 6.02393C36.8919 6.70085 36.8919 7.32943 36.8919 7.958C37.5688 7.86129 38.2941 8.19976 38.6809 7.42613C38.8259 7.13602 38.7776 6.70085 38.5842 6.41074C38.149 5.73382 37.4721 6.02393 36.8919 6.02393Z" fill="#A0D3FF" fill-opacity="0.8"/>
<path d="M38.3414 25.7526C38.6799 23.7702 39.0183 21.7878 39.4052 19.757C39.792 19.8537 40.1304 19.9021 40.4689 19.9504C40.5656 19.9504 40.7107 19.9021 40.8074 19.8054C41.9678 19.2735 43.0799 19.9504 43.0799 21.2076C43.0799 22.0779 42.7898 22.8515 42.0645 23.4317C41.3392 24.012 40.7107 24.012 39.9854 23.4317C39.792 24.2054 39.5986 24.979 39.4052 25.7043C39.0183 25.7526 38.6799 25.7526 38.3414 25.7526ZM41.9195 21.4977C41.9195 20.9658 41.581 20.579 41.1942 20.579C40.5656 20.579 40.0337 21.2559 40.0337 21.9812C40.0337 22.5131 40.3238 22.8032 40.8557 22.7548C41.4843 22.7548 41.9195 22.1746 41.9195 21.4977Z" fill="#A0D3FF" fill-opacity="0.8"/>
<path d="M14.4554 2.97852C16.0994 2.97852 17.7434 2.97852 19.3873 2.97852C20.4511 2.97852 21.5148 3.02687 22.5785 3.17192C24.5126 3.46203 25.3346 4.42907 25.4796 6.31478C25.528 6.94336 25.528 7.57193 25.4313 8.2005C25.2862 9.55435 24.3675 10.2796 23.1104 10.7148C24.1258 12.4071 25.1412 14.0511 26.2049 15.7917C25.8181 15.7917 25.528 15.7917 25.2379 15.7917C24.1258 15.7917 23.0137 15.7917 21.8533 15.7917C21.4665 15.7917 21.2247 15.695 21.0796 15.3082C20.4994 14.0511 19.8225 12.8423 19.1939 11.5851C19.0972 11.4401 19.0005 11.2467 18.8555 11.1016C18.8555 12.6005 18.8555 14.1478 18.8555 15.695C17.3566 15.695 15.9544 15.695 14.5038 15.695C14.4554 11.5368 14.4554 7.28182 14.4554 2.97852ZM18.8071 8.73237C19.5324 8.68402 20.2577 8.97413 20.7895 8.24885C21.0796 7.86204 21.0313 7.42687 20.7895 6.99171C20.2577 6.26643 19.5324 6.60489 18.8071 6.50819C18.8071 7.28182 18.8071 7.95874 18.8071 8.73237Z" fill="#A0D3FF" fill-opacity="0.8"/>
<path d="M35.2982 3.02612C33.4125 6.07228 31.5752 8.97338 29.6894 11.9712C31.4785 11.9712 33.1708 11.9712 34.8631 11.9712C34.8631 13.2767 34.8631 14.4855 34.8631 15.791C34.718 15.791 34.5246 15.8393 34.3796 15.8393C32.0103 15.8393 29.6411 15.8393 27.3202 15.8393C26.9334 15.8393 26.74 15.6943 26.5466 15.4042C25.918 14.2921 25.2411 13.2283 24.5642 12.1162C25.5795 10.4239 26.5949 8.73162 27.6587 6.94261C27.1752 6.94261 26.74 6.94261 26.2565 6.94261C26.1598 5.20195 25.6279 3.7514 23.8389 3.02612C27.6103 3.02612 31.3818 3.02612 35.2982 3.02612Z" fill="#A0D3FF" fill-opacity="0.8"/>
<path d="M12.9585 3.02612C12.9585 7.32942 12.9585 11.5844 12.9585 15.8393C8.65516 15.8393 4.40023 15.8393 0.0969238 15.8393C0.0969238 11.5844 0.0969238 7.32942 0.0969238 3.02612C4.35187 3.02612 8.65516 3.02612 12.9585 3.02612ZM0.483732 15.4525C4.49692 15.4525 8.51012 15.4525 12.5717 15.4525C12.5717 11.4393 12.5717 7.42613 12.5717 3.46129C8.51012 3.46129 4.54528 3.46129 0.483732 3.46129C0.483732 7.47448 0.483732 11.4393 0.483732 15.4525Z" fill="#A0D3FF" fill-opacity="0.8"/>
<path d="M5.75375 18.9346C5.41528 19.0796 5.07683 19.2731 4.69002 19.4665C4.39991 18.8379 3.91638 18.4027 3.14276 18.5478C2.32078 18.6445 1.88561 19.2247 1.64385 19.95C1.4988 20.4335 1.40209 20.917 1.40209 21.4005C1.35374 22.0775 1.69221 22.5126 2.22408 22.706C2.901 22.8994 3.57793 22.706 3.91639 22.1742C4.01309 21.9807 4.10979 21.7873 4.25484 21.4972C3.86803 21.4972 3.52957 21.4972 3.0944 21.4972C3.14275 21.1104 3.19111 20.8203 3.23947 20.4818C4.06145 20.4818 4.88342 20.4818 5.85046 20.4818C5.51199 21.2555 5.31859 22.0775 4.93178 22.7544C4.3032 23.8665 2.8043 24.2533 1.54716 23.8181C0.483418 23.4313 -0.0968021 22.3192 0.0966047 20.9654C0.386715 19.0796 1.54714 17.7741 3.28781 17.484C4.44825 17.2906 5.41528 17.8225 5.75375 18.9346Z" fill="#A0D3FF" fill-opacity="0.8"/>
<path d="M19.3887 22.077C19.3887 20.5781 20.7426 19.4177 22.2415 19.6111C22.9184 19.7078 23.4503 20.1429 23.5953 20.8199C23.9821 22.3671 22.4832 24.0594 20.8876 23.8177C19.969 23.721 19.3887 23.044 19.3887 22.077ZM20.5492 21.932C20.5492 22.5122 20.8393 22.8023 21.3712 22.8023C21.9997 22.8023 22.4832 22.2704 22.4832 21.5935C22.4832 21.0616 22.1448 20.6748 21.6613 20.6748C21.081 20.6265 20.5492 21.2067 20.5492 21.932Z" fill="#A0D3FF" fill-opacity="0.8"/>
<path d="M32.1061 19.8048C32.3479 19.8048 32.5896 19.8048 32.783 19.8048C32.9281 19.8048 33.0248 19.8048 33.2666 19.8532C33.0732 20.8685 32.9765 21.8839 32.6863 22.851C32.3479 23.9147 30.4138 24.3015 29.6402 23.4795C29.3984 23.2378 29.3017 22.8026 29.3017 22.4642C29.3501 21.5938 29.5435 20.7235 29.6885 19.8048C30.0753 19.8048 30.4138 19.8048 30.849 19.8048C30.7523 20.4817 30.6556 21.1587 30.6072 21.8356C30.6072 22.174 30.3171 22.7059 30.9457 22.8026C31.5259 22.8993 31.7193 22.4642 31.7677 21.9806C31.8644 21.3037 31.9611 20.5784 32.1061 19.8048Z" fill="#A0D3FF" fill-opacity="0.8"/>
<path d="M11.1666 23.6732C11.36 22.3677 11.6018 21.0622 11.7952 19.7567C12.2303 19.8051 12.6655 19.5633 12.9556 19.9018C13.3908 19.8051 13.8259 19.7083 14.4062 19.5633C14.2611 20.0468 14.2128 20.3369 14.1161 20.5787C12.9073 20.627 12.7622 20.7721 12.5204 22.0292C12.4721 22.271 12.4237 22.5611 12.3754 22.8029C12.2303 23.7699 12.2303 23.7699 11.1666 23.6732Z" fill="#A0D3FF" fill-opacity="0.8"/>
<path d="M0.487122 15.4528C0.487122 11.4396 0.487122 7.4748 0.487122 3.46161C4.50031 3.46161 8.51351 3.46161 12.575 3.46161C12.575 7.4748 12.575 11.4396 12.575 15.4528C8.51351 15.4528 4.50031 15.4528 0.487122 15.4528ZM2.75966 14.8726C4.0168 13.6155 5.32229 12.31 6.72449 10.9078C7.93328 12.2133 9.14207 13.5188 10.3509 14.7759C10.8827 14.244 11.3663 13.7605 11.9465 13.2287C10.641 11.9715 9.38384 10.666 8.07835 9.36052C8.85197 8.9737 8.94866 8.34513 8.85196 7.61986C8.80361 7.18469 8.99702 6.94293 9.38383 6.79788C9.52889 7.3781 9.19043 8.05502 9.96406 8.39348C10.5443 7.76491 11.1245 7.13634 11.7531 6.50777C11.9465 6.65282 12.0432 6.74953 12.2366 6.89458C12.1882 5.92755 11.8498 5.20227 11.2212 4.62205C10.5443 3.99348 9.67395 3.99348 8.99703 4.62205C8.36845 5.20227 7.73988 5.83084 7.11131 6.45941C7.25637 6.65282 7.35306 6.79788 7.44977 6.84623C7.1113 7.18469 6.8212 7.52315 6.53109 7.81326C6.24098 7.52315 5.90251 7.23304 5.5157 6.84623C5.7091 6.74953 5.85416 6.65282 6.09592 6.50777C5.46735 5.87919 4.88713 5.34733 4.35526 4.81546C4.25855 4.71875 4.16185 4.5737 4.01679 4.52535C3.53327 4.13853 2.95306 4.04183 2.37284 4.33194C1.5025 4.71875 0.825578 5.87919 0.873929 6.89458C1.01898 6.79788 1.16404 6.65282 1.35745 6.50777C1.98602 7.13634 2.56625 7.76491 3.24318 8.49019C3.43658 8.20008 3.62999 7.95832 3.67834 7.66821C3.72669 7.3781 3.67834 7.08799 3.67834 6.79788C3.72669 6.79788 3.82339 6.74953 3.87174 6.74953C4.0168 6.99128 4.2102 7.23304 4.25855 7.52315C4.25855 8.24843 4.21021 8.9737 5.17724 9.50557C3.77504 10.8594 2.42118 12.0682 1.11569 13.277C1.69591 13.8572 2.17944 14.3407 2.75966 14.8726Z" fill="#A0D3FF" fill-opacity="0.8"/>
<path d="M2.75894 14.8734C2.17872 14.2932 1.69519 13.8097 1.16332 13.2778C2.46882 12.069 3.77431 10.8119 5.22487 9.50638C4.25783 8.97451 4.30619 8.24924 4.30619 7.52396C4.30619 7.2822 4.06443 7.04044 3.91938 6.75033C3.87103 6.75033 3.77433 6.79868 3.72597 6.79868C3.72597 7.08879 3.77433 7.37891 3.72597 7.66902C3.67762 7.95913 3.43585 8.15253 3.2908 8.49099C2.61387 7.76572 2.03366 7.13715 1.40508 6.50857C1.21168 6.65363 1.06662 6.75033 0.921566 6.89539C0.873214 5.88 1.55014 4.71956 2.42047 4.33275C3.00069 4.04264 3.53256 4.18769 4.06443 4.52615C4.20948 4.62286 4.30619 4.71956 4.4029 4.81626C4.93476 5.34813 5.51499 5.88 6.14356 6.50857C5.9018 6.65363 5.75674 6.75033 5.56333 6.84704C5.95015 7.23385 6.28861 7.52396 6.57872 7.81407C6.86883 7.52396 7.15894 7.1855 7.4974 6.84704C7.44905 6.75033 7.30399 6.60528 7.15893 6.46022C7.78751 5.83165 8.41609 5.25143 9.04466 4.62286C9.72159 3.99429 10.5919 3.99429 11.2688 4.62286C11.8974 5.20308 12.2359 5.92835 12.2842 6.89539C12.0908 6.75033 11.9941 6.65363 11.8007 6.50857C11.1721 7.13715 10.5919 7.76572 10.0117 8.39429C9.18972 8.05583 9.52817 7.37891 9.43147 6.79868C9.04466 6.99209 8.85125 7.23385 8.8996 7.62066C8.9963 8.34594 8.8996 9.02286 8.12597 9.36133C9.43146 10.6668 10.737 11.924 11.9941 13.2295C11.4622 13.7613 10.9787 14.2448 10.3985 14.7767C9.18971 13.5196 7.98092 12.2141 6.77213 10.9086C5.27322 12.3108 4.01608 13.6163 2.75894 14.8734Z" fill="#A0D3FF" fill-opacity="0.1"/>
</svg>
