<svg viewBox="0 0 57 25" fill="none" xmlns="http://www.w3.org/2000/svg">
<path d="M49.7643 0.00280762C49.9371 0.0583398 50.1174 0.042557 50.2937 0.0571707C51.1918 0.132578 52.0749 0.282222 52.9221 0.604309C54.857 1.33967 56.0375 2.76071 56.6057 4.73356C56.8551 5.59987 56.9606 6.4878 56.9658 7.38625C56.9734 8.76871 56.9826 10.1512 56.9589 11.533C56.9357 12.8512 56.6973 14.129 56.0891 15.3139C55.3121 16.8267 54.0823 17.7836 52.4779 18.2741C51.5994 18.5424 50.6972 18.6686 49.7834 18.6961C47.703 18.7587 45.6219 18.7288 43.5409 18.7131C42.8648 18.7078 42.1916 18.6429 41.5376 18.443C40.8076 18.2197 40.2161 17.7825 39.6955 17.2371C38.9736 16.4807 38.3943 15.6097 37.7611 14.782C37.4869 14.4236 37.2109 14.0659 36.9812 13.6754C36.5104 12.8746 36.5185 12.0767 36.9946 11.2805C37.335 10.7117 37.753 10.1985 38.1456 9.66774C38.9672 8.55593 39.7946 7.4488 40.6174 6.33815C40.6667 6.27151 40.7165 6.24521 40.8 6.24521C43.3078 6.24755 45.8156 6.24696 48.3234 6.24696C48.3553 6.24696 48.3872 6.24696 48.4179 6.24696C48.4341 6.30542 48.3901 6.32938 48.3675 6.35978C46.7027 8.59568 45.0363 10.8316 43.3704 13.0669C43.1977 13.2984 43.0353 13.5363 42.9199 13.8034C42.5535 14.6504 42.986 15.4279 43.8935 15.5553C44.1005 15.5846 44.308 15.5974 44.5168 15.5974C45.9026 15.598 47.289 15.5986 48.6748 15.5968C48.9299 15.5968 49.1839 15.5764 49.4326 15.5162C50.1615 15.3396 50.5749 14.8661 50.7077 14.1325C50.7471 13.9162 50.7645 13.6982 50.7645 13.4778C50.7639 10.7316 50.7645 7.98541 50.7639 5.23978C50.7639 4.95862 50.739 4.68037 50.6677 4.40856C50.4763 3.68021 49.984 3.2944 49.2662 3.17106C49.0331 3.13073 48.7971 3.11787 48.5605 3.11787C46.0017 3.11729 43.4429 3.11787 40.8841 3.11787C40.6904 3.11787 40.6881 3.11787 40.691 2.9162C40.6974 2.47311 40.6713 2.02944 40.7189 1.58694C40.8099 0.734079 41.4118 0.126148 42.2635 0.0291123C42.2891 0.0261896 42.3204 0.0355424 42.3366 0.00339217C44.8131 0.00280762 47.2884 0.00280762 49.7643 0.00280762Z" fill="#A0D3FF" fill-opacity="0.8"/>
<path d="M0.00331116 7.87661C0.0531769 7.77081 0.0496979 7.65273 0.0781097 7.54225C0.254959 6.85248 0.794205 6.37081 1.49464 6.27845C1.66512 6.25624 1.83559 6.24689 2.00722 6.24689C6.71721 6.24747 11.4272 6.2463 16.1366 6.24806C16.7808 6.24806 17.4233 6.28371 18.0588 6.40296C18.9975 6.57891 19.7554 7.06935 20.4007 7.75912C21.0954 8.50149 21.6734 9.3374 22.2788 10.1511C22.5455 10.5094 22.8192 10.8625 23.0535 11.2442C23.5515 12.055 23.5596 12.8675 23.0726 13.6859C22.7548 14.2196 22.3634 14.6995 21.9953 15.1969C21.1481 16.3415 20.2952 17.4819 19.4463 18.6259C19.3953 18.6943 19.3466 18.7294 19.2544 18.7294C16.7512 18.7264 14.2481 18.727 11.7444 18.727C11.7096 18.727 11.6742 18.727 11.6122 18.727C11.7206 18.5797 11.8134 18.454 11.9067 18.3289C13.5076 16.1784 15.1091 14.0284 16.7095 11.8778C16.9124 11.6049 17.1015 11.3237 17.2081 10.9946C17.4389 10.2791 17.0754 9.62266 16.3512 9.44671C16.0653 9.37715 15.7742 9.36312 15.482 9.36312C13.47 9.36253 11.4579 9.3637 9.44649 9.35961C9.32472 9.35961 9.29457 9.38767 9.29457 9.51159C9.29805 14.6024 9.29747 19.6927 9.29747 24.7835C9.29747 24.9712 9.29747 24.9712 9.10497 24.9712C7.15324 24.9712 5.20152 24.97 3.25038 24.9741C3.12398 24.9741 3.09209 24.9425 3.09209 24.8145C3.09557 19.7283 3.09499 14.6428 3.09499 9.5566C3.09499 9.36195 3.09499 9.36195 2.89552 9.36195C1.93126 9.36195 0.966995 9.36195 0.00331116 9.36195C0.00331116 8.86684 0.00331116 8.37172 0.00331116 7.87661Z" fill="#A0D3FF" fill-opacity="0.8"/>
<path d="M38.4939 6.25293C38.0207 6.88892 37.5656 7.50095 37.1098 8.11239C34.5052 11.6103 31.9006 15.1077 29.2977 18.6068C29.2333 18.6933 29.169 18.7296 29.0588 18.729C26.5835 18.7255 24.1082 18.726 21.6323 18.726C21.583 18.726 21.5331 18.726 21.4844 18.726C21.4763 18.6711 21.5111 18.6483 21.532 18.6208C24.5773 14.5284 27.6237 10.4371 30.6684 6.34412C30.7166 6.27982 30.7629 6.24475 30.8488 6.24475C33.3565 6.24709 35.8643 6.2465 38.3721 6.24709C38.4034 6.24709 38.4341 6.25001 38.4939 6.25293Z" fill="#A0D3FF" fill-opacity="0.8"/>
</svg>
