<svg viewBox="0 0 44 45" fill="none" xmlns="http://www.w3.org/2000/svg">
<path d="M0.656425 0.684204C15.0996 0.684204 29.5359 0.684204 44 0.684204C44 15.1483 44 29.6054 44 44.0834C29.5568 44.0834 15.1205 44.0834 0.656425 44.0834C0.656425 29.6193 0.656425 15.1622 0.656425 0.684204ZM17.4094 30.6768C17.4373 30.6768 17.4651 30.6838 17.4929 30.6838C17.4929 33.2162 17.4929 35.7417 17.4929 38.2741C17.5555 38.2881 17.5903 38.302 17.6251 38.302C19.8236 38.302 22.0291 38.3437 24.2275 38.2741C25.8068 38.2254 27.2609 37.7593 28.3323 36.4861C28.3393 36.4722 28.3741 36.4792 28.4297 36.4722C28.4297 36.8688 28.4436 37.2584 28.4228 37.648C28.4088 37.8845 28.4854 37.9889 28.7289 38.0376C30.7673 38.4689 32.8267 38.6359 34.9069 38.4342C36.0131 38.3298 37.0636 38.0376 37.9889 37.3767C39.7491 36.1174 39.8535 33.0214 37.9124 31.9222C37.3767 31.6161 36.7784 31.3934 36.1801 31.2265C35.3591 31.0038 34.5034 30.8786 33.6685 30.6908C33.1537 30.5725 32.945 30.3429 32.9658 30.009C32.9797 29.668 33.2511 29.4385 33.745 29.348C33.7798 29.3411 33.8146 29.3341 33.8494 29.3341C34.7121 29.348 35.5887 29.3063 36.4444 29.3898C37.1402 29.4524 37.815 29.6611 38.5247 29.8141C38.5247 28.8958 38.5316 27.9705 38.5107 27.0452C38.5107 26.9686 38.3507 26.8434 38.2464 26.8225C36.2914 26.4399 34.3155 26.3286 32.3397 26.6277C30.7882 26.8643 29.362 27.3652 28.548 28.8749C27.574 27.6644 26.8087 27.1495 25.4033 26.8712C24.798 26.753 24.1649 26.6903 23.5457 26.6834C20.5819 26.6625 17.6182 26.6764 14.6544 26.6695C14.397 26.6695 14.2996 26.7599 14.2161 26.9895C13.4717 29.0906 12.7133 31.1917 11.9619 33.2928C11.9202 33.411 11.8645 33.5293 11.8089 33.6476C11.781 33.6406 11.7463 33.6406 11.7184 33.6337C11.0784 31.3239 10.4383 29.0141 9.79823 26.7043C8.26068 26.7043 6.75792 26.7043 5.21341 26.7043C5.59606 27.8313 5.95784 28.9306 6.32657 30.0229C7.2171 32.6736 8.10763 35.3312 8.99119 37.9819C9.05381 38.1767 9.10947 38.3228 9.3808 38.3228C10.8418 38.3089 12.2959 38.3089 13.7569 38.3159C13.9517 38.3159 14.0421 38.2463 14.1117 38.0724C14.5222 37.1192 14.9466 36.1661 15.371 35.213C16.0667 33.6963 16.7346 32.1866 17.4094 30.6768ZM37.7107 8.92157C38.956 8.92157 39.9718 7.91973 39.9787 6.68134C39.9857 5.436 38.9421 4.39241 37.6967 4.40632C36.4514 4.42024 35.4565 5.42208 35.4635 6.67438C35.4635 7.92669 36.4584 8.91461 37.7107 8.92157Z" fill="#A0D3FF" fill-opacity="0.8"/>
<path d="M17.4067 30.6769C16.7388 32.1866 16.0639 33.6963 15.396 35.206C14.9716 36.1592 14.5472 37.1054 14.1368 38.0655C14.0602 38.2394 13.9698 38.309 13.7819 38.309C12.3209 38.302 10.8669 38.295 9.40584 38.3159C9.13451 38.3159 9.07885 38.1698 9.01624 37.975C8.13267 35.3243 7.24214 32.6666 6.35161 30.0159C5.98288 28.9236 5.61415 27.8244 5.23846 26.6973C6.77601 26.6973 8.28573 26.6973 9.82328 26.6973C10.4633 29.0002 11.1034 31.3169 11.7435 33.6267C11.7713 33.6337 11.8061 33.6337 11.8339 33.6407C11.8826 33.5224 11.9383 33.4111 11.987 33.2858C12.7384 31.1847 13.4967 29.0837 14.2411 26.9826C14.3246 26.753 14.422 26.6625 14.6794 26.6625C17.6432 26.6695 20.607 26.6625 23.5708 26.6765C24.19 26.6834 24.8231 26.7391 25.4284 26.8643C26.8337 27.1426 27.5921 27.6574 28.573 28.868C29.387 27.3583 30.8133 26.8573 32.3647 26.6208C34.3406 26.3216 36.3095 26.433 38.2714 26.8156C38.3758 26.8365 38.5288 26.9617 38.5358 27.0382C38.5567 27.9635 38.5497 28.8889 38.5497 29.8072C37.8401 29.6611 37.1583 29.4524 36.4695 29.3828C35.6068 29.2993 34.7371 29.3411 33.8744 29.3272C33.8397 29.3272 33.8049 29.3341 33.7701 29.3411C33.2761 29.4315 33.0048 29.6542 32.9909 30.002C32.977 30.336 33.1787 30.5656 33.6936 30.6838C34.5284 30.8786 35.3772 30.9969 36.2051 31.2195C36.8034 31.3865 37.3948 31.6091 37.9375 31.9153C39.8785 33.0145 39.7742 36.1105 38.014 37.3697C37.0887 38.0307 36.0381 38.3229 34.9319 38.4272C32.8517 38.629 30.7924 38.462 28.7539 38.0307C28.5035 37.975 28.4339 37.8776 28.4478 37.6411C28.4687 37.2515 28.4548 36.8619 28.4548 36.4653C28.3991 36.4722 28.3643 36.4653 28.3574 36.4792C27.2859 37.7524 25.8319 38.2185 24.2526 38.2672C22.0541 38.3368 19.8556 38.2881 17.6502 38.295C17.6154 38.295 17.5806 38.2811 17.518 38.2672C17.518 35.7417 17.518 33.2093 17.518 30.6769C17.4623 30.6838 17.4345 30.6769 17.4067 30.6769ZM21.748 35.366C22.2211 35.366 22.6315 35.3869 23.049 35.3591C23.9813 35.3104 24.5865 34.8303 24.8231 33.9259C25.0805 32.9101 25.0735 31.8874 24.8161 30.8717C24.5865 29.9672 24.0578 29.5359 23.1255 29.4385C22.7916 29.4037 22.4576 29.4315 22.1237 29.4037C21.8315 29.3828 21.748 29.4802 21.7549 29.7724C21.7689 31.3795 21.7619 32.9867 21.7619 34.5938C21.748 34.8443 21.748 35.0878 21.748 35.366ZM29.1157 35.1504C30.4097 35.5539 31.7455 35.7696 33.1231 35.6652C33.5057 35.6374 33.9023 35.5539 34.2571 35.4078C34.4241 35.3382 34.605 35.0669 34.605 34.886C34.605 34.7051 34.431 34.4546 34.2571 34.3572C33.9927 34.2042 33.6796 34.1346 33.3735 34.072C32.0169 33.7937 30.6393 33.6198 29.4705 32.8127C29.3592 33.592 29.2409 34.3503 29.1157 35.1504Z" fill="#A0D3FF" fill-opacity="0.1"/>
<path d="M37.7122 8.92127C36.4599 8.92127 35.465 7.92638 35.465 6.67408C35.465 5.42178 36.4529 4.41994 37.6983 4.40602C38.9436 4.39211 39.9803 5.43569 39.9803 6.68104C39.9733 7.91247 38.9645 8.92127 37.7122 8.92127ZM39.5907 6.66712C39.5907 5.60962 38.7836 4.78867 37.7331 4.78867C36.6756 4.78171 35.8268 5.6305 35.8338 6.67408C35.8407 7.70375 36.6964 8.54558 37.7261 8.54558C38.7627 8.54558 39.5907 7.71767 39.5907 6.66712Z" fill="#A0D3FF" fill-opacity="0.1"/>
<path d="M29.1177 35.1504C29.2429 34.3504 29.3612 33.592 29.4795 32.8128C30.6413 33.6198 32.0258 33.8007 33.3825 34.0721C33.6886 34.1347 34.0017 34.2043 34.266 34.3573C34.433 34.4547 34.6139 34.7052 34.6139 34.8861C34.6139 35.0669 34.433 35.3383 34.266 35.4079C33.9112 35.554 33.5147 35.6374 33.132 35.6653C31.7545 35.7766 30.4117 35.5609 29.1177 35.1504Z" fill="#A0D3FF" fill-opacity="0.8"/>
<path d="M39.589 6.66719C39.589 7.71078 38.7611 8.54565 37.7175 8.54565C36.6879 8.54565 35.8321 7.70382 35.8252 6.67415C35.8182 5.62361 36.667 4.78178 37.7245 4.78874C38.782 4.7957 39.589 5.61665 39.589 6.66719ZM36.7505 5.40793C36.7505 6.23584 36.7505 7.02897 36.7505 7.81514C36.9175 7.81514 37.0496 7.81514 37.2236 7.81514C37.2236 7.48119 37.2236 7.16116 37.2236 6.71589C37.4671 6.85504 37.641 6.92461 37.7662 7.04288C37.8984 7.16811 38.0028 7.32813 38.0863 7.4951C38.2533 7.83601 38.5107 7.89862 38.9072 7.78731C38.6568 7.42553 38.4272 7.09158 38.1976 6.75068C38.1976 6.75068 38.2185 6.73677 38.2532 6.72285C38.615 6.54892 38.775 6.28455 38.7124 5.96451C38.6429 5.60274 38.4202 5.42185 37.9889 5.40793C37.5854 5.39402 37.1818 5.40793 36.7505 5.40793Z" fill="#A0D3FF" fill-opacity="0.8"/>
<path d="M36.7502 5.408C37.1815 5.408 37.585 5.40104 37.9886 5.408C38.4199 5.42191 38.6425 5.6028 38.7121 5.96458C38.7747 6.28461 38.6078 6.54899 38.2529 6.72292C38.2251 6.73683 38.1973 6.75075 38.1973 6.75075C38.4269 7.09165 38.6634 7.4256 38.9069 7.78737C38.5104 7.89869 38.2529 7.83607 38.086 7.49517C38.0025 7.3282 37.8981 7.16818 37.7659 7.04295C37.6407 6.92468 37.4598 6.8551 37.2233 6.71596C37.2233 7.16122 37.2233 7.4743 37.2233 7.8152C37.0493 7.8152 36.9102 7.8152 36.7502 7.8152C36.7502 7.02903 36.7502 6.23591 36.7502 5.408ZM37.2441 5.83935C37.2441 6.05502 37.2441 6.20808 37.2441 6.39593C37.4876 6.39593 37.7172 6.42376 37.9329 6.38201C38.0303 6.3681 38.1625 6.20808 38.1625 6.11764C38.1625 6.02719 38.0303 5.86718 37.9399 5.85326C37.7242 5.81152 37.4946 5.83935 37.2441 5.83935Z" fill="#A0D3FF" fill-opacity="0.1"/>
<path d="M37.2424 5.83978C37.4859 5.83978 37.7224 5.81195 37.9381 5.85369C38.0285 5.8676 38.1607 6.02762 38.1607 6.11807C38.1607 6.20851 38.0285 6.36157 37.9311 6.38244C37.7155 6.42418 37.4859 6.39635 37.2424 6.39635C37.2424 6.20851 37.2424 6.04849 37.2424 5.83978Z" fill="#A0D3FF" fill-opacity="0.8"/>
<path d="M21.758 29.7496H22.1561C23.6954 29.7496 24.9433 30.9975 24.9433 32.5367C24.9433 34.076 23.6954 35.3238 22.1561 35.3238H21.758V29.7496Z" fill="#A0D3FF" fill-opacity="0.8"/>
</svg>
