<svg viewBox="0 0 138 49" fill="none" xmlns="http://www.w3.org/2000/svg">
<g id="Vector">
<path d="M67.6357 47.7321L84.105 0.311996H75.5937L63.0213 38.4365L50.3009 0.311996H41.8525L58.407 47.7321H67.6357Z" fill="#F9FAFF"/>
<path d="M117.453 47.7118C104.529 49.819 92.3215 40.9159 90.1873 27.8262C88.0531 14.7365 96.7999 2.41692 109.724 0.309706C122.648 -1.79751 134.855 7.10558 136.989 20.1953C139.124 33.285 130.377 45.6046 117.453 47.7118ZM110.899 7.51366C101.903 8.98038 95.8145 17.5554 97.3 26.6665C98.7856 35.7776 107.282 41.9746 116.278 40.5078C125.274 39.0411 131.362 30.4661 129.877 21.355C128.391 12.2439 119.894 6.04693 110.899 7.51366Z" fill="#F9FAFF"/>
<path d="M0.519531 0.146482H33.3488V7.44188H0.519531V0.146482Z" fill="#F9FAFF"/>
<path d="M0.519531 40.2713H33.3488V47.5667H0.519531V40.2713Z" fill="#F9FAFF"/>
<path d="M0.519531 20.2116H24.2296V27.507H0.519531V20.2116Z" fill="#F9FAFF"/>
</g>
</svg>
