<svg viewBox="0 0 48 48" fill="none" xmlns="http://www.w3.org/2000/svg">
<ellipse rx="5.53844" ry="5.53844" transform="matrix(-1 0 0 1 5.54066 42.4598)" fill="#45D2FF"/>
<ellipse rx="5.53844" ry="5.53844" transform="matrix(-1 0 0 1 23.9976 23.9979)" fill="#2298FF"/>
<ellipse rx="5.53844" ry="5.53844" transform="matrix(-1 0 0 1 42.462 42.4598)" fill="#1C60E5"/>
<circle r="5.53844" transform="matrix(-1 0 0 1 23.9985 42.4598)" fill="#2298FF"/>
<ellipse rx="5.53844" ry="5.53844" transform="matrix(-1 0 0 1 42.4616 23.9979)" fill="#1C60E5"/>
<ellipse rx="5.53844" ry="5.53844" transform="matrix(-1 0 0 1 5.54066 5.53844)" fill="#45D2FF"/>
<ellipse rx="5.53844" ry="5.53844" transform="matrix(-1 0 0 1 23.9976 5.53844)" fill="#2298FF"/>
<circle r="5.53844" transform="matrix(-1 0 0 1 42.4616 5.53844)" fill="#1C60E5"/>
</svg>
