<svg viewBox="0 0 60 60" fill="none" xmlns="http://www.w3.org/2000/svg">
<path d="M31 45.876V47C31 47.553 30.553 48 30 48C29.447 48 29 47.553 29 47V45.879C27.533 45.555 26.349 44.549 26.028 43.237C26.01 43.161 26 43.082 26 43C26 42.447 26.447 42 27 42C27.471 42 27.865 42.325 27.972 42.763C28.141 43.457 29.032 44 30 44C31.084 44 32 43.313 32 42.5C32 41.687 31.084 41 30 41C27.794 41 26 39.43 26 37.5C26 35.874 27.279 34.516 29 34.124V33C29 32.447 29.447 32 30 32C30.553 32 31 32.447 31 33V34.121C32.467 34.445 33.651 35.451 33.972 36.763C33.99 36.839 34 36.918 34 37C34 37.553 33.553 38 33 38C32.529 38 32.135 37.675 32.028 37.237C31.859 36.543 30.968 36 30 36C28.916 36 28 36.687 28 37.5C28 38.313 28.916 39 30 39C32.206 39 34 40.57 34 42.5C34 44.126 32.721 45.484 31 45.876Z" fill="#F9FAFF"/>
<path d="M52 23.0002H40C38 23.0002 38.209 23.0002 36 23.0002L24 23.0001C21.791 23.0001 23.5 22.9999 20 23.0004L8 23.0002C5.791 23.0002 4 24.7912 4 27.0002C4 27.5532 4.447 28.0002 5 28.0002H12.5C13.328 28.0002 14 28.6722 14 29.5002C14 30.3282 13.328 31.0002 12.5 31.0002H5.5C4.672 31.0002 4 31.6722 4 32.5002C4 33.3282 4.672 34.0002 5.5 34.0002H12.5C13.328 34.0002 14 34.6722 14 35.5002C14 36.3282 13.328 37.0002 12.5 37.0002H5.5C4.672 37.0002 4 37.6722 4 38.5002C4 39.3282 4.672 40.0002 5.5 40.0002H12.5C13.328 40.0002 14 40.6722 14 41.5002C14 42.3282 13.328 43.0002 12.5 43.0002H5.5C4.672 43.0002 4 43.6722 4 44.5002C4 45.3282 4.672 46.0002 5.5 46.0002H12.5C13.328 46.0002 14 46.6722 14 47.5002C14 48.3282 13.328 49.0002 12.5 49.0002H11.952C10.874 49.0002 10 49.8742 10 50.9522C10 51.5312 9.531 52.0002 8.952 52.0002H5C4.447 52.0002 4 52.4472 4 53.0002C4 55.2092 5.791 57.0002 8 57.0002H52C54.209 57.0002 56 55.2092 56 53.0002V27.0002C56 24.7912 54.209 23.0002 52 23.0002ZM30 51.0002C23.925 51.0002 19 46.0752 19 40.0002C19 33.9252 23.925 29.0002 30 29.0002C36.075 29.0002 41 33.9252 41 40.0002C41 46.0752 36.075 51.0002 30 51.0002ZM51 47.5002C51 48.3282 50.328 49.0002 49.5 49.0002C48.672 49.0002 48 48.3282 48 47.5002V32.5002C48 31.6722 48.672 31.0002 49.5 31.0002C50.328 31.0002 51 31.6722 51 32.5002V47.5002Z" fill="#F9FAFF"/>
<path d="M48 15C49.1046 15 50 14.1046 50 13C50 11.8954 49.1046 11 48 11C46.8954 11 46 11.8954 46 13C46 14.1046 46.8954 15 48 15Z" fill="#F9FAFF"/>
<path d="M12 15C13.1046 15 14 14.1046 14 13C14 11.8954 13.1046 11 12 11C10.8954 11 10 11.8954 10 13C10 14.1046 10.8954 15 12 15Z" fill="#F9FAFF"/>
<path d="M30 6C31.1046 6 32 5.10457 32 4C32 2.89543 31.1046 2 30 2C28.8954 2 28 2.89543 28 4C28 5.10457 28.8954 6 30 6Z" fill="#F9FAFF"/>
<path d="M40 9C41.1046 9 42 8.10457 42 7C42 5.89543 41.1046 5 40 5C38.8954 5 38 5.89543 38 7C38 8.10457 38.8954 9 40 9Z" fill="#F9FAFF"/>
<path d="M20 9C21.1046 9 22 8.10457 22 7C22 5.89543 21.1046 5 20 5C18.8954 5 18 5.89543 18 7C18 8.10457 18.8954 9 20 9Z" fill="#F9FAFF"/>
</svg>
