<svg viewBox="0 0 50 50" fill="none" xmlns="http://www.w3.org/2000/svg">
<path d="M11.6667 2.5C6.60417 2.5 2.5 6.60417 2.5 11.6667C2.5 16.7292 6.60417 20.8333 11.6667 20.8333C16.7292 20.8333 20.8333 16.7292 20.8333 11.6667C20.8333 6.60417 16.7292 2.5 11.6667 2.5ZM11.6667 5.83333C13.0475 5.83333 14.1667 6.9525 14.1667 8.33333C14.1667 9.71417 13.0475 10.8333 11.6667 10.8333C10.2858 10.8333 9.16667 9.71417 9.16667 8.33333C9.16667 6.9525 10.2858 5.83333 11.6667 5.83333ZM15.8117 16.8825C14.6733 17.7883 13.2342 18.3333 11.6667 18.3333C10.0992 18.3333 8.66 17.7883 7.52167 16.8825C7.5175 16.8092 7.5 16.7408 7.5 16.6667C7.5 14.365 9.36583 12.5 11.6667 12.5C13.9675 12.5 15.8333 14.365 15.8333 16.6667C15.8333 16.7408 15.8158 16.8092 15.8117 16.8825Z" fill="#96CEFE"/>
<path d="M38.3334 29.1667C33.2709 29.1667 29.1667 33.2709 29.1667 38.3334C29.1667 43.3959 33.2709 47.5001 38.3334 47.5001C43.3959 47.5001 47.5 43.3959 47.5 38.3334C47.5 33.2709 43.3959 29.1667 38.3334 29.1667ZM38.3334 32.5001C39.7142 32.5001 40.8334 33.6192 40.8334 35.0001C40.8334 36.3809 39.7142 37.5001 38.3334 37.5001C36.9525 37.5001 35.8334 36.3809 35.8334 35.0001C35.8334 33.6192 36.9525 32.5001 38.3334 32.5001ZM42.4784 43.5492C41.34 44.4551 39.9009 45.0001 38.3334 45.0001C36.7659 45.0001 35.3267 44.4551 34.1884 43.5492C34.1842 43.4759 34.1667 43.4076 34.1667 43.3334C34.1667 41.0317 36.0325 39.1667 38.3334 39.1667C40.6342 39.1667 42.5 41.0317 42.5 43.3334C42.5 43.4076 42.4825 43.4759 42.4784 43.5492Z" fill="#96CEFE"/>
<path d="M17.3384 35.1284C14.685 35.7776 12.3467 36.6643 10.4817 37.5051C13.1359 40.5834 16.7492 42.8076 20.8609 43.7134C19.8217 41.7951 18.4042 38.8018 17.3384 35.1284Z" fill="#96CEFE"/>
<path d="M29.1392 6.28662C30.1792 8.20495 31.5958 11.1983 32.6625 14.8716C35.3158 14.2225 37.6542 13.3358 39.5192 12.495C36.8642 9.41662 33.25 7.19162 29.1392 6.28662Z" fill="#96CEFE"/>
<path d="M30.455 29.7466C30.6925 28.2283 30.8334 26.6391 30.8334 25C30.8334 22.815 30.5825 20.7183 30.1884 18.7625C28.5317 19.0166 26.7934 19.1666 25 19.1666C23.5625 19.1666 22.1642 19.0666 20.8117 18.8975C20.4267 19.3833 20.0025 19.835 19.545 20.2533C19.3075 21.7716 19.1667 23.3608 19.1667 25C19.1667 27.185 19.4175 29.2816 19.8117 31.2375C21.4684 30.9833 23.2067 30.8333 25 30.8333C26.4375 30.8333 27.8359 30.9333 29.1884 31.1025C29.5734 30.6158 29.9984 30.165 30.455 29.7466Z" fill="#96CEFE"/>
<path d="M25 5.83325C25 5.83325 24.1409 7.10159 23.0817 9.25909C23.245 10.0358 23.3334 10.8408 23.3334 11.6666C23.3334 13.0966 23.0634 14.4608 22.5925 15.7274C23.3817 15.7924 24.1834 15.8333 25 15.8333C26.5059 15.8333 27.9684 15.7116 29.3742 15.5099C27.6459 9.73159 25 5.83325 25 5.83325Z" fill="#96CEFE"/>
<path d="M26.6667 38.3334C26.6667 36.9034 26.9367 35.5384 27.4075 34.2726C26.6184 34.2076 25.8167 34.1667 25 34.1667C23.4942 34.1667 22.0317 34.2884 20.6259 34.4901C22.3542 40.2684 25 44.1667 25 44.1667C25 44.1667 25.8592 42.8984 26.9184 40.7409C26.755 39.9642 26.6667 39.1592 26.6667 38.3334Z" fill="#96CEFE"/>
<path d="M15.9391 22.5151C14.615 23.0376 13.1766 23.3334 11.6666 23.3334C9.64664 23.3334 7.74748 22.8192 6.09165 21.9167C5.92748 22.9209 5.83331 23.9492 5.83331 25.0001C5.83331 28.5592 6.80665 31.8909 8.49748 34.7467C10.615 33.7534 13.3691 32.6684 16.5425 31.8926C16.1091 29.7376 15.8333 27.4209 15.8333 25.0001C15.8333 24.1559 15.8775 23.3309 15.9391 22.5151Z" fill="#96CEFE"/>
<path d="M34.0609 27.4851C35.385 26.9626 36.8234 26.6667 38.3334 26.6667C40.3534 26.6667 42.2525 27.1809 43.9084 28.0834C44.0725 27.0793 44.1667 26.0509 44.1667 25.0001C44.1667 21.4409 43.1934 18.1093 41.5025 15.2534C39.385 16.2468 36.6309 17.3318 33.4575 18.1076C33.8909 20.2626 34.1667 22.5793 34.1667 25.0001C34.1667 25.8443 34.1225 26.6692 34.0609 27.4851Z" fill="#96CEFE"/>
</svg>
