<svg width="50" height="50" viewBox="0 0 50 50" fill="none" xmlns="http://www.w3.org/2000/svg">
<path d="M25.4167 2.5C29.1134 2.5 30.5 1.90417 31.6667 0C31.6667 0 33.3334 1.87 33.3334 3.985C33.3334 5.42167 32.43 6.95583 30.8334 7.76167V11.6667C30.8334 13.8742 29.6059 15.795 27.7975 16.7858L28.3334 19.1667C28.3334 19.1667 26.6667 20 25 20C23.3334 20 21.6667 19.1667 21.6667 19.1667L22.2025 16.7858C20.3942 15.795 19.1667 13.8742 19.1667 11.6667V8.75C19.1667 5.2975 21.9642 2.5 25.4167 2.5Z" fill="#BFDFFF"/>
<path d="M27.0833 36.6667C28.2339 36.6667 29.1667 35.7339 29.1667 34.5833C29.1667 33.4327 28.2339 32.5 27.0833 32.5C25.9327 32.5 25 33.4327 25 34.5833C25 35.7339 25.9327 36.6667 27.0833 36.6667Z" fill="#BFDFFF"/>
<path d="M18.7159 29.3267C25.1642 26.2975 29.325 22.8392 31.3559 20.5683C30.9267 20.4083 30.49 20.2683 30.0375 20.1775L29.0792 20.6567C28.8717 20.7608 27.0017 21.6667 25 21.6667C22.9984 21.6667 21.1284 20.7608 20.9209 20.6575L19.9625 20.1783C16.9934 20.7508 14.6125 23.1067 13.8675 26.0367L11.7417 34.3917C11.6925 34.5867 11.6667 34.79 11.6667 35C11.6667 36.0917 12.3667 37.02 13.3417 37.3608L20.5625 39.8833C20.9442 40.0167 21.3759 40.0417 21.8209 39.9242C22.4909 39.7458 23.0442 39.2133 23.2409 38.55C23.5609 37.4642 23.0217 36.4533 22.1459 36.035L17.4667 33.8025L18.7159 29.3267Z" fill="#BFDFFF"/>
<path d="M36.6667 37.2608C36.6667 38.8117 34.0675 39.1667 32.9167 39.1667C32.0834 39.1667 31.6667 38.6508 31.6667 37.5C31.6667 36.3492 32.5 35 34.1667 35C35.3175 35 36.6667 35.4608 36.6667 37.2608Z" fill="#BFDFFF"/>
<path d="M34.3558 23.4416C34.9008 23.9291 35.5775 24.1666 36.2533 24.1666C37.0792 24.1666 37.8417 23.8574 38.425 23.2266C40.1317 24.7216 41.9058 27.0074 42.78 30.3966C41.6117 30.7633 40.8333 31.8308 40.8333 32.9941C40.8333 33.2391 40.8592 33.4883 40.9242 33.7374C39.9425 34.0383 38.8167 34.4058 37.5742 34.8433C38.0525 35.4808 38.3267 36.2882 38.3308 37.2408C42.9117 35.6166 45.8333 34.9999 45.8333 34.9999C45.8333 21.6666 35 18.3333 35 18.3333C35 18.3333 31.9825 24.8574 20.1167 30.5066L19.4475 32.9016L20.2483 33.2833C26.9675 30.0824 31.9792 26.0658 34.3558 23.4416Z" fill="#BFDFFF"/>
<path d="M10.0675 34.2808C9.25333 34.5183 8.36583 34.7749 7.5 34.9999V37.4999C7.5 46.6666 14.1667 49.9999 14.1667 49.9999C20.065 45.6541 25.9617 42.4658 31.0417 40.1741C30.495 39.7091 30.1075 38.9649 30.03 37.8774C25.8225 39.7758 21.0717 42.2741 16.1958 45.5258C15.69 44.6483 14.7883 44.1666 13.8475 44.1666C13.3133 44.1666 12.77 44.2958 12.2867 44.6108C11.5058 43.2916 10.765 41.6099 10.3483 39.8566C11.0658 39.6241 11.6442 39.1533 12.0192 38.5583C10.7883 37.8149 10 36.4766 10 34.9999C10 34.7691 10.0292 34.5083 10.0675 34.2808Z" fill="#BFDFFF"/>
<path d="M32.5 50.0001V41.3625C27.9967 43.345 22.785 46.0559 17.5 49.6801V50.0001H32.5Z" fill="#BFDFFF"/>
<path d="M8.82331 7.84667L12.1533 11.1767C12.455 11.4792 12.8725 11.6667 13.3333 11.6667C14.2533 11.6667 15 10.92 15 10C15 9.53917 14.8125 9.12167 14.51 8.82083L11.18 5.48917C10.8775 5.1875 10.4608 5 9.99998 5C9.07998 5 8.33331 5.74667 8.33331 6.66667C8.33331 7.1275 8.52081 7.545 8.82331 7.84667Z" fill="#BFDFFF"/>
<path d="M5.83335 21.6666C4.91335 21.6666 4.16669 20.9199 4.16669 19.9999C4.16669 19.0799 4.91335 18.3333 5.83335 18.3333H10C10.92 18.3333 11.6667 19.0799 11.6667 19.9999C11.6667 20.9199 10.92 21.6666 10 21.6666H5.83335Z" fill="#BFDFFF"/>
</svg>
