<svg width="50" height="50" viewBox="0 0 50 50" fill="none" xmlns="http://www.w3.org/2000/svg">
<path d="M41.6667 43.5642V41.315C41.6667 40.5892 41.0775 40 40.3517 40H36.6667V38.3333H39.1667V35.8333C39.1667 35.8333 46.6667 32.5008 46.6667 19.5833C46.6667 17.0525 44.6142 15 42.0833 15C39.86 15 37.9617 16.5758 37.5892 18.6842C37.4142 19.6758 36.2783 31.6667 32.5 31.6667H27.9167C26.7658 31.6667 25.8333 32.5992 25.8333 33.75C25.8333 34.9008 26.7658 35.8333 27.9167 35.8333H31.6667V38.3333H35V40H31.315C30.5892 40 30 40.5892 30 41.315V43.5642C29.5033 43.8533 29.1667 44.3842 29.1667 45C29.1667 45.92 29.9133 46.6667 30.8333 46.6667C31.7533 46.6667 32.5 45.92 32.5 45C32.5 44.385 32.1633 43.8533 31.6667 43.5642V41.6667H35V43.5642C34.5033 43.8533 34.1667 44.3842 34.1667 45C34.1667 45.92 34.9133 46.6667 35.8333 46.6667C36.7533 46.6667 37.5 45.92 37.5 45C37.5 44.385 37.1633 43.8533 36.6667 43.5642V41.6667H40V43.5642C39.5033 43.8533 39.1667 44.3842 39.1667 45C39.1667 45.92 39.9133 46.6667 40.8333 46.6667C41.7533 46.6667 42.5 45.92 42.5 45C42.5 44.385 42.1633 43.8533 41.6667 43.5642Z" fill="#BFDFFF"/>
<path d="M34.5917 25.8333C34.125 27.5583 33.6675 28.5749 33.2917 29.1666H19.1667V44.1666H5.83333V29.1666H4.99999C4.08333 29.1666 3.33333 28.4166 3.33333 27.4999C3.33333 26.5833 4.08333 25.8333 4.99999 25.8333H34.5917Z" fill="#BFDFFF"/>
<path d="M4.16667 3.33325V19.9999H17.5V3.33325H4.16667ZM6.66667 9.99992H11.6667V12.4999H6.66667V9.99992ZM14.1667 16.6666H6.66667V14.1666H14.1667V16.6666ZM14.1667 8.33325H6.66667V5.83325H14.1667V8.33325Z" fill="#BFDFFF"/>
<path d="M41.6667 3.33325H46.6667V9.99992H41.6667V3.33325Z" fill="#BFDFFF"/>
<path d="M38.3333 5.83325H21.6667C20.75 5.83325 20 6.58325 20 7.49992V19.1666C20 20.0833 20.75 20.8333 21.6667 20.8333H27.1667L25.8333 24.1666H34.1667L32.8333 20.8333H35.5992C35.9483 18.5333 35.9142 17.8441 36.5408 16.6666H22.5V8.33325H37.5V15.2999C38.1833 14.5749 39.0333 14.0166 40 13.6908V7.49992C40 6.58325 39.25 5.83325 38.3333 5.83325Z" fill="#BFDFFF"/>
</svg>
