<svg viewBox="0 0 58 60" fill="none" xmlns="http://www.w3.org/2000/svg">
<path d="M31.7193 50.2808C31.8409 47.0608 34.5748 44.5371 37.839 44.6582C41.1031 44.7794 43.6391 47.4986 43.5175 50.7187C43.3959 53.9387 40.6619 56.4624 37.3978 56.3413C34.1337 56.2201 31.5977 53.5009 31.7193 50.2808Z" stroke="#BFDFFF" stroke-width="1.5" fill="#4570a7"/>
<path d="M4.79882 49.5306C4.97669 44.8204 8.97489 41.1339 13.7423 41.3108C18.5097 41.4877 22.2186 45.4602 22.0408 50.1705C21.8629 54.8808 17.8647 58.5673 13.0973 58.3903C8.32995 58.2134 4.62096 54.2409 4.79882 49.5306Z" stroke="#BFDFFF" stroke-width="1.5" fill="#4570a7"/>
<path d="M34.7269 12.1943C34.8583 8.71531 37.8119 5.98959 41.3373 6.12041C44.8626 6.25123 47.6024 9.18824 47.4711 12.6672C47.3397 16.1462 44.386 18.872 40.8607 18.7411C37.3354 18.6103 34.5956 15.6733 34.7269 12.1943Z" stroke="#BFDFFF" stroke-width="1.5" fill="#4570a7"/>
<path d="M44.4873 35.0373C44.4921 31.3139 47.3806 28.3543 50.8725 28.3587C54.3644 28.3632 57.2452 31.3301 57.2404 35.0534C57.2356 38.7767 54.3471 41.7364 50.8552 41.7319C47.3634 41.7275 44.4825 38.7606 44.4873 35.0373Z" stroke="#BFDFFF" stroke-width="1.5" fill="#4570a7"/>
<path d="M1.17037 11.1748C1.38789 5.41441 6.11169 0.945969 11.6832 1.15273C17.2548 1.35949 21.6284 6.16553 21.4109 11.9259C21.1933 17.6863 16.4695 22.1548 10.898 21.948C5.32644 21.7412 0.952852 16.9352 1.17037 11.1748Z" stroke="#BFDFFF" stroke-width="1.5" fill="#4570a7"/>
<path d="M12.872 30.2914C13.1888 21.9033 20.4727 15.324 29.1896 15.6475C37.9065 15.971 44.6738 23.0717 44.3571 31.4598C44.0403 39.8478 36.7564 46.4271 28.0395 46.1036C19.3226 45.7801 12.5553 38.6794 12.872 30.2914Z" stroke="#BFDFFF" stroke-width="1.5" fill="#4570a7"/>
<ellipse rx="1.29829" ry="1.28692" transform="matrix(-1 0 0 1 24.5011 35.2076)" fill="#BFDFFF"/>
<ellipse rx="1.29829" ry="1.28692" transform="matrix(-1 0 0 1 28.8291 30.9168)" fill="#BFDFFF"/>
<ellipse rx="1.29829" ry="1.28692" transform="matrix(-1 0 0 1 33.157 35.2076)" fill="#BFDFFF"/>
<ellipse rx="1.29829" ry="1.28692" transform="matrix(-1 0 0 1 28.8291 35.2076)" fill="#BFDFFF"/>
<ellipse rx="1.29829" ry="1.28692" transform="matrix(-1 0 0 1 33.157 30.9168)" fill="#BFDFFF"/>
<ellipse rx="1.29829" ry="1.28692" transform="matrix(-1 0 0 1 24.5011 26.6273)" fill="#BFDFFF"/>
<ellipse rx="1.29829" ry="1.28692" transform="matrix(-1 0 0 1 28.8291 26.6273)" fill="#BFDFFF"/>
<ellipse rx="1.29829" ry="1.28692" transform="matrix(-1 0 0 1 33.157 26.6273)" fill="#BFDFFF"/>
</svg>
