<svg viewBox="0 0 81 29" fill="none" xmlns="http://www.w3.org/2000/svg">
<mask id="path-1-outside-1_460_4221" maskUnits="userSpaceOnUse" x="0" y="0" width="81" height="29" fill="black">
<rect fill="white" width="81" height="29"/>
<path fill-rule="evenodd" clip-rule="evenodd" d="M68.4019 28.5012C60.9524 29.7158 53.916 24.5839 52.6858 17.0388C51.4556 9.49374 56.4974 2.39258 63.947 1.17796C71.3966 -0.0366701 78.433 5.09519 79.6631 12.6403C80.8934 20.1854 75.8515 27.2865 68.4019 28.5012ZM64.624 5.33041C59.4388 6.17585 55.9294 11.1186 56.7857 16.3704C57.642 21.6221 62.5396 25.1942 67.7249 24.3487C72.9102 23.5033 76.4195 18.5605 75.5633 13.3088C74.707 8.057 69.8093 4.48497 64.624 5.33041ZM39.6866 28.5131L49.1798 1.17949H44.2737L37.0268 23.155L29.6946 1.17949H24.8248L34.3671 28.5131H39.6866ZM19.9233 1.08387H1V5.28904H19.9233V1.08387ZM1 24.2124H19.9233V28.4176H1V24.2124ZM14.6668 12.6497H1V16.8549H14.6668V12.6497Z"/>
</mask>
<path fill-rule="evenodd" clip-rule="evenodd" d="M68.4019 28.5012C60.9524 29.7158 53.916 24.5839 52.6858 17.0388C51.4556 9.49374 56.4974 2.39258 63.947 1.17796C71.3966 -0.0366701 78.433 5.09519 79.6631 12.6403C80.8934 20.1854 75.8515 27.2865 68.4019 28.5012ZM64.624 5.33041C59.4388 6.17585 55.9294 11.1186 56.7857 16.3704C57.642 21.6221 62.5396 25.1942 67.7249 24.3487C72.9102 23.5033 76.4195 18.5605 75.5633 13.3088C74.707 8.057 69.8093 4.48497 64.624 5.33041ZM39.6866 28.5131L49.1798 1.17949H44.2737L37.0268 23.155L29.6946 1.17949H24.8248L34.3671 28.5131H39.6866ZM19.9233 1.08387H1V5.28904H19.9233V1.08387ZM1 24.2124H19.9233V28.4176H1V24.2124ZM14.6668 12.6497H1V16.8549H14.6668V12.6497Z" fill="#2B4677"/>
<path d="M52.6858 17.0388L52.8832 17.0067L52.8832 17.0067L52.6858 17.0388ZM68.4019 28.5012L68.3698 28.3038L68.3698 28.3038L68.4019 28.5012ZM63.947 1.17796L63.9792 1.37535L63.947 1.17796ZM79.6631 12.6403L79.4658 12.6725L79.4658 12.6725L79.6631 12.6403ZM64.624 5.33041L64.5919 5.13302L64.5919 5.13302L64.624 5.33041ZM75.5633 13.3088L75.3659 13.3409L75.5633 13.3088ZM49.1798 1.17949L49.3687 1.24511L49.461 0.979492H49.1798V1.17949ZM39.6866 28.5131V28.7131H39.8289L39.8755 28.5787L39.6866 28.5131ZM44.2737 1.17949V0.979492H44.1291L44.0838 1.11686L44.2737 1.17949ZM37.0268 23.155L36.8371 23.2183L37.028 23.7902L37.2168 23.2176L37.0268 23.155ZM29.6946 1.17949L29.8843 1.11619L29.8387 0.979492H29.6946V1.17949ZM24.8248 1.17949V0.979492H24.5432L24.636 1.24541L24.8248 1.17949ZM34.3671 28.5131L34.1783 28.579L34.2251 28.7131H34.3671V28.5131ZM1 1.08387V0.883874H0.8V1.08387H1ZM19.9233 1.08387H20.1233V0.883874H19.9233V1.08387ZM1 5.28904H0.8V5.48904H1V5.28904ZM19.9233 5.28904V5.48904H20.1233V5.28904H19.9233ZM19.9233 24.2124H20.1233V24.0124H19.9233V24.2124ZM1 24.2124V24.0124H0.8V24.2124H1ZM19.9233 28.4176V28.6176H20.1233V28.4176H19.9233ZM1 28.4176H0.8V28.6176H1V28.4176ZM1 12.6497V12.4497H0.8V12.6497H1ZM14.6668 12.6497H14.8668V12.4497H14.6668V12.6497ZM1 16.8549H0.8V17.0549H1V16.8549ZM14.6668 16.8549V17.0549H14.8668V16.8549H14.6668ZM52.4884 17.071C53.736 24.7228 60.8732 29.9314 68.4341 28.6986L68.3698 28.3038C61.0316 29.5002 54.096 24.4451 52.8832 17.0067L52.4884 17.071ZM63.9148 0.980563C56.3539 2.21335 51.2408 9.41929 52.4884 17.071L52.8832 17.0067C51.6704 9.5682 56.641 2.57182 63.9792 1.37535L63.9148 0.980563ZM79.8605 12.6081C78.613 4.95637 71.4758 -0.252224 63.9148 0.980563L63.9792 1.37535C71.3174 0.178884 78.2529 5.23401 79.4658 12.6725L79.8605 12.6081ZM68.4341 28.6986C75.9951 27.4658 81.1081 20.2598 79.8605 12.6081L79.4658 12.6725C80.6786 20.1109 75.708 27.1073 68.3698 28.3038L68.4341 28.6986ZM56.9831 16.3382C56.1442 11.1931 59.5823 6.35509 64.6562 5.52781L64.5919 5.13302C59.2952 5.99662 55.7146 11.0442 56.5883 16.4026L56.9831 16.3382ZM67.6927 24.1513C62.6188 24.9786 57.822 21.4833 56.9831 16.3382L56.5883 16.4026C57.462 21.761 62.4604 25.4097 67.7571 24.5461L67.6927 24.1513ZM75.3659 13.3409C76.2048 18.4861 72.7666 23.324 67.6927 24.1513L67.7571 24.5461C73.0537 23.6825 76.6343 18.635 75.7607 13.2766L75.3659 13.3409ZM64.6562 5.52781C69.7301 4.70053 74.527 8.19582 75.3659 13.3409L75.7607 13.2766C74.887 7.91818 69.8885 4.26942 64.5919 5.13302L64.6562 5.52781ZM48.9908 1.11387L39.4977 28.4475L39.8755 28.5787L49.3687 1.24511L48.9908 1.11387ZM44.2737 1.37949H49.1798V0.979492H44.2737V1.37949ZM37.2168 23.2176L44.4637 1.24213L44.0838 1.11686L36.8369 23.0924L37.2168 23.2176ZM29.5049 1.24279L36.8371 23.2183L37.2166 23.0917L29.8843 1.11619L29.5049 1.24279ZM24.8248 1.37949H29.6946V0.979492H24.8248V1.37949ZM34.5559 28.4472L25.0137 1.11357L24.636 1.24541L34.1783 28.579L34.5559 28.4472ZM39.6866 28.3131H34.3671V28.7131H39.6866V28.3131ZM1 1.28387H19.9233V0.883874H1V1.28387ZM1.2 5.28904V1.08387H0.8V5.28904H1.2ZM19.9233 5.08904H1V5.48904H19.9233V5.08904ZM19.7233 1.08387V5.28904H20.1233V1.08387H19.7233ZM19.9233 24.0124H1V24.4124H19.9233V24.0124ZM20.1233 28.4176V24.2124H19.7233V28.4176H20.1233ZM1 28.6176H19.9233V28.2176H1V28.6176ZM0.8 24.2124V28.4176H1.2V24.2124H0.8ZM1 12.8497H14.6668V12.4497H1V12.8497ZM1.2 16.8549V12.6497H0.8V16.8549H1.2ZM14.6668 16.6549H1V17.0549H14.6668V16.6549ZM14.4668 12.6497V16.8549H14.8668V12.6497H14.4668Z" fill="black" mask="url(#path-1-outside-1_460_4221)"/>
</svg>
