<svg viewBox="0 0 50 50" fill="none" xmlns="http://www.w3.org/2000/svg">
<path d="M42.5 5.83325H7.50002C5.65919 5.83325 4.16669 7.32575 4.16669 9.16659V34.1666C4.16669 36.0074 5.65919 37.4999 7.50002 37.4999H22.5V41.6666H18.3334C16.9534 41.6666 15.8334 42.7866 15.8334 44.1666C15.8334 45.0866 16.58 45.8333 17.5 45.8333H32.5C33.42 45.8333 34.1667 45.0866 34.1667 44.1666C34.1667 42.7866 33.0467 41.6666 31.6667 41.6666H27.5V37.4999H42.5C44.3409 37.4999 45.8334 36.0074 45.8334 34.1666V9.16659C45.8334 7.32575 44.3409 5.83325 42.5 5.83325ZM42.5 32.4999H7.50002V9.16659H42.5V32.4999Z" fill="#96CEFE"/>
<path d="M23.3333 20.8333L13.3333 17.5V26.6667L23.3333 30V20.8333Z" fill="#96CEFE"/>
<path d="M32.1484 20.8333C31.8984 20.8333 31.6667 21.0299 31.6667 21.3149V28.6774C31.6667 29.0316 32.0342 29.2724 32.3542 29.1191C33.0317 28.7949 33.6309 28.4724 34.2592 28.1616C34.5459 28.7349 34.7717 29.1649 35.4867 29.1666C36.1234 29.1683 36.6667 28.6558 36.6667 28.0033C36.6667 27.6483 36.5234 27.4299 36.3609 27.1116L38.0684 26.2424C38.2359 26.1599 38.3334 25.9983 38.3334 25.8333C38.3334 25.6783 38.2767 25.5266 38.1409 25.4241C36.0292 23.8299 34.5334 22.5133 32.4367 20.9308C32.3467 20.8641 32.2459 20.8333 32.1484 20.8333Z" fill="#96CEFE"/>
<path d="M34.1667 20.1567V16.6667L25 20.0001V30.0001L30 28.1817V21.3151C30 20.1309 30.9633 19.1667 32.1483 19.1667C33.0142 19.1667 33.4683 19.6176 34.1667 20.1567Z" fill="#96CEFE"/>
<path d="M22.9833 18.9601L34.02 14.9467L25 11.6667L13.4633 15.7867L22.9833 18.9601Z" fill="#96CEFE"/>
</svg>
