<svg viewBox="0 0 50 50" fill="none" xmlns="http://www.w3.org/2000/svg">
<path d="M23.3333 44.1667H3.33331V28.3333C3.33331 23.7317 7.06415 20 11.6666 20H15C19.6025 20 23.3333 23.7317 23.3333 28.3333V44.1667Z" fill="#96CEFE"/>
<path d="M13.3334 17.5001C17.0153 17.5001 20 14.5153 20 10.8334C20 7.15152 17.0153 4.16675 13.3334 4.16675C9.65146 4.16675 6.66669 7.15152 6.66669 10.8334C6.66669 14.5153 9.65146 17.5001 13.3334 17.5001Z" fill="#96CEFE"/>
<path d="M35.8333 14.9999C39.055 14.9999 41.6667 12.3882 41.6667 9.16659C41.6667 5.94492 39.055 3.33325 35.8333 3.33325C32.6117 3.33325 30 5.94492 30 9.16659C30 12.3882 32.6117 14.9999 35.8333 14.9999Z" fill="#96CEFE"/>
<path d="M34.715 28.5391L48.0483 40.2058C48.2225 40.3591 48.3333 40.5833 48.3333 40.8333C48.3333 41.2941 47.9608 41.6666 47.5 41.6666H40L34.7558 47.2558C34.6041 47.4066 34.3958 47.4999 34.1666 47.4999C33.7058 47.4999 33.3333 47.1274 33.3333 46.6666V29.1666C33.3333 28.7058 33.7058 28.3333 34.1666 28.3333C34.3766 28.3333 34.5683 28.4116 34.715 28.5391Z" fill="#96CEFE"/>
<path d="M30.8334 29.1667C30.8334 27.3283 32.3292 25.8333 34.1667 25.8333C34.9767 25.8333 35.7567 26.1275 36.365 26.66L45 34.2167V25.8333C45 21.2308 41.2692 17.5 36.6667 17.5H35C30.3975 17.5 26.6667 21.2308 26.6667 25.8333V37.5H30.8334V29.1667Z" fill="#96CEFE"/>
</svg>
