<svg viewBox="0 0 60 60" fill="none" xmlns="http://www.w3.org/2000/svg">
<path d="M27 32V56C27 57.104 26.104 58 25 58H20C19.46 58 19 57.569 19 57.029C19 55.841 19.753 54.749 20.895 54.369L22 54V42C22 41.447 21.553 41 21 41C20.447 41 20 41.447 20 42V52.567C18.212 53.286 17 55.101 17 57.04C17 57.224 17.019 57.403 17.053 57.578L14.155 57.99C13.621 58.066 13.107 57.703 13.029 57.17C12.86 56.023 13.454 54.806 14.53 54.269L15.573 53.748L15.017 45.356C15.006 45.201 15 45.047 15 44.893C15.001 44.549 15.031 44.207 15.092 43.87L16.766 34H16C14.35 34 13 32.65 13 31V24C13 19.582 16.582 16 21 16H24.102C26.434 16 28.614 17.161 29.914 19.098L32.659 23.185C32.874 23.504 33 23.889 33 24.303C33 24.884 32.752 25.407 32.357 25.773L28.357 29.469C27.904 29.888 27.257 30.1 26.565 29.954C25.831 29.8 25.22 29.203 25.054 28.472C24.878 27.707 25.142 26.993 25.642 26.532L28.688 23.726C28.881 23.543 29 23.285 29 23C29 22.447 28.553 22 28 22C27.744 22 27.51 22.097 27.333 22.255L24.285 25.063C23.445 25.839 23 26.896 23 28.009C23 28.582 23.121 29.154 23.369 29.717C23.659 30.374 24.146 30.946 24.751 31.332C25.466 31.789 26.241 32 27 32Z" fill="#F9FAFF"/>
<path d="M18 7.5C18 5.015 20.015 3 22.5 3C24.985 3 27 5.015 27 7.5V9.5C27 11.985 24.985 14 22.5 14C20.015 14 18 11.985 18 9.5V7.5Z" fill="#F9FAFF"/>
<path d="M41 39C43.206 39 45 40.57 45 42.5C45 44.126 43.721 45.484 42 45.876V47C42 47.553 41.553 48 41 48C40.447 48 40 47.553 40 47V45.879C38.533 45.555 37.349 44.549 37.028 43.237C37.01 43.161 37 43.082 37 43C37 42.447 37.447 42 38 42C38.471 42 38.865 42.325 38.972 42.763C39.141 43.457 40.032 44 41 44C42.084 44 43 43.313 43 42.5C43 41.687 42.084 41 41 41C38.794 41 37 39.43 37 37.5C37 35.874 38.279 34.516 40 34.124V33C40 32.447 40.447 32 41 32C41.553 32 42 32.447 42 33V34.121C43.467 34.445 44.651 35.451 44.972 36.763C44.99 36.839 45 36.918 45 37C45 37.553 44.553 38 44 38C43.529 38 43.135 37.675 43.028 37.237C42.859 36.543 41.968 36 41 36C39.916 36 39 36.687 39 37.5C39 38.313 39.916 39 41 39Z" fill="#F9FAFF"/>
<path d="M33 6V18.998C33 19.934 34.17 20.356 34.768 19.639L36.967 17H48C49.104 17 50 16.104 50 15V6C50 4.896 49.104 4 48 4H35C33.896 4 33 4.896 33 6ZM38 10.5C38 11.328 37.328 12 36.5 12C35.672 12 35 11.328 35 10.5C35 9.672 35.672 9 36.5 9C37.328 9 38 9.672 38 10.5ZM45 10.5C45 9.672 45.672 9 46.5 9C47.328 9 48 9.672 48 10.5C48 11.328 47.328 12 46.5 12C45.672 12 45 11.328 45 10.5ZM40 10.5C40 9.672 40.672 9 41.5 9C42.328 9 43 9.672 43 10.5C43 11.328 42.328 12 41.5 12C40.672 12 40 11.328 40 10.5Z" fill="#F9FAFF"/>
<path d="M34.272 22L34.318 22.069C34.764 22.728 35 23.501 35 24.303C35 25.414 34.532 26.485 33.716 27.241L29.715 30.938C29.495 31.141 29.255 31.316 29 31.462V58H53V22H34.272ZM49 50C46.788 50 45 51.788 45 54H37C37 51.788 35.212 50 33 50V30C35.212 30 37 28.212 37 26H45C45 28.212 46.788 30 49 30V50Z" fill="#F9FAFF"/>
<path d="M11 33C11 31.896 10.104 31 9 31C7.896 31 7 31.896 7 33V43C7 44.104 7.896 45 9 45C10.104 45 11 44.104 11 43V33Z" fill="#F9FAFF"/>
</svg>
