<svg width="50" height="50" viewBox="0 0 50 50" fill="none" xmlns="http://www.w3.org/2000/svg">
<path d="M25 0C11.193 0 0 11.193 0 25C0 38.807 11.193 50 25 50C38.807 50 50 38.807 50 25C50 11.193 38.807 0 25 0ZM11 27H7C5.896 27 5 26.104 5 25C5 23.896 5.896 23 7 23H11C12.104 23 13 23.896 13 25C13 26.104 12.104 27 11 27ZM27 43C27 44.104 26.104 45 25 45C23.896 45 23 44.104 23 43V39C23 37.896 23.896 37 25 37C26.104 37 27 37.896 27 39V43ZM35 37C34.447 37 33.947 36.776 33.586 36.414L23.586 26.414C23.224 26.053 23 25.553 23 25V9C23 7.896 23.896 7 25 7C26.104 7 27 7.896 27 9V24.172L36.414 33.586C36.776 33.947 37 34.447 37 35C37 36.104 36.104 37 35 37ZM43 27H39C37.896 27 37 26.104 37 25C37 23.896 37.896 23 39 23H43C44.104 23 45 23.896 45 25C45 26.104 44.104 27 43 27Z" fill="#BFDFFF"/>
</svg>
