<svg viewBox="0 0 63 62" fill="none" xmlns="http://www.w3.org/2000/svg">
<path d="M0 1H55.493C59.0865 1 61.9996 3.91313 61.9996 7.50667V54.013C61.9996 57.6065 59.0865 60.5197 55.493 60.5197H0" stroke="#BFDFFF" stroke-width="1.2" fill="#4570a7"/>
<circle r="1.43069" transform="matrix(-1 0 0 1 1.43145 31.8084)" fill="#BFDFFF"/>
<circle r="1.43069" transform="matrix(-1 0 0 1 6.20168 27.0393)" fill="#BFDFFF"/>
<circle r="1.43069" transform="matrix(-1 0 0 1 10.9679 31.8084)" fill="#BFDFFF"/>
<circle r="1.43069" transform="matrix(-1 0 0 1 6.20168 31.8084)" fill="#BFDFFF"/>
<circle r="1.43069" transform="matrix(-1 0 0 1 10.9679 27.0393)" fill="#BFDFFF"/>
<circle r="1.43069" transform="matrix(-1 0 0 1 1.43145 22.2705)" fill="#BFDFFF"/>
<circle r="1.43069" transform="matrix(-1 0 0 1 6.20168 22.2705)" fill="#BFDFFF"/>
<circle r="1.43069" transform="matrix(-1 0 0 1 10.9679 22.2705)" fill="#BFDFFF"/>
<path d="M0 1H55.493C59.0865 1 61.9996 3.91313 61.9996 7.50667V50.5997H0" stroke="#BFDFFF" stroke-width="1.2"/>
<path d="M30.5856 41.093H50.0122" stroke="#BFDFFF" stroke-width="1.2"/>
<path d="M30.5856 23.7332H50.0122" stroke="#BFDFFF" stroke-width="1.2"/>
<path d="M30.5856 35.3066H50.0122" stroke="#BFDFFF" stroke-width="1.2"/>
<path d="M30.5856 17.9463H50.0122" stroke="#BFDFFF" stroke-width="1.2"/>
<path d="M30.5856 29.5198H50.0122" stroke="#BFDFFF" stroke-width="1.2"/>
<path d="M30.5856 12.1599H50.0122" stroke="#BFDFFF" stroke-width="1.2"/>
<rect x="23.9754" y="33.2397" width="4.13331" height="4.13331" rx="1" fill="#C2E6FF"/>
<rect x="23.9754" y="15.8799" width="4.13331" height="4.13331" rx="1" fill="#C2E6FF"/>
<rect x="23.9754" y="27.4531" width="4.13331" height="4.13331" rx="1" fill="#C2E6FF"/>
<rect x="23.9754" y="10.0935" width="4.13331" height="4.13331" rx="1" fill="#C2E6FF"/>
<rect x="23.9754" y="39.0266" width="4.13331" height="4.13331" rx="1" fill="#C2E6FF"/>
<rect x="23.9754" y="21.6663" width="4.13331" height="4.13331" rx="1" fill="#C2E6FF"/>
</svg>
